<?xml version="1.0" encoding="UTF-8"?>
<!DOCTYPE svg PUBLIC "-//W3C//DTD SVG 1.1//EN" "http://www.w3.org/Graphics/SVG/1.1/DTD/svg11.dtd">
<!-- Creator: CorelDRAW SE -->
<svg xmlns="http://www.w3.org/2000/svg" xml:space="preserve" width="210mm" height="155mm" version="1.1" style="shape-rendering:geometricPrecision; text-rendering:geometricPrecision; image-rendering:optimizeQuality; fill-rule:evenodd; clip-rule:evenodd"
viewBox="0 0 21000 15500"
 xmlns:xlink="http://www.w3.org/1999/xlink">
 <defs>
  <style type="text/css">
   <![CDATA[
    .fil0 {fill:#FEFEFE}
   ]]>
  </style>
 </defs>
 <g id="Warstwa_x0020_1">
  <metadata id="CorelCorpID_0Corel-Layer"/>
  <g id="_317545384">
   <path class="fil0" d="M8020 4037c-22,99 -12,214 24,330 16,51 36,101 60,150 24,52 53,101 87,149 33,48 69,94 108,135 37,41 78,79 119,110l2 1c101,79 214,132 328,142 149,14 368,-106 498,-193l29 -19 3 -2c51,-34 103,-64 152,-97 29,-17 63,-22 94,-15 31,7 58,25 75,51 6,7 9,12 11,19l49 89 2 1c65,118 128,233 196,346 65,109 130,210 197,299l2 1 7 11c6,10 17,23 29,39l1 2c41,54 82,112 125,164 41,49 84,92 123,121l0 0c27,19 56,29 84,22 31,-7 65,-34 104,-87 9,-14 17,-27 26,-41l25 -39 2 -2c26,-39 51,-79 70,-120 14,-29 24,-59 27,-92 -15,-3 -34,-7 -53,-8l-1 0c-137,-18 -270,-33 -315,-296l0 -2 0 0 -5 -32 0 0c-5,-34 -8,-60 -12,-75 -1,-11 -3,-19 -5,-23l0 2c0,2 0,2 0,2l0 0 0 0c-12,-7 -26,-14 -43,-23l-15 -6 -2 0 0 0c-44,-23 -80,-53 -107,-93 -31,-41 -52,-89 -65,-140l0 0c-14,-51 -23,-106 -26,-160 -3,-64 -2,-125 5,-178l0 -2c4,-22 10,-41 22,-58l2 -3c12,-16 29,-29 48,-38 2,0 3,-2 5,-2 381,-171 704,-258 983,-304 232,-37 436,-44 618,-46 -377,-250 -764,-648 -1090,-1094 -335,-456 -605,-962 -737,-1405 -87,257 -211,566 -423,904 -246,387 -1379,1328 -1443,1605l0 0zm-4110 5898l13180 0 0 3232 -13180 0 0 -3232 0 0zm5173 2191l-600 0 -85 282 -540 0 644 -1713 580 0 642 1713 -554 0 -87 -282 0 0zm-111 -371l-186 -615 -188 615 374 0 0 0zm891 -1061l786 0c155,0 280,20 376,63 95,43 174,103 237,181 62,79 108,171 135,275 29,105 43,216 43,332 0,183 -21,325 -63,425 -41,101 -99,185 -175,253 -73,69 -153,113 -239,137 -116,31 -220,46 -316,46l-786 0 0 -1712 2 0zm528 388l0 934 130 0c111,0 189,-11 237,-35 46,-24 84,-67 109,-129 28,-61 40,-160 40,-297 0,-181 -29,-306 -89,-372 -60,-67 -157,-101 -296,-101l-131 0 0 0zm1198 758l502 -30c10,82 33,143 67,186 54,68 131,104 234,104 75,0 133,-17 174,-53 41,-36 62,-77 62,-123 0,-44 -19,-84 -58,-119 -40,-36 -129,-69 -270,-100 -233,-51 -397,-121 -496,-208 -99,-86 -150,-197 -150,-330 0,-87 25,-171 76,-249 52,-79 129,-141 231,-185 103,-44 243,-67 421,-67 218,0 386,41 500,123 115,82 183,211 205,390l-497 29c-14,-77 -41,-135 -84,-169 -42,-36 -100,-53 -176,-53 -61,0 -107,14 -138,39 -31,26 -46,58 -46,96 0,27 12,51 37,73 24,23 84,43 176,64 231,49 397,101 496,152 101,51 173,114 219,189 46,76 68,161 68,253 0,110 -31,211 -90,305 -62,92 -146,162 -255,210 -110,48 -246,72 -412,72 -291,0 -492,-57 -605,-168 -113,-114 -176,-258 -191,-431l0 0zm-7679 -4947l7347 0 0 350 -7347 0 0 -350 0 0zm0 1015l13180 0 0 350 -13180 0 0 -350 0 0zm0 1014l13180 0 0 350 -13180 0 0 -350 0 0zm-3476 5699l2152 0c-159,-41 -279,-188 -279,-359l0 -10454c0,-203 168,-371 371,-371l4252 0 123 734 -3960 0 0 9835 14771 0 0 -9835 -3828 0 188 -734 4001 0c205,0 370,168 370,371l0 10452c0,173 -117,318 -278,359l2249 0c239,0 434,195 434,434 0,240 -195,434 -434,434l-20132 0c-239,0 -434,-194 -434,-434 0,-237 195,-432 434,-432l0 0 0 0zm9456 162l1220 0c115,0 209,94 209,209 0,114 -94,208 -209,208l-1220 0c-115,0 -209,-94 -209,-208 0,-116 94,-209 209,-209l0 0 0 0zm1394 -14261c-63,-36 -83,-116 -47,-180 35,-63 116,-83 179,-47 349,201 795,630 1171,1124 335,439 615,935 726,1371 17,70 -24,142 -96,160 -70,17 -142,-24 -160,-95 -103,-402 -366,-863 -681,-1277 -353,-467 -770,-870 -1092,-1056l0 0zm2280 -289c-49,-53 -46,-137 9,-186 53,-50 136,-46 186,8 99,108 197,221 292,340 93,117 181,236 267,359 41,60 26,142 -34,183 -60,41 -142,26 -183,-34 -84,-118 -169,-234 -258,-345 -91,-113 -185,-222 -279,-325l0 0zm-1109 127c-55,-48 -60,-132 -12,-185 48,-55 132,-60 185,-12 236,208 482,475 707,766 212,273 404,569 549,858 32,64 7,143 -58,176 -65,32 -144,6 -176,-59 -137,-271 -320,-553 -522,-815 -215,-278 -451,-531 -673,-729l0 0zm-1945 1972c127,-52 253,-74 376,-60 347,37 598,311 569,666 -10,135 -58,282 -143,445 70,68 145,136 227,205 116,101 232,188 350,261 106,67 214,120 320,159 10,-2 20,-3 29,-7 10,-3 19,-8 27,-13 7,-5 16,-11 23,-19 17,-34 29,-75 34,-121 5,-52 5,-108 -4,-170l0 0c-24,-186 -104,-412 -222,-651 -130,-263 -306,-542 -502,-808 -193,-262 -405,-511 -615,-718 -200,-198 -397,-359 -570,-458l-1 0c-64,-36 -123,-63 -176,-79l-4 -1c-46,-14 -87,-19 -121,-14l0 0c-9,2 -14,2 -19,4l-2 1 0 0 0 0c-3,7 -8,14 -12,21 -1,3 -5,8 -8,15l-5 10 0 4 0 1c-17,103 0,240 41,399 46,169 121,362 220,565 64,130 127,250 188,363l0 0zm-224 2746l0 0 0 0 0 0 0 0 0 0zm1530 -798l0 0 -3 0c-383,3 -862,8 -1540,301 0,25 0,53 1,80 2,32 7,63 16,91l0 0c7,20 13,37 22,51 7,10 14,19 22,22l14 7 2 0 3 2 0 0c74,36 111,54 147,111l0 1c27,45 36,93 50,180l0 0 1 8 0 2 0 0 5 33 0 1c14,75 55,81 96,86l0 0 0 0c205,24 279,119 277,246 0,113 -67,244 -144,362l0 0c-8,14 -17,27 -24,38 -6,12 -15,24 -22,34l-3 5c-2,2 -2,3 -4,5 -88,127 -179,190 -271,207 -94,17 -183,-14 -270,-74 -110,-76 -205,-203 -294,-323l-14 -18 -14 -19 0 0 0 0 -24 -33 -1 -3c-70,-94 -139,-202 -205,-314 -64,-106 -129,-223 -195,-342l-2 1c-14,9 -27,18 -36,24l0 0 0 0 -48 33 -3 2c-198,129 -373,247 -639,220 -163,-15 -318,-89 -455,-197 -53,-41 -102,-87 -148,-138 -48,-51 -91,-106 -132,-164 -39,-58 -74,-118 -104,-179 -29,-62 -55,-125 -75,-188l0 -2c-48,-159 -62,-321 -28,-463 142,-604 1472,-1248 1947,-2764l0 -1c22,-72 42,-137 65,-199l0 0c20,-59 42,-112 66,-157l2 -2c12,-22 22,-39 34,-54 14,-17 29,-33 48,-46 19,-14 39,-24 62,-33 22,-7 46,-12 73,-15l0 0c68,-9 142,-2 220,20 77,22 158,58 241,106l2 2c190,108 400,280 614,489 220,218 444,478 646,753 206,282 393,578 531,860 128,260 214,506 241,718 12,89 12,172 2,249 -10,75 -33,144 -68,204l-2 1c-101,178 -422,175 -617,173 -24,0 -46,0 -65,0l0 0z"/>
  </g>
 </g>
</svg>
