<?xml version="1.0" encoding="UTF-8"?>
<!DOCTYPE svg PUBLIC "-//W3C//DTD SVG 1.1//EN" "http://www.w3.org/Graphics/SVG/1.1/DTD/svg11.dtd">
<!-- Creator: CorelDRAW SE -->
<svg xmlns="http://www.w3.org/2000/svg" xml:space="preserve" width="152.391mm" height="216.043mm" version="1.1" style="shape-rendering:geometricPrecision; text-rendering:geometricPrecision; image-rendering:optimizeQuality; fill-rule:evenodd; clip-rule:evenodd"
viewBox="0 0 15239 21604"
 xmlns:xlink="http://www.w3.org/1999/xlink">
 <defs>
  <style type="text/css">
   <![CDATA[
    .fil2 {fill:white}
    .fil0 {fill:white;fill-rule:nonzero}
    .fil1 {fill:white;fill-rule:nonzero}
   ]]>
  </style>
 </defs>
 <g id="Warstwa_x0020_1">
  <metadata id="CorelCorpID_0Corel-Layer"/>
  <path class="fil0" d="M7898 19929l0 240c0,106 -29,180 -88,223 -58,43 -141,65 -246,67l-6 5c124,8 218,46 280,115 62,68 93,155 93,259l0 298c0,147 -40,255 -121,323 -81,69 -199,104 -355,104l-708 0 0 -1990 739 0c139,0 242,28 310,86 68,58 102,148 102,270zm-596 418c39,0 68,-12 87,-36 20,-24 30,-51 30,-81l0 -223c0,-26 -10,-52 -28,-78 -19,-26 -50,-39 -95,-39l-53 0 0 457 59 0zm117 761l0 -340c0,-39 -11,-68 -32,-89 -22,-20 -52,-31 -91,-31l-53 0 0 580c7,2 18,3 31,3 44,0 80,-9 106,-28 26,-19 39,-50 39,-95z"/>
  <polygon class="fil0" points="8603,20361 8609,20361 8734,19573 9213,19573 8843,20835 8843,21563 8347,21563 8347,20838 7976,19573 8455,19573 "/>
  <polygon class="fil0" points="10339,19974 10035,19974 10035,21563 9523,21563 9523,19974 9219,19974 9219,19573 10339,19573 "/>
  <path class="fil0" d="M11016 19531c199,0 351,47 455,142 104,95 156,248 156,460l0 869c0,210 -52,363 -155,459 -103,95 -255,143 -456,143 -200,0 -352,-47 -455,-140 -103,-94 -155,-248 -155,-462l0 -869c0,-210 52,-363 155,-459 103,-95 255,-143 455,-143zm-97 457l0 1159c0,39 8,69 25,91 17,21 41,32 72,32 32,0 56,-11 73,-32 17,-22 25,-52 25,-91l0 -1159c0,-39 -8,-69 -25,-91 -17,-21 -41,-32 -73,-32 -65,0 -97,41 -97,123z"/>
  <polygon class="fil0" points="12566,20735 12571,20735 12691,19573 13382,19573 13382,21563 12948,21563 12948,20085 12942,20085 12728,21563 12404,21563 12190,20085 12184,20085 12184,21563 11749,21563 11749,19573 12432,19573 "/>
  <path class="fil1" d="M12179 12124l1121 -3102 -2544 -2906 -6736 650 -2273 2919 1995 3163 -420 1575 -3035 -4810 3107 -3988 7858 -757 3413 3898 -1508 4172c-11,-14 -23,-28 -36,-41 -20,-21 -42,-41 -66,-60l-876 -713z"/>
  <g id="_508393584">
   <path class="fil2" d="M11496 13826l-2682 1155c-708,1282 -1417,2562 -2126,3843l-35 63 -35 63 -10 19c16,5 33,9 51,13 36,7 73,11 112,11l6170 22c79,0 152,-14 219,-43 67,-28 128,-72 183,-129 54,-57 94,-120 119,-189 25,-68 35,-142 30,-221l-297 -5124c-3,-43 -10,-85 -21,-124 -7,-25 -15,-48 -25,-71l-1653 712z"/>
   <path class="fil2" d="M8730 14928l336 -5069c-27,-1 -55,1 -83,4 -44,5 -87,16 -131,32l-4415 1636c-86,32 -159,81 -217,144 -57,63 -99,141 -123,230l-1088 4075c-30,112 -25,226 12,328 36,102 104,192 199,260l3232 2322c17,12 35,23 52,33l12 7 546 -989 1668 -3013z"/>
   <path class="fil2" d="M13096 13023c-14,-20 -30,-39 -47,-57 -17,-18 -36,-36 -56,-52l-3602 -2930c-42,-34 -87,-61 -133,-81 -30,-13 -61,-23 -92,-31l-77 1156 -255 3836 4265 -1837 -3 -4z"/>
  </g>
  <path class="fil2" d="M1044 3995c-627,0 -1044,-414 -1044,-802l0 -2390c0,-389 422,-803 1044,-803 615,0 1016,414 1016,803l0 739 -838 0 0 -623c0,-101 -82,-165 -178,-165 -109,0 -186,64 -186,165l0 2159c0,102 82,165 186,165 96,0 178,-63 178,-165l0 -622 840 0 0 739c3,386 -398,800 -1018,800zm2077 -1778l0 1705 -820 0 0 -2893 767 0 53 304c120,-180 290,-304 663,-304l0 688c-444,-5 -663,239 -663,500zm1819 1753c-546,0 -988,-282 -988,-706l0 -1527c0,-434 447,-711 988,-711 541,0 988,282 988,711l0 1524c0,432 -447,709 -988,709zm173 -2197c0,-97 -82,-140 -178,-140 -97,0 -173,43 -173,140l0 1450c0,97 71,140 173,140 96,0 178,-43 178,-140l0 -1450zm1981 2197c-600,0 -953,-282 -953,-706l0 -295 745 0 0 246c0,97 71,166 193,166 119,0 188,-49 188,-214 0,-256 -188,-333 -623,-559 -401,-200 -495,-485 -495,-792 0,-594 429,-785 937,-785 551,0 930,282 930,711l0 264 -739 0 0 -220c0,-97 -54,-153 -173,-153 -130,0 -188,56 -188,198 0,214 119,234 434,399 592,295 684,663 684,960 0,406 -270,780 -940,780zm2077 0c-599,0 -952,-282 -952,-706l0 -295 744 0 0 246c0,97 71,166 193,166 122,0 188,-49 188,-214 0,-256 -188,-333 -622,-559 -401,-200 -495,-485 -495,-792 0,-594 429,-785 937,-785 551,0 929,282 929,711l0 264 -739 0 0 -220c0,-97 -53,-153 -172,-153 -130,0 -188,56 -188,198 0,214 119,234 434,399 592,295 683,663 683,960 0,406 -274,780 -940,780zm2017 -3218l0 876 620 0 0 711 -620 0 0 1580 -848 0 0 -3850 1676 0 0 688 -828 -5 0 0zm1016 0l0 -683 815 0 0 688 -815 -5 0 0zm0 3170l0 -2840 815 0 0 2842 -815 0 0 -2zm2184 -2266l0 1476c0,81 82,139 173,139l213 0 0 651 -388 0c-518,0 -808,-359 -808,-719l0 -1547 -356 0 0 -574 354 0 0 -490 812 0 0 495 422 0 0 579 -422 -10 0 0zm686 -571c91,0 165,71 165,160 0,88 -71,160 -165,160 -91,0 -165,-72 -165,-160 0,-89 74,-160 165,-160l0 0zm0 33c-69,0 -124,55 -124,129 0,71 53,130 124,130 69,0 119,-56 119,-130 3,-74 -50,-129 -119,-129l0 0zm-28 213l-35 0 0 -160c15,0 35,-5 60,-5 34,0 44,5 56,12 8,8 16,21 16,36 0,20 -16,33 -33,36l0 0c15,5 22,15 28,40 5,23 7,33 12,41l-40 0c-5,-5 -8,-20 -13,-41 -5,-15 -13,-23 -33,-23l-13 0 -5 64 0 0zm5 -94l15 0c21,0 36,-8 36,-23 0,-15 -13,-23 -36,-23 -7,0 -15,0 -20,0l5 46 0 0z"/>
 </g>
</svg>
