<?xml version="1.0" encoding="UTF-8"?>
<!DOCTYPE svg PUBLIC "-//W3C//DTD SVG 1.1//EN" "http://www.w3.org/Graphics/SVG/1.1/DTD/svg11.dtd">
<!-- Creator: CorelDRAW SE -->
<svg xmlns="http://www.w3.org/2000/svg" xml:space="preserve" width="200mm" height="250mm" version="1.1" style="shape-rendering:geometricPrecision; text-rendering:geometricPrecision; image-rendering:optimizeQuality; fill-rule:evenodd; clip-rule:evenodd"
viewBox="0 0 20000 25000"
 xmlns:xlink="http://www.w3.org/1999/xlink">
 <defs>
  <style type="text/css">
   <![CDATA[
    .str1 {stroke:#222224;stroke-width:7.62}
    .str0 {stroke:#313133;stroke-width:7.62}
    .str2 {stroke:#403F44;stroke-width:7.62}
    .fil6 {fill:none}
    .fil0 {fill:#2B2A29}
    .fil4 {fill:#222224}
    .fil3 {fill:#313133}
    .fil5 {fill:#403F44}
    .fil2 {fill:#222224;fill-rule:nonzero}
    .fil1 {fill:#2B2A29;fill-rule:nonzero}
   ]]>
  </style>
 </defs>
 <g id="Warstwa_x0020_1">
  <metadata id="CorelCorpID_0Corel-Layer"/>
  <path class="fil0" d="M3424 5693c-627,0 -1044,-414 -1044,-803l0 -2390c0,-388 422,-802 1044,-802 615,0 1016,414 1016,802l0 740 -838 0 0 -623c0,-101 -81,-165 -178,-165 -109,0 -185,64 -185,165l0 2159c0,102 81,165 185,165 97,0 178,-63 178,-165l0 -622 841 0 0 739c2,386 -399,800 -1019,800zm2078 -1778l0 1704 -820 0 0 -2893 767 0 53 305c119,-180 289,-305 663,-305l0 689c-445,-5 -663,239 -663,500zm1818 1753c-546,0 -988,-282 -988,-706l0 -1527c0,-434 447,-711 988,-711 541,0 988,282 988,711l0 1524c0,432 -447,709 -988,709zm173 -2197c0,-97 -81,-140 -178,-140 -96,0 -172,43 -172,140l0 1450c0,96 71,140 172,140 97,0 178,-44 178,-140l0 -1450zm1981 2197c-599,0 -952,-282 -952,-706l0 -295 744 0 0 246c0,97 71,165 193,165 119,0 188,-48 188,-213 0,-256 -188,-333 -622,-559 -402,-200 -496,-485 -496,-792 0,-594 430,-785 938,-785 551,0 929,282 929,711l0 264 -739 0 0 -221c0,-96 -53,-152 -173,-152 -129,0 -188,56 -188,198 0,213 120,234 435,399 592,294 683,663 683,960 0,406 -269,780 -940,780zm2078 0c-600,0 -953,-282 -953,-706l0 -295 745 0 0 246c0,97 71,165 193,165 122,0 188,-48 188,-213 0,-256 -188,-333 -623,-559 -401,-200 -495,-485 -495,-792 0,-594 429,-785 937,-785 551,0 930,282 930,711l0 264 -739 0 0 -221c0,-96 -54,-152 -173,-152 -130,0 -188,56 -188,198 0,213 119,234 434,399 592,294 684,663 684,960 0,406 -275,780 -940,780zm2017 -3218l0 876 619 0 0 711 -619 0 0 1580 -849 0 0 -3851 1676 0 0 689 -827 -5 0 0zm1015 0l0 -684 816 0 0 689 -816 -5 0 0zm0 3169l0 -2839 816 0 0 2842 -816 0 0 -3zm2185 -2265l0 1475c0,82 81,140 172,140l214 0 0 650 -389 0c-518,0 -807,-358 -807,-718l0 -1547 -356 0 0 -574 353 0 0 -490 813 0 0 495 421 0 0 579 -421 -10 0 0zm685 -572c92,0 166,71 166,160 0,89 -72,160 -166,160 -91,0 -165,-71 -165,-160 0,-89 74,-160 165,-160l0 0zm0 33c-68,0 -124,56 -124,130 0,71 53,129 124,129 69,0 120,-55 120,-129 2,-74 -51,-130 -120,-130l0 0zm-27 214l-36 0 0 -160c15,0 36,-5 61,-5 33,0 43,5 56,12 7,8 15,21 15,36 0,20 -15,33 -33,35l0 0c15,6 23,16 28,41 5,23 8,33 13,41l-41 0c-5,-5 -8,-21 -13,-41 -5,-15 -12,-23 -33,-23l-12 0 -5 64 0 0zm5 -94l15 0c20,0 35,-8 35,-23 0,-15 -12,-23 -35,-23 -8,0 -15,0 -20,0l5 46 0 0z"/>
  <path class="fil1" d="M14542 13871l1139 -3151 -2544 -2906 -6736 649 -2274 2920 2032 3220 -421 1575 -3070 -4867 3106 -3988 7858 -757 3413 3898 -1528 4228 -1 -2 0 0 -2 -2 0 0 -1 -2 0 0 -2 -2 0 0 -1 -2 0 0 -2 -2 0 0 -3 -4 0 0 -1 -2 0 0 -3 -4 0 0 -2 -2 0 0 -2 -2 0 0 -3 -4 0 0 -1 -2 0 0 -4 -4 0 0 -1 -2 0 0 -4 -4 0 0 -3 -3 0 0 -2 -2 0 0 -1 -2 0 0 -4 -4 -1 -2 0 0 -4 -4 -2 -1 -3 -4 0 0 -2 -2 0 0 -2 -2 -1 -2 -2 -2 0 0 -2 -1 -2 -2 -2 -2 -2 -2 0 0 -1 -2 -2 -1 -2 -2 -2 -2 -2 -2 0 0 -2 -1 -2 -2 -2 -2 -2 -2 -1 -2 -2 -1 0 0 -2 -2 -2 -2 -2 -1 -2 -2 0 0 -2 -2 -2 -2 -2 -1 -2 -2 -2 -2 -2 -1 -2 -2 -3 -2 -862 -702zm975 821l0 0 0 0z"/>
  <path class="fil2" d="M10278 21627l0 240c0,106 -29,180 -87,223 -59,43 -141,65 -247,67l-6 5c125,8 218,46 281,115 62,68 93,155 93,259l0 298c0,147 -41,255 -121,323 -81,69 -200,103 -356,103l-708 0 0 -1989 739 0c139,0 243,28 311,86 68,58 101,148 101,270zm-596 418c39,0 68,-12 88,-36 19,-24 29,-51 29,-81l0 -223c0,-26 -9,-52 -28,-78 -18,-26 -50,-39 -95,-39l-52 0 0 457 58 0zm117 761l0 -340c0,-39 -11,-69 -32,-89 -21,-21 -52,-31 -91,-31l-52 0 0 580c7,2 17,3 30,3 45,0 80,-10 106,-28 26,-19 39,-50 39,-95z"/>
  <polygon class="fil2" points="10983,22059 10989,22059 11114,21271 11594,21271 11223,22533 11223,23260 10727,23260 10727,22536 10356,21271 10836,21271 "/>
  <polygon class="fil2" points="12720,21672 12416,21672 12416,23260 11903,23260 11903,21672 11599,21672 11599,21271 12720,21271 "/>
  <path class="fil2" d="M13397 21229c199,0 350,47 454,142 104,95 156,248 156,460l0 869c0,210 -51,363 -154,459 -104,95 -255,143 -456,143 -201,0 -353,-47 -456,-141 -103,-93 -154,-247 -154,-461l0 -869c0,-210 51,-363 154,-459 103,-95 255,-143 456,-143zm-98 457l0 1159c0,39 9,69 25,91 17,21 41,32 73,32 31,0 56,-11 72,-32 17,-22 25,-52 25,-91l0 -1159c0,-39 -8,-69 -25,-91 -16,-21 -41,-32 -72,-32 -65,0 -98,41 -98,123z"/>
  <polygon class="fil2" points="14946,22433 14952,22433 15072,21271 15763,21271 15763,23260 15328,23260 15328,21783 15323,21783 15108,23260 14785,23260 14570,21783 14565,21783 14565,23260 14130,23260 14130,21271 14813,21271 "/>
  <g id="_460626792">
   <path class="fil3 str0" d="M15923 20128l-298 -5124c-6,-94 -30,-180 -72,-257l-4393 1893 -2243 4053c72,32 149,47 234,48l6170 22c172,0 320,-63 438,-188 118,-124 173,-276 164,-447z"/>
   <path class="fil4 str1" d="M11160 16640l340 -5129c-93,-11 -190,0 -285,35l-4414 1636c-189,70 -320,214 -372,408l-270 1013 -421 1575 -397 1487c-65,245 24,493 230,642l3233 2321c36,26 74,48 113,65l2243 -4053z"/>
   <path class="fil5 str2" d="M15517 14692c-31,-43 -69,-83 -113,-119l-862 -702 -2739 -2228c-91,-74 -195,-118 -303,-132l-340 5129 4393 -1893c-11,-19 -23,-37 -36,-55z"/>
   <line class="fil6" x1="11160" y1="16640" x2="11500" y2= "11511" />
   <polyline class="fil6" points="15553,14747 11160,16640 8917,20693 "/>
  </g>
 </g>
</svg>
