<?xml version="1.0" encoding="UTF-8"?>
<!DOCTYPE svg PUBLIC "-//W3C//DTD SVG 1.1//EN" "http://www.w3.org/Graphics/SVG/1.1/DTD/svg11.dtd">
<!-- Creator: CorelDRAW SE -->
<svg xmlns="http://www.w3.org/2000/svg" xml:space="preserve" width="300mm" height="255mm" version="1.1" style="shape-rendering:geometricPrecision; text-rendering:geometricPrecision; image-rendering:optimizeQuality; fill-rule:evenodd; clip-rule:evenodd"
viewBox="0 0 30000 25500"
 xmlns:xlink="http://www.w3.org/1999/xlink">
 <defs>
  <style type="text/css">
   <![CDATA[
    .str0 {stroke:#FFED00;stroke-width:150}
    .fil3 {fill:none}
    .fil2 {fill:#FEFEFE}
    .fil0 {fill:#FEFEFE;fill-rule:nonzero}
    .fil1 {fill:#FEFEFE;fill-rule:nonzero}
   ]]>
  </style>
 </defs>
 <g id="Warstwa_x0020_1">
  <metadata id="CorelCorpID_0Corel-Layer"/>
  <g id="cfbytom">
   <path class="fil0" d="M15278 21869l0 240c0,106 -29,180 -87,223 -59,43 -141,65 -247,67l-6 6c125,7 218,45 281,114 62,69 93,155 93,259l0 298c0,147 -41,255 -121,323 -81,69 -200,104 -356,104l-708 0 0 -1990 739 0c139,0 243,29 311,86 68,58 101,148 101,270zm-596 418c39,0 68,-12 88,-36 19,-24 29,-51 29,-81l0 -222c0,-27 -9,-53 -28,-79 -18,-26 -50,-39 -95,-39l-52 0 0 457 58 0zm117 761l0 -340c0,-39 -11,-68 -32,-89 -21,-20 -52,-31 -91,-31l-52 0 0 580c7,2 17,3 30,3 45,0 80,-9 106,-28 26,-19 39,-50 39,-95z"/>
   <polygon class="fil0" points="15983,22301 15989,22301 16114,21513 16594,21513 16223,22775 16223,23503 15727,23503 15727,22778 15356,21513 15836,21513 "/>
   <polygon class="fil0" points="17720,21914 17416,21914 17416,23503 16903,23503 16903,21914 16599,21914 16599,21513 17720,21513 "/>
   <path class="fil0" d="M18397 21471c199,0 350,47 454,142 104,95 156,248 156,460l0 869c0,210 -51,363 -154,459 -104,96 -255,143 -456,143 -201,0 -353,-47 -456,-140 -103,-94 -154,-248 -154,-462l0 -869c0,-210 51,-363 154,-459 103,-95 255,-143 456,-143zm-98 457l0 1159c0,39 9,70 25,91 17,21 41,32 73,32 31,0 56,-11 72,-32 17,-21 25,-52 25,-91l0 -1159c0,-39 -8,-69 -25,-91 -16,-21 -41,-32 -72,-32 -65,0 -98,41 -98,123z"/>
   <polygon class="fil0" points="19946,22675 19952,22675 20072,21513 20763,21513 20763,23503 20328,23503 20328,22026 20323,22026 20108,23503 19785,23503 19570,22026 19565,22026 19565,23503 19130,23503 19130,21513 19813,21513 "/>
   <path class="fil1" d="M19560 14064l1121 -3102 -2544 -2905 -6736 649 -2274 2919 1996 3163 -421 1575 -3034 -4810 3106 -3988 7858 -757 3413 3898 -1508 4172c-11,-14 -23,-27 -35,-41 -20,-21 -42,-41 -66,-60l-876 -713z"/>
   <g>
    <path class="fil2" d="M18876 15766l-2681 1155c-708,1282 -1418,2562 -2127,3843l-35 63 -35 63 -10 19c17,5 34,10 51,13 36,7 73,11 112,11l6170 22c79,0 153,-14 220,-43 67,-28 128,-72 182,-129 54,-57 94,-120 119,-189 25,-68 35,-142 31,-221l-298 -5124c-2,-43 -9,-85 -20,-124 -7,-25 -16,-48 -26,-71l-1653 712z"/>
    <path class="fil2" d="M16110 16868l337 -5069c-28,0 -56,1 -83,4 -44,5 -88,16 -131,32l-4415 1636c-87,32 -160,81 -217,144 -58,63 -99,141 -123,230l-1088 4075c-30,112 -25,226 11,328 37,102 105,192 199,261l3233 2321c17,12 34,23 51,33l12 7 547 -988 1667 -3014z"/>
    <path class="fil2" d="M20477 14963c-14,-20 -30,-38 -48,-57 -17,-18 -36,-35 -56,-52l-3602 -2930c-42,-34 -86,-61 -132,-81 -30,-13 -61,-23 -93,-31l-77 1156 -254 3836 4264 -1837 -2 -4z"/>
   </g>
   <path class="fil2" d="M8424 5935c-627,0 -1044,-414 -1044,-802l0 -2390c0,-389 422,-803 1044,-803 615,0 1016,414 1016,803l0 739 -838 0 0 -623c0,-101 -81,-165 -178,-165 -109,0 -185,64 -185,165l0 2159c0,102 81,165 185,165 97,0 178,-63 178,-165l0 -622 841 0 0 739c2,386 -399,800 -1019,800zm2078 -1778l0 1705 -820 0 0 -2893 767 0 53 304c119,-180 289,-304 663,-304l0 688c-445,-5 -663,239 -663,500zm1818 1753c-546,0 -988,-282 -988,-706l0 -1527c0,-434 447,-711 988,-711 541,0 988,282 988,711l0 1524c0,432 -447,709 -988,709zm173 -2197c0,-97 -81,-140 -178,-140 -96,0 -172,43 -172,140l0 1450c0,97 71,140 172,140 97,0 178,-43 178,-140l0 -1450zm1981 2197c-599,0 -952,-282 -952,-706l0 -295 744 0 0 247c0,96 71,165 193,165 119,0 188,-49 188,-214 0,-256 -188,-332 -622,-559 -402,-200 -496,-485 -496,-792 0,-594 430,-785 938,-785 551,0 929,282 929,711l0 265 -739 0 0 -221c0,-97 -53,-153 -173,-153 -129,0 -188,56 -188,198 0,214 120,234 435,399 592,295 683,663 683,960 0,406 -269,780 -940,780zm2078 0c-600,0 -953,-282 -953,-706l0 -295 745 0 0 247c0,96 71,165 193,165 122,0 188,-49 188,-214 0,-256 -188,-332 -623,-559 -401,-200 -495,-485 -495,-792 0,-594 429,-785 937,-785 551,0 930,282 930,711l0 265 -739 0 0 -221c0,-97 -54,-153 -173,-153 -130,0 -188,56 -188,198 0,214 119,234 434,399 592,295 684,663 684,960 0,406 -275,780 -940,780zm2017 -3218l0 876 619 0 0 711 -619 0 0 1580 -849 0 0 -3850 1676 0 0 688 -827 -5 0 0zm1015 0l0 -683 816 0 0 688 -816 -5 0 0zm0 3170l0 -2840 816 0 0 2842 -816 0 0 -2zm2185 -2266l0 1476c0,81 81,139 172,139l214 0 0 651 -389 0c-518,0 -807,-359 -807,-719l0 -1547 -356 0 0 -574 353 0 0 -490 813 0 0 495 421 0 0 579 -421 -10 0 0zm685 -571c92,0 166,71 166,160 0,88 -72,160 -166,160 -91,0 -165,-72 -165,-160 0,-89 74,-160 165,-160l0 0zm0 33c-68,0 -124,55 -124,129 0,71 53,130 124,130 69,0 120,-56 120,-130 2,-74 -51,-129 -120,-129l0 0zm-27 213l-36 0 0 -160c15,0 36,-5 61,-5 33,0 43,5 56,13 7,7 15,20 15,35 0,20 -15,33 -33,36l0 0c15,5 23,15 28,40 5,23 8,33 13,41l-41 0c-5,-5 -8,-20 -13,-41 -5,-15 -12,-23 -33,-23l-12 0 -5 64 0 0zm5 -94l15 0c20,0 35,-8 35,-23 0,-15 -12,-23 -35,-23 -8,0 -15,0 -20,0l5 46 0 0z"/>
  </g>
  <path id="lettersapp" class="fil3 str0" d="M28994 23350c-317,69 -632,94 -951,73 -435,-29 84,-235 280,-329 478,-230 578,-407 527,-614 -59,-235 -441,-413 -863,-480 -319,-51 -641,2 -810,42 -419,99 -157,1456 -145,1814 13,109 4,989 56,1174 87,312 -8,-1297 -18,-1410 -26,-424 -80,-860 -106,-1285l-2 -47c-10,-384 274,-113 -10,401 -249,452 -635,578 -1171,537 -138,-11 -275,-36 -412,-54l-48 -6c-159,-21 -77,84 73,70 984,-88 1314,-923 471,-1216 -299,-105 -521,-82 -707,-57 -702,91 -591,946 -543,1971 6,136 47,1382 86,1385 2,1 18,-30 10,-208 -38,-812 -172,-3148 -102,-3054 265,-46 -264,1102 -655,1241 -832,415 -978,-1725 -819,-1676 317,97 248,1803 -829,1931 -204,24 -273,4 -444,-108 -1087,-717 -70,-2438 1041,-1788 73,42 118,80 181,135"/>
 </g>
</svg>
