<?xml version="1.0" encoding="UTF-8"?>
<!DOCTYPE svg PUBLIC "-//W3C//DTD SVG 1.1//EN" "http://www.w3.org/Graphics/SVG/1.1/DTD/svg11.dtd">
<!-- Creator: CorelDRAW SE -->
<svg xmlns="http://www.w3.org/2000/svg" xml:space="preserve" width="59mm" height="59mm" version="1.1" style="shape-rendering:geometricPrecision; text-rendering:geometricPrecision; image-rendering:optimizeQuality; fill-rule:evenodd; clip-rule:evenodd"
viewBox="0 0 5900 5900"
 xmlns:xlink="http://www.w3.org/1999/xlink"
 xmlns:svg="http://www.w3.org/2000/svg">
 <defs>
  <style type="text/css">
   <![CDATA[
    .fil0 {fill:#FEFEFE;fill-rule:nonzero}
   ]]>
  </style>
 </defs>
 <g id="Warstwa_x0020_1">
  <metadata id="CorelCorpID_0Corel-Layer"/>
  <path class="fil0" d="M5877 2950c0,808 -327,1540 -857,2070 -530,530 -1262,857 -2070,857 -808,0 -1540,-327 -2070,-857 -530,-530 -857,-1262 -857,-2070 0,-808 327,-1540 857,-2070 530,-530 1262,-857 2070,-857 808,0 1540,327 2070,857 530,530 857,1262 857,2070zm-892 2035c520,-521 842,-1241 842,-2035 0,-795 -322,-1514 -842,-2035 -521,-520 -1240,-842 -2035,-842 -795,0 -1514,322 -2035,842 -520,521 -842,1240 -842,2035 0,794 322,1514 842,2035 521,520 1240,842 2035,842 795,0 1514,-322 2035,-842z"/>
  <g id="g3282">
   <g id="g3284">
   </g>
   <g id="g3288">
   </g>
  </g>
  <g id="g3292">
   <g id="g3294">
   </g>
   <g id="g3298">
   </g>
  </g>
  <g>
   <path id="path3224" class="fil0" d="M5808 2498c0,40 0,0 0,0l-82 94c-50,-60 -106,-110 -163,-162l-125 19 -115 -131 0 162 98 74 65 75 88 -100c22,42 43,83 65,125l0 124 -98 111 -180 125 -136 136 -87 -99 43 -112 -87 -99 -147 -317 -125 -142 -33 37 49 180 93 105c53,154 105,301 174,447 108,0 209,-11 316,-25l0 87 -131 323 -119 136 -99 212c0,116 0,231 0,347l33 137 -54 62 -120 74 -125 106 103 118 -142 124 28 81 -213 242 -141 0 -120 74 -77 0 0 -99 -32 -199c-42,-124 -86,-248 -131,-372 0,-91 5,-182 11,-273l55 -124 -77 -149 6 -205 -104 -118 52 -171 -84 -96 -148 0 -49 -56 -147 93 -60 -68 -136 118c-92,-106 -185,-211 -278,-317l-109 -261 98 -148 -54 -62 120 -286c98,-123 201,-241 305,-360l185 -50 207 -25 142 38 201 204 71 -80 98 -13 185 62 142 0 98 -86 44 -62 -99 -63 -163 -12c-45,-63 -88,-130 -141,-186l-55 25 -22 161 -98 -112 -22 -124 -108 -87 -44 0 109 124 -44 112 -87 25 55 -112 -99 -49 -87 -100 -163 38 -22 49 -98 62 -54 137 -137 68 -60 -68 -65 0 0 -224 142 -74 109 0 -22 -87 -87 -87 147 -31 81 -93 66 -112 120 0 -33 -87 76 -49 0 99 164 37 163 -136 11 -63 142 -99c-52,7 -103,11 -153,25l0 -112 54 -124 -54 0 -120 112 -32 62 32 87 -54 149 -87 -50 -76 -87 -120 87 -44 -198 207 -137 0 -75 131 -86 207 -50 141 50 262 49 -65 75 -142 0 142 149 108 -124 34 -55c0,0 417,377 656,789 239,413 351,899 351,997zm-2698 -1731l-11 74 76 50 131 -87 -66 -75 -87 50 -43 -12 0 0zm120 -509l-284 -112 -326 37 -404 112 -76 74 251 174 0 99 -98 100 130 261 87 -50 110 -174c168,-52 319,-112 479,-186l131 -335 0 0zm294 1042l-44 -111 -76 25 22 136 98 -50 0 0zm43 -25l-22 150 120 -25 87 -87 -76 -75c-25,-68 -55,-132 -87,-198l-65 0 0 74 43 50 0 111 0 0zm-1612 2359l-87 -174 -164 -37 -87 -236 -218 25 -185 -136 -196 174 0 27c-60,-17 -133,-20 -185,-52l-44 -124 0 -137 -131 12c11,-87 22,-173 33,-260l-76 0 -77 99 -76 37 -109 -62 -11 -136 22 -149 164 -124 130 0 22 -75 163 37 120 149 22 -248 207 -174 76 -186 153 -62 87 -124 196 -38 98 -148c-98,0 -196,0 -294,0l185 -87 131 0 185 -63 22 -74 -65 -62 -77 -25 22 -74 -54 -112 -131 49 22 -99 -153 -87 -120 211 11 75 -120 50 -76 161 -33 -149 -207 -87 -32 -112 272 -161 120 -112 11 -136 -65 -38 -88 -12 -54 136c0,0 -91,18 -115,24 -299,278 -903,877 -1044,2008 6,26 102,178 102,178l229 137 229 62 98 124 152 112 87 -13 66 30 0 20 -87 236 -66 99 22 50 -54 186 196 360 196 174 87 124 -11 261 65 149 -65 285c0,0 -5,-1 3,27 9,29 349,219 371,203 22,-17 40,-31 40,-31l-22 -62 87 -87 33 -87 142 -50 109 -273 -33 -74 76 -112 164 -37 87 -199 -22 -248 131 -186 22 -187c-179,-89 -357,-181 -534,-273l0 0zm-240 -2818l109 75 87 0 0 -87 -109 -50 -87 62 0 0zm-283 -99l-55 136 109 0 55 -124c47,-33 94,-67 141,-99l109 37c73,50 146,100 218,149l109 -99 -120 -50 -54 -112 -207 -24 -11 -62 -98 24 -44 87 -54 -111 -22 49 11 124 -87 75 0 0zm392 -311l55 -49 108 -25c75,-37 150,-61 229,-87l-43 -74 -141 20 -66 67 -110 16 -97 46 -48 23 -29 39 142 24 0 0zm185 1180l66 -99 -98 -75 32 174z"/>
  </g>
 </g>
</svg>
