<?xml version="1.0" encoding="UTF-8"?>
<!DOCTYPE svg PUBLIC "-//W3C//DTD SVG 1.1//EN" "http://www.w3.org/Graphics/SVG/1.1/DTD/svg11.dtd">
<!-- Creator: CorelDRAW SE -->
<svg xmlns="http://www.w3.org/2000/svg" xml:space="preserve" width="452mm" height="310mm" version="1.1" style="shape-rendering:geometricPrecision; text-rendering:geometricPrecision; image-rendering:optimizeQuality; fill-rule:evenodd; clip-rule:evenodd"
viewBox="0 0 45200 31000"
 xmlns:xlink="http://www.w3.org/1999/xlink">
 <defs>
  <style type="text/css">
   <![CDATA[
    .fil0 {fill:#FEFEFE}
   ]]>
  </style>
 </defs>
 <g id="Warstwa_x0020_1">
  <metadata id="CorelCorpID_0Corel-Layer"/>
  <g id="_304194728">
   <path class="fil0" d="M13237 66c-134,46 -158,67 -240,212 -63,105 -49,476 18,606 67,127 219,223 360,223 81,0 88,-11 88,-177 0,-144 -11,-176 -63,-176 -89,0 -149,-71 -149,-176 0,-131 64,-177 237,-177l151 0 0 166c0,208 103,444 226,522 208,138 589,95 727,-78 99,-127 99,-423 -4,-553l-70 -92 70 0c64,0 74,-21 74,-177l0 -176 -642 0c-458,4 -684,18 -783,53l0 0zm1045 377c151,120 67,353 -124,353 -145,0 -236,-99 -236,-261l0 -134 151 0c85,0 177,21 209,42l0 0z"/>
   <path class="fil0" d="M40190 757c-304,75 -431,254 -403,586 14,173 36,215 145,314 162,152 363,201 716,183 212,-10 314,-35 409,-91 314,-194 321,-734 11,-925 -184,-112 -229,-95 -229,85 0,127 17,166 88,212 60,39 88,92 88,159 0,127 -64,179 -243,204l-142 21 -10 -384 -11 -385 -141 -7c-77,-3 -201,11 -279,28l1 0zm190 526c0,198 -7,212 -81,212 -42,0 -117,-25 -159,-57 -166,-113 -42,-363 180,-367 49,0 60,32 60,212l0 0z"/>
   <path class="fil0" d="M12994 1445c-14,14 -25,103 -25,198l0 169 593 0c656,0 758,25 776,187 21,191 -14,201 -720,201l-649 0 0 194 0 194 685 0c705,0 814,-17 938,-141 99,-99 99,-413 0,-540 -71,-88 -71,-88 3,-105 60,-18 71,-43 60,-191l-10 -169 -815 -11c-448,-3 -822,4 -836,14l0 0z"/>
   <path class="fil0" d="M19464 1925c-134,180 -134,205 -11,205 64,0 148,-53 265,-163 92,-88 166,-165 166,-176 0,-7 -71,-14 -156,-14 -141,0 -165,14 -264,148l0 0z"/>
   <polygon class="fil0" points="17414,1953 17414,2094 17555,2094 17696,2094 17696,1953 17696,1812 17555,1812 17414,1812 "/>
   <path class="fil0" d="M21259 2059l0 247 -95 -39c-254,-95 -487,81 -540,413 -52,314 4,607 142,727 119,113 292,130 412,46 57,-43 78,-43 92,-7 11,28 67,38 166,31 144,-14 148,-17 127,-120 -11,-60 -21,-430 -21,-825l0 -720 -141 0 -142 0 0 247 0 0zm-35 491c53,98 46,575 -10,652 -64,88 -205,60 -265,-49 -56,-113 -42,-533 25,-614 63,-78 204,-71 250,11z"/>
   <path class="fil0" d="M22918 2641l0 829 141 0c77,0 141,-17 141,-39 0,-17 35,-10 77,18 134,95 304,71 434,-60 96,-95 120,-155 141,-321 50,-395 -31,-709 -211,-790 -120,-57 -191,-53 -314,10 -53,29 -106,53 -113,53 -7,0 -14,-120 -14,-264l0 -265 -141 0 -141 0 0 829 0 0zm603 -102c60,74 63,533 0,642 -60,109 -215,95 -279,-28 -56,-113 -42,-533 25,-614 60,-74 194,-74 254,0l0 0z"/>
   <path class="fil0" d="M15262 2677l0 793 314 0c364,0 494,-63 618,-300 105,-204 105,-783 0,-987 -106,-208 -307,-300 -657,-300l-275 0 0 794 0 0zm575 -498c85,64 131,240 131,498 0,398 -103,582 -325,582l-99 0 0 -565 0 -564 117 0c60,0 141,24 176,49l0 0z"/>
   <path class="fil0" d="M39780 2027c0,103 92,265 166,297 53,24 46,32 -42,49 -99,21 -106,32 -106,180l0 159 734 10 730 7 0 -176 0 -176 -406 0c-571,0 -652,-39 -695,-335 -10,-60 -42,-71 -197,-78 -163,-4 -184,3 -184,63l0 0z"/>
   <path class="fil0" d="M18243 2260c-197,50 -335,293 -335,600 0,423 120,610 416,639 254,21 434,-82 484,-286 24,-92 21,-95 -117,-95 -109,0 -148,14 -166,67 -42,141 -243,116 -296,-39 -70,-201 -67,-205 275,-205 233,0 318,-14 332,-49 28,-71 -14,-342 -67,-448 -78,-156 -311,-237 -526,-184zm258 265c24,25 42,77 42,123 0,74 -14,81 -180,81 -169,0 -176,-3 -152,-81 11,-42 39,-98 57,-123 46,-53 176,-57 233,0l0 0z"/>
   <path class="fil0" d="M19496 2260c-29,11 -82,43 -113,74 -57,50 -64,46 -64,-3 0,-46 -32,-60 -141,-60l-141 0 7 607 11 603 141 0 141 0 10 -459c11,-504 36,-568 201,-525 85,21 85,24 96,504l10 480 141 0 142 0 10 -462c7,-346 -3,-494 -42,-589 -67,-159 -240,-233 -409,-170l0 0z"/>
   <path class="fil0" d="M22071 2274c-50,22 -124,67 -166,110 -159,148 -194,656 -67,906 159,307 681,276 818,-49 78,-187 64,-589 -24,-762 -106,-208 -339,-293 -561,-205l0 0zm307 314c24,50 46,177 46,283 0,236 -60,366 -177,381 -130,21 -176,-78 -176,-385 0,-205 14,-289 56,-332 81,-77 198,-53 251,53l0 0z"/>
   <path class="fil0" d="M24576 2260c-29,11 -89,53 -131,92l-81 71 0 -75c0,-67 -21,-77 -141,-77l-141 0 0 600 0 599 141 0 141 0 0 -363c0,-406 35,-497 212,-536 98,-21 105,-36 105,-180 0,-155 -7,-166 -105,-131z"/>
   <path class="fil0" d="M16433 2384c11,116 15,116 226,134l215 17 -239 371c-149,226 -244,409 -244,466l0 98 402 0c385,0 402,-3 424,-81 10,-42 21,-88 21,-102 0,-14 -113,-28 -247,-35l-251 -11 247 -388c152,-236 251,-427 251,-487l0 -95 -409 0 -406 0 10 113 0 0z"/>
   <polygon class="fil0" points="17414,2881 17414,3491 17555,3477 17696,3463 17696,2867 17696,2271 17555,2271 17414,2271 17414,2881 "/>
   <path class="fil0" d="M24967 2825c233,744 229,730 141,818 -42,42 -106,74 -144,74 -57,0 -71,25 -71,106 0,102 7,106 159,106 113,0 180,-21 229,-71 92,-91 99,-113 321,-871 99,-346 191,-649 198,-674 14,-28 -29,-42 -138,-42l-155 0 -81 360c-43,201 -88,388 -99,416 -11,28 -56,-113 -102,-318 -46,-204 -92,-391 -103,-416 -7,-25 -77,-42 -172,-42l-156 0 173 554 0 0z"/>
   <path class="fil0" d="M12359 2931c-14,10 -25,98 -25,194l0 169 194 0 194 0 0 -194 0 -194 -169 0c-95,0 -184,10 -194,25l0 0z"/>
   <polygon class="fil0" points="12969,3118 12969,3294 13816,3294 14663,3294 14663,3118 14663,2941 13816,2941 12969,2941 "/>
   <path class="fil0" d="M40539 3047c-290,11 -558,32 -589,46 -152,77 -226,518 -117,730 64,124 184,212 289,212 71,0 82,-18 82,-155 0,-124 -14,-163 -67,-180 -82,-25 -124,-131 -92,-226 21,-67 116,-110 257,-110 71,0 78,18 78,166 4,223 106,452 243,519 230,120 565,25 642,-184 50,-123 18,-345 -56,-430 -49,-56 -49,-63 0,-81 35,-18 53,-71 53,-184 0,-151 -4,-158 -95,-151 -57,3 -335,17 -628,28l0 0zm423 388c64,53 71,215 11,275 -60,60 -205,53 -283,-17 -42,-36 -63,-106 -63,-198l0 -141 141 21c81,11 166,39 194,60z"/>
   <path class="fil0" d="M14320 3562c-7,25 -10,166 -3,310 7,209 0,265 -35,251 -25,-7 -258,-145 -519,-300 -406,-240 -501,-282 -635,-282l-159 0 0 511 0 512 159 0 159 0 0 -300c0,-166 7,-300 14,-300 10,0 254,141 543,318 438,264 554,317 674,317l148 0 -11 -522 -10 -519 -152 -21c-109,-14 -159,-7 -173,25l0 0z"/>
   <path class="fil0" d="M18698 4003c-158,46 -352,275 -384,452 -60,366 81,589 515,822 346,183 420,268 420,472 0,191 -92,297 -258,297 -152,0 -264,-82 -300,-223 -28,-109 -35,-113 -243,-123l-212 -11 25 141c63,357 293,533 688,533 416,0 628,-148 723,-490 49,-191 -4,-466 -124,-621 -45,-64 -197,-173 -342,-247 -381,-198 -444,-251 -472,-388 -64,-346 384,-455 472,-113 29,109 36,113 230,123 201,11 201,11 201,-88 0,-56 -36,-173 -78,-257 -138,-268 -497,-385 -861,-279z"/>
   <path class="fil0" d="M19919 4176l0 176 423 0c233,0 424,7 424,18 0,7 -205,391 -459,854 -360,656 -459,864 -459,970l0 134 688 0 688 0 18 -88c10,-50 25,-127 35,-177l18 -88 -459 0c-250,0 -458,-11 -458,-25 0,-14 190,-377 423,-808 384,-709 423,-800 423,-963l0 -180 -652 0 -653 0 0 177 0 0z"/>
   <polygon class="fil0" points="21506,5164 21506,6328 21718,6328 21930,6328 21930,5164 21930,3999 21718,3999 21506,3999 "/>
   <path class="fil0" d="M22459 5100c-141,607 -265,1133 -275,1164 -14,57 10,64 197,64l215 0 39 -205c81,-398 43,-360 353,-360l279 0 39 201c74,399 45,364 282,364 134,0 211,-14 211,-39 0,-39 -476,-2092 -515,-2230 -17,-49 -63,-60 -292,-60l-276 0 -257 1101 0 0zm624 -243c110,554 117,518 -106,518l-186 0 88 -472c49,-262 98,-466 109,-459 7,11 49,194 95,413z"/>
   <path class="fil0" d="M15227 4423c0,194 14,353 28,353 32,0 1584,310 1644,328 18,7 -173,46 -423,88 -251,42 -635,113 -850,152l-399 74 0 349 0 349 1235 0 1234 0 0 -215 0 -215 -1037 10c-571,7 -1037,11 -1033,7 3,-3 437,-77 959,-165 526,-92 988,-173 1034,-180 70,-18 77,-39 77,-226l0 -208 -165 -39c-96,-18 -540,-102 -988,-187 -452,-85 -822,-159 -822,-169 0,-11 444,-15 988,-7l987 10 0 -233 0 -229 -1234 0 -1235 0 0 353 0 0z"/>
   <path class="fil0" d="M40063 4352c-258,64 -378,399 -212,611 70,88 70,88 0,105 -57,14 -71,50 -71,180l0 163 741 0 741 0 0 -177 0 -176 -522 0c-586,0 -692,-32 -670,-205 17,-152 130,-183 691,-183l501 0 0 -177 0 -176 -536 3c-297,4 -596,18 -664,32l1 0z"/>
   <path class="fil0" d="M13287 5435c-244,78 -328,215 -332,522 0,149 21,251 67,328 71,117 240,219 367,219 63,0 74,-21 74,-169 0,-155 -7,-173 -106,-208 -84,-32 -106,-60 -106,-141 0,-142 60,-187 237,-187l151 0 0 165c0,209 103,445 226,523 208,137 589,95 727,-78 99,-124 99,-423 0,-550 -71,-89 -71,-89 0,-106 56,-14 71,-50 71,-180l0 -162 -660 3c-367,0 -688,11 -716,21l0 0zm970 385c32,14 74,63 92,113 49,130 -43,254 -187,254 -156,0 -240,-89 -240,-254 0,-134 0,-134 137,-134 78,0 166,10 198,21z"/>
   <path class="fil0" d="M12369 5650c0,92 22,145 71,177 39,25 71,81 71,130 0,50 -32,106 -71,131 -49,32 -71,85 -71,180 0,134 4,137 99,113 159,-39 297,-201 314,-374 18,-187 -39,-304 -197,-409 -173,-117 -216,-106 -216,52l0 0z"/>
   <path class="fil0" d="M40010 5760c-166,70 -212,173 -212,465 0,262 7,283 106,381 60,57 148,113 204,124 96,21 96,21 96,-145 0,-141 -15,-176 -78,-204 -92,-39 -123,-173 -64,-251 25,-28 106,-49 180,-49l138 0 0 159c0,352 173,546 480,546 159,0 208,-17 303,-102 106,-92 117,-123 117,-296 0,-141 -18,-215 -67,-268 -60,-67 -60,-74 -11,-74 46,0 60,-36 60,-159l0 -159 -589 4c-328,0 -625,14 -663,28l0 0zm811 321c187,0 265,236 109,335 -60,39 -105,46 -169,21 -102,-39 -134,-102 -134,-275 0,-99 11,-120 56,-102 32,10 92,21 138,21l0 0z"/>
   <polygon class="fil0" points="39251,5975 39251,6116 39410,6116 39569,6116 39569,5975 39569,5834 39410,5834 39251,5834 "/>
   <polygon class="fil0" points="39251,6469 39251,6610 39410,6610 39569,6610 39569,6469 39569,6328 39410,6328 39251,6328 "/>
   <path class="fil0" d="M16426 6663c-649,162 -1185,296 -1192,300 -4,0 -4,137 0,303l11 307 1199 293c660,162 1210,293 1228,296 14,0 24,-102 24,-229 0,-258 39,-226 -388,-311l-229 -45 -11 -290c-14,-331 -31,-317 392,-395l236 -42 0 -244c0,-172 -14,-243 -42,-239 -25,0 -579,134 -1228,296l0 0zm283 621c0,204 -4,215 -78,197 -46,-10 -254,-56 -469,-95 -212,-42 -413,-88 -441,-95 -53,-21 755,-212 910,-219 71,-3 78,11 78,212l0 0z"/>
   <path class="fil0" d="M30749 6818c-215,78 -335,201 -370,381 -32,169 39,381 159,480 172,148 335,183 811,183 377,0 466,-10 607,-77 208,-95 310,-251 310,-469 0,-219 -102,-374 -310,-470 -244,-109 -928,-127 -1207,-28l0 0zm1147 237c155,74 218,194 180,345 -18,71 -71,117 -191,173 -141,67 -226,78 -571,74 -452,0 -621,-49 -724,-204 -116,-173 15,-378 279,-441 244,-60 864,-29 1027,53z"/>
   <path class="fil0" d="M13153 6875c-219,95 -276,419 -110,631l71 92 -71 0c-67,0 -74,21 -74,194l0 194 840 -7 836 -11 10 -187 11 -183 -593 0c-670,0 -762,-25 -779,-198 -18,-190 39,-208 730,-218l621 -8 10 -176 11 -176 -698 0c-526,3 -727,14 -815,53l0 0z"/>
   <path class="fil0" d="M32996 6843c-14,14 -24,388 -24,832l0 805 123 0 124 0 7 -593 10 -589 208 589 205 593 155 0 155 0 0 -829 0 -829 -123 0 -120 0 -11 546 -10 547 -194 -539 -194 -537 -141 -10c-81,-7 -156,0 -170,14l0 0z"/>
   <path class="fil0" d="M34467 6889c-194,116 -243,278 -243,779 0,364 11,466 67,579 99,197 243,275 476,257 163,-10 208,-31 290,-123 134,-148 183,-353 183,-734 4,-550 -162,-825 -497,-825 -99,0 -209,28 -276,67l0 0zm396 254c52,60 67,141 77,437 21,508 -60,723 -254,674 -130,-32 -180,-201 -180,-621 0,-300 14,-392 64,-469 74,-117 197,-124 293,-21z"/>
   <path class="fil0" d="M35501 6846c-14,11 -25,385 -25,829l0 805 142 0 141 0 0 -353 0 -353 98 0c53,0 134,25 177,57 67,45 77,84 77,271 0,339 22,378 180,378l134 0 -17 -311c-18,-226 -39,-331 -92,-405l-67 -99 88 -106c71,-85 92,-148 92,-282 0,-215 -124,-371 -335,-420 -166,-39 -561,-46 -593,-11zm575 293c85,85 92,254 14,332 -32,32 -113,56 -194,56l-137 0 0 -229 0 -229 123 0c78,0 152,28 194,70l0 0z"/>
   <path class="fil0" d="M36817 6956c-102,102 -141,176 -176,342 -53,250 -29,730 45,907 82,190 247,310 438,310 212,0 349,-88 444,-282 67,-138 78,-215 78,-565 0,-342 -14,-434 -78,-571 -88,-194 -218,-275 -455,-275 -141,0 -180,17 -296,134zm480 226c70,137 81,723 17,920 -56,170 -187,212 -296,99 -67,-67 -78,-123 -88,-430 -21,-540 32,-702 222,-702 60,0 102,31 145,113l0 0z"/>
   <path class="fil0" d="M38193 6846c-92,36 -215,166 -275,293 -39,92 -57,237 -57,547 0,483 53,646 240,762 124,78 353,88 480,21 109,-56 247,-257 247,-363 0,-74 -18,-85 -141,-85 -113,0 -141,14 -141,64 0,77 -106,183 -184,183 -28,0 -81,-32 -120,-74 -56,-60 -70,-141 -77,-448 -18,-448 28,-632 151,-663 127,-32 194,7 215,127 22,95 36,106 159,106 124,0 138,-11 138,-89 0,-137 -95,-292 -212,-352 -99,-53 -317,-67 -423,-29l0 0z"/>
   <polygon class="fil0" points="20695,7862 20695,8762 20854,8762 21013,8762 21013,8356 21013,7951 21242,7951 21471,7951 21471,8356 21471,8762 21648,8762 21824,8762 21817,7869 21806,6980 21640,6970 21471,6959 21471,7312 21471,7668 21242,7668 21013,7668 21013,7316 21013,6963 20854,6963 20695,6963 "/>
   <path class="fil0" d="M22141 7862l0 900 473 0c508,0 515,-4 515,-198 0,-84 -3,-84 -335,-84l-339 0 11 -258 11 -254 292 -10 290 -11 0 -120 0 -120 -290 -10 -292 -11 -11 -222 -11 -219 321 0 318 0 0 -141 0 -141 -476 0 -477 0 0 899 0 0z"/>
   <path class="fil0" d="M23588 7672c0,420 -14,734 -35,776 -25,42 -75,67 -142,67 -98,0 -105,11 -105,123 0,99 14,127 84,145 127,32 364,-49 441,-152 71,-84 74,-137 74,-878l0 -790 -158 0 -159 0 0 709z"/>
   <polygon class="fil0" points="39251,7210 39251,7386 39410,7386 39569,7386 39569,7210 39569,7033 39410,7033 39251,7033 "/>
   <path class="fil0" d="M39787 7199l11 169 847 18c846,18 846,18 857,95 10,71 32,82 169,82 148,0 155,-4 155,-103 0,-166 -74,-321 -180,-374 -77,-42 -275,-53 -984,-53l-885 0 10 166 0 0z"/>
   <path class="fil0" d="M18286 7160c-15,14 -25,53 -25,89 0,59 49,67 663,74l660 10 -653 268 -653 265 -10 130 -11 131 822 -7c819,-11 822,-11 833,-88l10 -81 -691 -8 -695 -10 691 -279 695 -282 -10 -106 -11 -109 -797 -11c-437,-3 -804,4 -818,14l0 0z"/>
   <polygon class="fil0" points="39357,8145 39357,8762 39498,8762 39636,8762 39646,8540 39657,8321 40461,8310 41262,8303 41262,8127 41262,7951 40451,7951 39639,7951 39639,7739 39639,7527 39498,7527 39357,7527 39357,8145 "/>
   <polygon class="fil0" points="30396,8303 30396,8409 31314,8409 32231,8409 32231,8303 32231,8198 31314,8198 30396,8198 "/>
   <path class="fil0" d="M12969 8462l0 194 610 0c494,0 625,11 688,57 99,70 106,243 11,296 -42,21 -328,35 -688,35l-621 0 0 194 0 194 628 0c709,-3 875,-28 988,-159 106,-127 113,-433 7,-529 -39,-35 -71,-77 -71,-95 0,-14 32,-28 71,-28 60,0 71,-25 71,-177l0 -176 -847 0 -847 0 0 194z"/>
   <path class="fil0" d="M19055 8511l-777 202 -10 127 -11 123 794 201c438,109 811,198 833,198 17,0 35,-39 35,-85 0,-78 -25,-92 -265,-148l-264 -64 0 -218 0 -223 134 -35c70,-18 187,-49 254,-63 99,-25 127,-53 134,-127 7,-64 -4,-96 -35,-92 -25,0 -396,92 -822,204l0 0zm158 325l0 180 -130 -25c-74,-10 -244,-49 -381,-84l-247 -60 353 -92c194,-49 363,-95 381,-95 14,-4 24,77 24,176l0 0z"/>
   <path class="fil0" d="M17308 8780l0 441 -1040 0 -1041 0 0 229 0 229 1235 0 1234 0 0 -649 0 -649 -109 -21c-289,-57 -279,-74 -279,420l0 0z"/>
   <path class="fil0" d="M32054 8956l0 335 -829 0 -829 0 0 106 0 106 918 0 917 0 0 -441 0 -441 -88 0c-89,0 -89,0 -89,335z"/>
   <path class="fil0" d="M33423 8970c-367,74 -554,430 -395,766 60,123 187,215 508,370 247,116 332,212 332,374 0,169 -124,272 -297,243 -134,-21 -247,-130 -247,-236 0,-60 -28,-67 -215,-67l-215 0 25 113c74,370 501,568 942,437 296,-84 416,-250 416,-564 0,-176 -14,-212 -120,-332 -74,-81 -243,-194 -427,-282 -335,-166 -413,-257 -342,-413 92,-197 363,-187 434,18 35,99 49,106 233,106l197 0 -24 -117c-60,-310 -410,-494 -805,-416l0 0z"/>
   <path class="fil0" d="M35007 8998c-17,29 -518,1930 -518,1969 0,10 91,17 201,10l197 -10 57 -244 56 -247 247 11c138,4 258,18 268,32 11,14 43,123 67,243l46 222 205 0c144,0 208,-14 204,-45 0,-22 -116,-473 -254,-995l-254 -953 -254 -10c-137,-7 -257,3 -268,17l0 0zm360 798c39,190 74,352 74,359 0,11 -77,18 -176,18 -117,0 -177,-14 -177,-46 0,-120 159,-762 180,-723 11,25 57,201 99,392z"/>
   <polygon class="fil0" points="36288,9979 36288,10984 36464,10984 36641,10984 36641,10268 36644,9556 36933,10261 37223,10967 37445,10977 37664,10988 37664,9979 37664,8974 37487,8974 37311,8974 37304,9644 37293,10318 37015,9644 36736,8974 36514,8974 36288,8974 36288,9979 "/>
   <path class="fil0" d="M38087 9979l0 1005 176 0 177 0 7 -712 10 -713 286 706 289 702 216 10 215 11 0 -1009 0 -1005 -180 0 -177 0 11 684c7,377 7,681 4,677 -7,-3 -134,-307 -290,-677l-282 -667 -229 -10 -233 -11 0 1009 0 0z"/>
   <path class="fil0" d="M39893 9817c11,794 14,850 85,945 106,141 254,215 476,244 289,31 565,-53 692,-223l98 -127 11 -843 10 -839 -194 0 -194 0 -10 790c-11,720 -18,797 -78,864 -74,81 -261,99 -374,39 -116,-64 -141,-233 -141,-974l0 -719 -197 0 -194 0 10 843 0 0z"/>
   <path class="fil0" d="M5078 9115c-279,169 -339,529 -127,776 49,60 197,162 328,229 268,134 388,261 388,409 0,99 -138,244 -233,244 -110,0 -229,-88 -268,-201 -39,-110 -53,-117 -212,-117 -162,0 -169,4 -169,103 0,127 127,317 275,402 155,91 508,91 695,7 307,-148 388,-582 159,-872 -36,-49 -184,-144 -325,-215 -317,-155 -388,-226 -374,-381 7,-84 39,-134 106,-169 88,-49 102,-49 194,18 53,42 102,109 109,151 11,64 36,74 201,74l187 0 -24 -116c-71,-296 -226,-413 -568,-413 -166,0 -261,21 -342,71l0 0z"/>
   <path class="fil0" d="M6185 9069c-7,18 103,455 240,981l254 952 215 11 216 10 52 -187c29,-102 142,-522 251,-928 109,-409 205,-769 215,-804 18,-53 -7,-60 -176,-60 -173,0 -198,11 -215,78 -11,46 -89,388 -170,762 -134,599 -201,786 -201,561 0,-81 -275,-1327 -303,-1373 -21,-35 -357,-38 -378,-3l0 0z"/>
   <polygon class="fil0" points="7854,10032 7854,11023 8394,11013 8930,11002 8951,10850 8969,10702 8588,10702 8207,10702 8207,10420 8207,10138 8542,10138 8877,10138 8877,9979 8877,9820 8542,9820 8207,9820 8207,9591 8207,9362 8559,9362 8912,9362 8912,9203 8912,9044 8383,9044 7854,9044 7854,10032 "/>
   <polygon class="fil0" points="9230,10032 9230,11023 9417,11013 9600,11002 9600,10032 9600,9062 9417,9051 9230,9041 9230,10032 "/>
   <path class="fil0" d="M10006 10032l0 988 176 0 177 0 0 -328c0,-311 3,-335 102,-448l106 -124 74 177c39,95 127,296 187,441l116 264 201 11c110,7 201,0 201,-14 0,-18 -120,-286 -268,-604l-268 -575 244 -345c134,-187 257,-364 271,-389 18,-31 -28,-42 -187,-42l-211 0 -254 406c-138,222 -265,416 -283,427 -17,10 -31,-173 -31,-406l0 -427 -177 0 -176 0 0 988z"/>
   <path class="fil0" d="M11540 9087c-10,24 -14,465 -10,980l10 935 177 0 176 0 0 -970 0 -970 -169 -11c-113,-7 -173,4 -184,36l0 0z"/>
   <path class="fil0" d="M20868 9408c-173,116 -240,321 -240,730 -4,183 14,395 32,465 88,314 342,445 603,318 106,-53 138,-56 138,-21 0,32 38,49 105,49l106 0 0 -458 0 -459 -247 0 -247 0 0 123c0,113 7,124 106,124 102,0 106,7 106,159 0,165 -88,300 -194,300 -95,0 -187,-135 -215,-304 -28,-204 3,-653 53,-751 95,-173 296,-166 342,14 18,74 42,88 159,88 155,0 169,-35 88,-226 -71,-166 -180,-233 -395,-233 -131,0 -215,22 -300,82l0 0z"/>
   <path class="fil0" d="M21863 9951c0,684 28,825 180,938 137,103 479,103 617,4 173,-127 187,-194 187,-907l0 -660 -141 0 -141 0 0 650c0,635 -4,652 -78,705 -106,78 -180,71 -261,-18 -60,-67 -67,-144 -78,-705l-10 -632 -141 0 -138 0 4 625 0 0z"/>
   <path class="fil0" d="M23013 9351c-14,11 -25,67 -25,124 0,95 7,98 176,98l177 0 0 688 0 688 141 0 141 0 7 -681 11 -677 169 -11c162,-10 166,-14 166,-134l0 -120 -469 0c-261,0 -484,11 -494,25l0 0z"/>
   <path class="fil0" d="M24152 10138l0 811 402 0c385,0 403,-3 424,-81 42,-162 35,-166 -261,-166l-283 0 0 -229 0 -229 247 0 247 0 0 -142 0 -141 -247 0 -247 0 0 -194 0 -194 265 0 265 0 0 -123 0 -124 -406 0 -406 0 0 812 0 0z"/>
   <path class="fil0" d="M25175 10138l0 815 134 -11 131 -10 -7 -558c-7,-303 -4,-554 3,-554 7,0 106,254 216,565l204 564 152 0 155 0 0 -811 0 -812 -123 0 -120 0 -11 530 -11 532 -194 -522 -194 -522 -169 -11 -166 -10 0 815 0 0z"/>
   <path class="fil0" d="M26763 9446c0,120 3,124 169,134l166 11 11 677 7 681 141 0 141 0 0 -688 0 -688 176 0 177 0 0 -123 0 -124 -494 0 -494 0 0 120 0 0z"/>
   <path class="fil0" d="M28019 9355c-14,21 -374,1541 -374,1580 0,7 63,14 137,14l138 0 49 -204 50 -202 180 -10c201,-11 172,-46 243,310 18,96 32,106 159,106 106,0 137,-14 137,-63 0,-32 -70,-364 -158,-731 -89,-370 -166,-705 -177,-751 -17,-67 -42,-78 -194,-78 -95,0 -180,11 -190,29l0 0zm243 585c67,357 74,339 -74,339 -120,0 -127,-7 -109,-99 14,-53 38,-194 63,-317 21,-124 46,-216 53,-209 11,8 39,138 67,286l0 0z"/>
   <path class="fil0" d="M29056 9457c-110,113 -138,176 -177,377 -56,300 -28,671 67,886 53,123 103,173 202,215 141,60 310,39 405,-46 50,-42 60,-42 78,7 14,32 67,53 130,53l106 0 0 -458 0 -459 -247 0 -247 0 0 123c0,113 7,124 106,124 92,0 106,10 106,102 0,289 -176,445 -328,289 -67,-67 -78,-123 -88,-433 -11,-209 3,-417 28,-494 63,-219 275,-254 353,-60 39,88 63,102 183,102 127,0 138,-7 117,-81 -85,-300 -184,-378 -480,-378 -162,0 -194,15 -314,131l0 0z"/>
   <path class="fil0" d="M18522 9577c-176,49 -272,183 -275,377 -4,208 77,346 247,417 250,105 476,-36 666,-406 46,-95 124,-184 177,-208 226,-103 441,-4 441,208 0,148 -50,229 -170,272 -112,38 -172,176 -95,208 78,28 311,-103 360,-201 25,-50 46,-173 46,-276 0,-169 -14,-204 -120,-310 -106,-106 -141,-120 -314,-120 -236,0 -370,95 -504,360 -120,236 -202,310 -346,310 -162,0 -240,-81 -226,-243 7,-102 32,-138 123,-180 89,-42 117,-74 117,-152 0,-53 -4,-95 -7,-91 -7,0 -60,17 -120,35l0 0z"/>
   <path class="fil0" d="M13763 9697c-78,28 -176,92 -215,144l-78 92 -74 -74c-162,-162 -420,-190 -660,-74 -222,109 -271,243 -275,741l-3 406 1104 10 1101 7 0 -360c0,-441 -43,-606 -191,-755 -180,-180 -444,-229 -709,-137l0 0zm402 374c138,49 180,123 180,328l0 162 -353 0 -353 0 0 -152c0,-299 223,-444 526,-338zm-907 91c46,39 64,106 64,230l0 169 -282 0 -282 0 0 -102c0,-127 59,-293 116,-328 78,-50 317,-28 384,31l0 0z"/>
   <path class="fil0" d="M31314 9958l-900 240 -11 141 -10 141 921 233 920 229 -10 -109c-11,-99 -28,-113 -152,-141 -78,-18 -201,-46 -275,-64l-134 -35 10 -254 11 -251 275 -67 272 -67 0 -120c0,-67 -4,-120 -7,-116 -7,0 -416,109 -910,240zm176 367c0,106 -7,197 -18,208 -14,14 -254,-39 -829,-184 -21,-7 741,-201 805,-208 28,-3 42,57 42,184l0 0z"/>
   <path class="fil0" d="M17326 9990c-11,10 -18,222 -18,472l0 452 -352 0 -353 0 0 -423 0 -424 -194 0 -194 0 0 424 0 423 -300 0 -300 0 0 -441 0 -441 -194 0 -194 0 0 670 0 671 1235 0 1234 0 0 -671c0,-370 -10,-670 -24,-670 -18,-4 -96,-18 -177,-32 -81,-17 -158,-21 -169,-10l0 0z"/>
   <path class="fil0" d="M18261 10773l0 106 716 0c758,0 801,10 801,165 0,57 21,82 70,82 57,0 71,-25 71,-127 0,-300 -92,-332 -974,-332l-684 0 0 106 0 0z"/>
   <path class="fil0" d="M18286 11323c-15,14 -25,198 -25,409l0 381 829 0 829 0 0 -405 0 -406 -88 0c-88,0 -88,3 -88,300l0 300 -318 0 -317 0 0 -283c0,-257 -8,-282 -71,-282 -64,0 -71,25 -71,282l0 283 -285 0 -283 0 7 -293c8,-229 -3,-293 -42,-300 -28,-4 -63,0 -77,14l0 0z"/>
   <path class="fil0" d="M12782 11619c-70,96 -130,184 -130,194 0,11 60,18 134,18 113,0 158,-28 324,-194l191 -194 -194 0c-191,0 -194,4 -325,176z"/>
   <path class="fil0" d="M14013 11616c-70,95 -127,180 -127,194 0,11 60,21 134,21 113,0 159,-28 325,-194l191 -194 -198 0c-198,0 -201,0 -325,173z"/>
   <path class="fil0" d="M25535 11559c-303,96 -444,452 -423,1080 10,349 24,434 99,586 120,243 271,335 536,335 441,0 635,-240 684,-843 28,-328 -32,-709 -137,-904 -138,-246 -455,-352 -759,-254l0 0zm392 332c28,35 74,141 98,233 57,233 25,857 -52,1005 -106,201 -336,180 -427,-38 -113,-279 -96,-981 35,-1175 67,-103 261,-117 346,-25z"/>
   <path class="fil0" d="M29705 11552c-152,43 -310,233 -385,456 -45,141 -56,275 -45,610 10,374 21,455 98,607 120,243 272,335 537,335 229,0 310,-32 462,-170 257,-239 307,-1171 84,-1577 -134,-243 -444,-349 -751,-261zm384 343c92,102 142,416 120,786 -21,381 -84,547 -218,582 -194,50 -293,-84 -342,-462 -46,-307 0,-744 91,-882 71,-109 261,-120 349,-24z"/>
   <path class="fil0" d="M8948 11627c-145,98 -237,268 -286,543 -50,250 -18,765 53,935 134,317 483,434 825,278 117,-53 166,-102 219,-218 109,-244 99,-276 -106,-276 -145,0 -176,11 -176,64 0,113 -103,219 -216,219 -77,0 -119,-29 -169,-110 -137,-222 -123,-1009 18,-1167 46,-46 99,-64 187,-57 109,11 134,28 166,134 38,117 52,124 204,134 155,11 162,7 162,-81 0,-152 -127,-356 -261,-420 -180,-84 -479,-74 -620,22l0 0z"/>
   <path class="fil0" d="M23623 12537l0 987 409 0c459,0 600,-42 723,-218 152,-212 131,-558 -42,-734l-109 -106 92 -109c119,-138 127,-413 21,-589 -106,-173 -254,-219 -706,-219l-388 0 0 988 0 0zm734 -649c56,38 77,88 77,190 0,187 -70,247 -285,247l-173 0 0 -247 0 -247 152 0c81,0 186,25 229,57zm53 822c46,45 67,116 67,232 0,226 -78,304 -311,311l-173 7 -10 -332 -11 -331 187 24c106,14 215,53 251,89l0 0z"/>
   <path class="fil0" d="M26763 12537l0 987 159 0 158 0 7 -698 11 -695 261 695 261 698 205 0 208 0 0 -991 0 -988 -166 11 -169 11 10 670c7,367 7,663 -3,652 -11,-10 -131,-314 -272,-680l-257 -660 -205 0 -208 0 0 988z"/>
   <path class="fil0" d="M28587 11574c-14,10 -25,384 -25,829l0 804 -92 35c-49,21 -120,32 -151,28 -46,-7 -57,22 -57,131l0 141 184 11c119,7 222,-11 292,-46 194,-99 212,-205 212,-1129l0 -829 -169 0c-96,0 -184,10 -194,25l0 0z"/>
   <path class="fil0" d="M30897 12350c11,906 39,1016 279,1146 169,95 617,78 762,-28 208,-159 219,-205 222,-1090l7 -811 -180 -11 -180 -11 0 780 0 780 -88 84c-46,50 -127,89 -176,89 -49,0 -131,-39 -176,-89l-89 -84 0 -780 0 -776 -197 0 -194 0 10 801 0 0z"/>
   <path class="fil0" d="M32548 12537l0 987 177 0 176 0 0 -426 0 -431 166 21c243,25 293,106 293,448 0,374 7,388 218,388l173 0 -21 -310c-32,-462 -46,-526 -144,-603 -89,-67 -89,-71 -18,-110 173,-91 243,-501 120,-709 -110,-183 -297,-243 -745,-243l-395 0 0 988 0 0zm759 -618c197,194 53,477 -247,477l-159 0 0 -283 0 -282 159 0c123,0 183,21 247,88z"/>
   <path class="fil0" d="M35600 11672c-95,25 -395,96 -660,159l-487 113 0 166 0 166 664 151c363,81 687,159 723,170 56,14 63,-4 53,-120 -11,-131 -14,-134 -177,-166l-169 -28 0 -170 0 -169 169 -28c159,-32 166,-35 177,-166 14,-148 -4,-155 -293,-78l0 0zm-265 441c0,57 -14,106 -35,106 -95,0 -529,-88 -529,-106 0,-24 328,-91 487,-102 63,-4 77,14 77,102l0 0z"/>
   <path class="fil0" d="M39816 11644c-124,46 -254,169 -329,304 -70,134 -77,197 -77,642 0,462 7,504 88,652 131,230 279,318 543,318 304,0 434,-78 568,-335 99,-191 106,-230 106,-614 0,-247 -21,-462 -49,-544 -60,-176 -201,-342 -346,-398 -113,-50 -402,-64 -504,-25l0 0zm377 311c194,137 208,1047 18,1259 -131,152 -371,28 -420,-215 -32,-170 -35,-660 0,-819 49,-240 233,-345 402,-225l0 0z"/>
   <path class="fil0" d="M44190 11697c-120,64 -180,124 -247,258 -81,158 -88,211 -88,635 0,419 7,472 88,635 120,243 272,335 536,335 374,0 547,-138 646,-515 99,-381 46,-960 -109,-1200 -149,-222 -540,-293 -826,-148zm508 321c67,92 74,148 74,572 0,423 -7,479 -74,571 -102,138 -279,138 -381,0 -63,-85 -78,-162 -85,-473 -14,-437 4,-571 103,-698 98,-124 261,-109 363,28z"/>
   <path class="fil0" d="M7025 11683c-180,60 -265,176 -265,360 0,180 88,310 247,356 198,60 332,-3 448,-212 141,-243 187,-285 314,-285 85,0 120,17 138,70 35,110 -14,208 -110,233 -74,18 -88,42 -77,134 7,88 25,106 81,99 208,-28 300,-155 300,-416 0,-226 -141,-367 -367,-367 -194,0 -303,84 -437,335 -71,134 -117,180 -187,187 -173,21 -230,-205 -64,-258 49,-17 67,-53 67,-144 0,-67 -3,-120 -7,-117 -7,4 -42,14 -81,25l0 0z"/>
   <path class="fil0" d="M21302 11690c-455,85 -685,318 -685,709 0,501 357,737 1119,737 786,0 1146,-232 1146,-733 0,-491 -303,-702 -1040,-731 -194,-7 -438,0 -540,18l0 0zm1058 469c251,106 261,342 21,473 -144,78 -920,109 -1150,46 -391,-103 -384,-462 11,-561 219,-57 963,-28 1118,42l0 0z"/>
   <path class="fil0" d="M36464 12590l0 934 194 0 194 0 0 -366 0 -364 212 -21c434,-46 617,-208 617,-554 0,-236 -88,-406 -264,-497 -99,-57 -201,-67 -537,-67l-416 0 0 935 0 0zm787 -579c32,42 60,134 60,208 0,173 -124,282 -321,282l-138 0 0 -303 0 -307 170 25c105,14 187,46 229,95l0 0z"/>
   <path class="fil0" d="M37946 12590l0 934 176 0 177 0 0 -409 0 -413 165 25c244,32 272,78 293,455l18 325 183 10 184 11 -18 -328c-21,-363 -63,-508 -159,-561 -60,-32 -56,-42 46,-134 95,-85 113,-127 124,-307 10,-166 0,-233 -60,-325 -110,-176 -251,-218 -723,-218l-406 0 0 935 0 0zm787 -575c49,56 60,112 45,201 -24,165 -84,211 -296,240l-183 21 0 -293 0 -293 187 21c130,18 201,46 247,103z"/>
   <path class="fil0" d="M41015 12590l0 934 180 0 180 0 -28 -670c-11,-370 -18,-670 -7,-670 10,0 134,300 278,670l261 670 201 0 205 0 0 -934 0 -935 -159 0 -158 0 0 642 0 645 -258 -635 -258 -635 -218 -10 -219 -11 0 939 0 0z"/>
   <polygon class="fil0" points="42497,11796 42497,11937 42708,11937 42920,11937 42920,12731 42920,13524 43114,13524 43308,13524 43308,12731 43308,11937 43520,11937 43731,11937 43731,11796 43731,11655 43114,11655 42497,11655 42497,11796 "/>
   <path class="fil0" d="M16765 11743c-197,70 -353,236 -519,561 -197,388 -257,444 -437,444 -180,0 -265,-81 -265,-254 0,-137 78,-229 233,-271 96,-25 103,-39 113,-244l11 -218 -110 0c-247,0 -479,183 -564,444 -56,169 -28,526 49,695 96,191 325,318 582,318 343,0 505,-131 745,-614 166,-328 271,-420 480,-420 208,0 296,88 296,293 0,173 -95,289 -265,335 -91,25 -95,39 -102,247 -4,219 -4,219 95,219 117,0 332,-85 427,-170 194,-173 268,-716 131,-1012 -152,-335 -533,-484 -900,-353l0 0z"/>
   <path class="fil0" d="M11399 12022c-222,98 -335,328 -335,680 0,459 138,692 438,734 303,46 568,-106 631,-363 18,-71 7,-78 -148,-78 -134,0 -169,14 -198,78 -24,56 -70,85 -148,92 -134,14 -222,-92 -222,-265l0 -116 374 0 377 0 -17 -230c-11,-127 -50,-275 -88,-342 -120,-212 -420,-296 -664,-190l0 0zm371 299c17,39 35,110 35,159 0,88 -11,92 -194,92 -187,0 -194,-4 -194,-95 0,-50 25,-124 60,-159 78,-85 243,-85 293,3z"/>
   <path class="fil0" d="M12592 12022c-247,113 -318,426 -138,617 53,56 173,131 261,162 92,36 194,88 229,117 163,141 -21,360 -204,240 -50,-32 -88,-82 -88,-110 0,-39 -46,-53 -177,-53 -176,0 -176,0 -155,96 64,254 303,391 607,349 212,-28 328,-117 391,-293 96,-261 -24,-448 -381,-589 -218,-88 -289,-166 -229,-261 60,-95 201,-78 254,35 39,85 67,99 187,99 162,0 201,-57 131,-198 -106,-218 -445,-321 -688,-211l0 0z"/>
   <path class="fil0" d="M13816 12036c-78,35 -155,120 -212,218 -70,135 -85,205 -85,459 0,505 166,723 537,723 300,-3 501,-173 501,-423 0,-81 -11,-88 -159,-88 -113,0 -159,14 -159,49 0,28 -28,85 -63,127 -78,95 -230,78 -272,-25 -49,-137 -60,-525 -11,-663 39,-123 60,-141 152,-141 81,0 117,25 152,95 39,89 67,99 208,99l162 0 -21 -127c-49,-303 -423,-458 -730,-303l0 0z"/>
   <path class="fil0" d="M10006 12149l0 137 261 11 261 10 -279 434c-211,328 -278,459 -278,554l0 124 476 0 476 0 0 -142 0 -141 -265 0c-144,0 -264,-10 -264,-24 0,-11 120,-208 264,-434 205,-321 265,-441 265,-540l0 -131 -459 0 -458 0 0 142 0 0z"/>
   <polygon class="fil0" points="18261,12537 18261,12643 18614,12643 18966,12643 18966,12907 18966,13172 18614,13172 18261,13172 18261,13277 18261,13383 19083,13376 19901,13366 19912,13267 19922,13172 19517,13172 19107,13172 19107,12907 19107,12646 19506,12635 19901,12625 19912,12526 19922,12431 19093,12431 18261,12431 18261,12537 "/>
   <path class="fil0" d="M6760 12713l0 106 473 0c261,0 515,14 561,32 120,46 155,165 78,250 -57,60 -124,71 -579,78l-515 10 0 106 0 106 459 11c546,14 670,-8 779,-117 71,-70 85,-120 85,-282 0,-173 -14,-212 -102,-303l-103 -103 -568 0 -568 0 0 106 0 0z"/>
   <polygon class="fil0" points="34453,12872 34453,12995 35177,12995 35900,12995 35900,12872 35900,12748 35177,12748 34453,12748 "/>
   <polygon class="fil0" points="34453,13542 34453,13913 35177,13913 35900,13913 35900,13789 35900,13666 35600,13666 35300,13666 35300,13436 35300,13207 35177,13207 35053,13207 35053,13436 35053,13666 34877,13666 34700,13666 34700,13419 34700,13172 34577,13172 34453,13172 34453,13542 "/>
   <path class="fil0" d="M21789 13521c-533,130 -1013,247 -1066,261 -95,25 -99,32 -99,272 0,225 8,250 82,282 42,17 522,137 1065,264 543,127 1009,240 1034,247 31,11 42,-42 42,-194l0 -208 -201 -39c-399,-81 -363,-45 -363,-335l0 -261 204 -39c392,-81 360,-53 360,-285 0,-145 -14,-209 -42,-205 -25,4 -484,109 -1016,240l0 0zm176 571c0,96 -7,173 -14,173 -32,0 -886,-183 -896,-190 -14,-18 854,-187 885,-173 14,7 25,92 25,190l0 0z"/>
   <path class="fil0" d="M6781 13553c-45,42 -17,183 43,215 32,18 155,49 271,74 117,21 321,67 459,95l247 57 -487 98c-268,57 -501,110 -522,120 -18,14 -32,67 -32,127 0,74 18,103 64,103 32,0 331,-71 659,-152l600 -152 11 -116c7,-67 0,-131 -18,-148 -14,-14 -257,-85 -540,-159 -691,-176 -733,-187 -755,-162l0 0z"/>
   <path class="fil0" d="M18402 14050c-275,95 -501,349 -603,667 -156,497 -127,1351 63,1781 177,395 491,572 988,565 497,-11 811,-247 967,-723 74,-230 84,-321 84,-822 0,-639 -42,-843 -236,-1133 -169,-250 -409,-370 -780,-391 -226,-11 -331,3 -483,56zm646 462c172,138 218,342 218,988 0,660 -39,857 -201,1012 -81,78 -137,99 -261,99 -137,0 -176,-17 -261,-113 -162,-180 -194,-352 -194,-998 0,-480 11,-610 64,-748 84,-219 201,-310 395,-310 95,0 180,24 240,70l0 0z"/>
   <polygon class="fil0" points="8842,15518 8842,17017 9142,17017 9441,17017 9441,16347 9441,15673 9851,15683 10256,15694 10263,16347 10270,16999 10581,17010 10888,17020 10888,15518 10888,14015 10581,14025 10270,14036 10263,14618 10256,15200 9851,15211 9441,15221 9441,14618 9441,14018 9142,14018 8842,14018 8842,15518 "/>
   <path class="fil0" d="M11488 15518l0 1499 878 0 878 0 22 -99c10,-53 28,-155 42,-229l21 -131 -621 0 -621 0 0 -441 0 -441 547 0 547 0 0 -229 0 -229 -547 0 -547 0 0 -353 0 -353 575 -7 572 -10 10 -240 11 -237 -886 0 -881 0 0 1500 0 0z"/>
   <path class="fil0" d="M13710 15518l0 1499 861 0 857 0 25 -162c42,-325 95,-297 -561,-297l-582 0 0 -1270 0 -1270 -300 0 -300 0 0 1500 0 0z"/>
   <path class="fil0" d="M15791 15518l0 1499 861 0c970,0 875,28 921,-293l21 -166 -582 0 -586 0 -7 -1263 -10 -1259 -307 -11 -311 -10 0 1503 0 0z"/>
   <path class="fil0" d="M43414 14131c-201,103 -293,265 -272,484 36,317 265,476 695,472 480,-3 685,-173 660,-547 -14,-232 -74,-321 -289,-419 -209,-96 -593,-92 -794,10l0 0zm695 279c166,63 194,166 81,279 -56,56 -116,70 -335,70 -145,0 -300,-17 -349,-42 -166,-74 -149,-240 31,-311 103,-42 455,-42 572,4l0 0z"/>
   <path class="fil0" d="M23739 14142c-148,63 -239,247 -208,416 25,138 152,265 381,381 170,88 233,208 177,335 -60,127 -251,110 -318,-32 -39,-77 -70,-95 -173,-95 -116,0 -123,4 -98,95 38,166 116,254 261,297 187,56 381,14 504,-110 81,-84 99,-130 99,-275 0,-222 -71,-310 -353,-462 -208,-113 -215,-120 -204,-243 10,-120 21,-131 116,-131 81,0 116,25 152,95 35,75 70,99 151,99 85,0 103,-14 103,-88 0,-261 -307,-406 -590,-282z"/>
   <path class="fil0" d="M29846 14138c-145,64 -226,184 -226,332 0,208 74,296 364,451 201,106 264,230 183,353 -78,124 -219,113 -293,-21 -46,-85 -84,-106 -173,-106 -134,0 -148,50 -60,215 138,269 632,269 770,0 134,-257 42,-476 -279,-656 -124,-70 -237,-158 -247,-194 -64,-197 201,-300 275,-106 32,89 60,106 155,106 99,0 117,-10 117,-88 0,-226 -346,-395 -586,-286l0 0z"/>
   <path class="fil0" d="M41241 14294c-99,109 -230,261 -293,331l-116 134 187 0 190 0 353 -335 353 -332 -247 0 -247 -3 -180 205z"/>
   <path class="fil0" d="M24505 14230l0 102 265 11 264 10 -282 508c-155,279 -282,547 -282,593 0,81 3,81 420,81 405,0 419,-3 441,-81 10,-42 21,-88 21,-106 0,-14 -127,-24 -283,-24 -155,0 -282,-7 -282,-11 0,-7 120,-229 265,-494 169,-303 264,-518 264,-585l0 -110 -405 0 -406 0 0 106 0 0z"/>
   <path class="fil0" d="M25493 14830l0 705 367 0c300,0 370,-10 388,-56 53,-141 31,-155 -244,-155l-264 0 0 -212 0 -212 250 0 247 0 -10 -98c-11,-92 -18,-96 -247,-106l-240 -11 0 -173 0 -176 247 0 247 0 0 -106 0 -106 -371 0 -370 0 0 706 0 0z"/>
   <path class="fil0" d="M26445 14830l0 705 124 0 123 0 0 -300 0 -299 99 0c169,0 201,49 219,324l17 258 127 10 124 11 -11 -222c-17,-297 -35,-364 -106,-438 -45,-46 -49,-67 -17,-77 60,-18 148,-198 148,-304 0,-268 -159,-374 -564,-374l-283 0 0 706 0 0zm522 -452c25,25 43,92 43,152 0,141 -57,194 -201,194l-117 0 0 -194 0 -194 117 0c63,0 134,17 158,42l0 0z"/>
   <path class="fil0" d="M27398 14149c0,18 74,335 166,709l169 681 155 -11 159 -10 169 -653c92,-360 170,-674 170,-698 0,-25 -50,-43 -124,-43 -137,0 -130,-17 -272,660 -42,219 -88,399 -98,399 -11,0 -64,-226 -117,-501 -56,-276 -109,-515 -116,-530 -25,-35 -261,-38 -261,-3l0 0z"/>
   <path class="fil0" d="M28527 14678c0,459 10,579 63,681 117,240 512,279 720,70l99 -98 0 -604 0 -603 -124 0 -123 0 0 565c0,557 0,564 -89,621 -45,28 -116,45 -151,35 -120,-39 -148,-180 -148,-709l0 -512 -124 0 -123 0 0 554 0 0z"/>
   <path class="fil0" d="M30608 14230l0 102 261 11 258 10 -276 494c-151,272 -275,537 -278,590l0 98 423 0c342,0 423,-10 423,-49 0,-28 11,-74 22,-106 17,-49 -18,-56 -265,-56 -159,0 -286,-7 -286,-18 0,-11 120,-236 265,-504 145,-269 264,-530 264,-583l0 -95 -405 0 -406 0 0 106 0 0z"/>
   <polygon class="fil0" points="39258,15860 39269,17599 39463,17599 39657,17599 39657,15870 39657,14142 39452,14131 39251,14121 39258,15860 "/>
   <path class="fil0" d="M32164 14255c-318,158 -367,652 -92,910 201,190 677,272 1133,197 292,-49 448,-134 529,-289 70,-141 53,-427 -39,-525 -57,-64 -57,-71 -4,-92 36,-14 57,-64 57,-141l0 -120 -512 0 -511 0 0 300 0 299 141 0 141 0 0 -144 0 -141 169 21c240,35 332,102 318,236 -18,177 -145,244 -491,265 -546,35 -903,-110 -822,-332 32,-92 78,-127 202,-166 52,-17 63,-49 52,-169 -14,-176 -81,-205 -271,-109l0 0z"/>
   <path class="fil0" d="M42807 14294c-123,88 -130,109 -134,278 0,180 4,187 159,293l159 109 0 -158c0,-127 -15,-163 -71,-180 -39,-11 -71,-36 -71,-53 0,-18 32,-50 71,-71 53,-28 71,-74 71,-176 0,-78 -11,-141 -25,-138 -18,0 -88,46 -159,95l0 1z"/>
   <path class="fil0" d="M37328 14265c-419,88 -659,328 -818,808 -71,219 -102,1189 -49,1503 134,762 525,1118 1171,1065 723,-60 1023,-553 1023,-1700 3,-935 -194,-1429 -653,-1619 -155,-64 -497,-96 -674,-57zm530 385c243,141 370,578 370,1291 0,963 -201,1372 -674,1376 -310,0 -497,-177 -624,-579 -88,-293 -85,-1312 7,-1615 78,-258 257,-487 420,-537 144,-46 367,-17 501,64z"/>
   <path class="fil0" d="M34683 14544c-163,67 -208,169 -223,497l-14 318 727 0 727 0 0 -124 0 -123 -300 0 -300 0 0 -120c0,-67 21,-134 46,-152 21,-14 155,-35 289,-46l247 -17 11 -127 10 -127 -275 14c-197,14 -303,35 -370,85 -57,38 -99,53 -99,35 0,-102 -318,-177 -476,-113l0 0zm335 286c39,39 70,116 70,176l0 106 -211 0 -212 0 0 -106c0,-120 109,-247 212,-247 38,0 102,32 141,71l0 0z"/>
   <path class="fil0" d="M6930 14604c-113,60 -145,159 -149,473l-3 229 663 11 663 7 -10 -113 -11 -117 -271 -10 -276 -11 0 -102c0,-131 43,-155 318,-177l229 -17 11 -120 10 -117 -257 25c-141,14 -297,50 -342,78 -50,31 -92,39 -106,21 -74,-117 -314,-148 -469,-60zm352 233c25,24 43,92 43,148 0,109 0,109 -177,99 -165,-14 -176,-21 -176,-110 0,-120 60,-180 176,-180 50,0 110,18 134,43z"/>
   <path class="fil0" d="M20639 15126c-11,25 -15,116 -7,201l10 155 1104 11 1101 7 0 -212 0 -211 -1094 0c-903,0 -1100,7 -1114,49l0 0z"/>
   <path class="fil0" d="M40906 15112c-293,49 -477,187 -579,430 -99,240 -81,276 141,276l191 0 39 -138c52,-201 176,-286 409,-286 349,0 441,95 465,480l15 250 -374 18c-332,18 -406,35 -607,134 -282,138 -406,307 -431,579 -28,367 149,649 463,744 211,64 282,64 518,14 109,-25 229,-81 300,-144l120 -103 28 113c28,106 39,113 201,113l170 0 -4 -1002c-7,-956 -11,-1009 -85,-1161 -56,-116 -116,-176 -236,-236 -180,-88 -508,-123 -744,-81l0 0zm663 1570c-42,497 -191,667 -565,642 -236,-14 -363,-113 -409,-311 -81,-363 198,-592 734,-596l261 0 -21 265 0 0z"/>
   <path class="fil0" d="M42673 15482l0 159 893 0c493,0 903,-7 910,-14 10,-11 10,-81 3,-159l-14 -144 -896 0 -896 0 0 158z"/>
   <path class="fil0" d="M7889 15712l0 247 -194 0 -194 0 0 -212 0 -212 -106 0 -106 0 0 215 0 212 -148 -10 -151 -11 -11 -222c-11,-219 -11,-223 -106,-212 -95,11 -95,11 -106,335l-10 328 674 0 670 0 0 -331c0,-314 -4,-332 -78,-353 -46,-11 -91,-21 -106,-21 -17,0 -28,109 -28,247l0 0z"/>
   <path class="fil0" d="M35134 15669l-681 163 0 169c0,92 7,169 18,169 7,0 282,64 607,138 917,212 822,204 822,63 0,-120 -7,-123 -177,-165l-176 -43 0 -169 0 -169 176 -25 177 -25 0 -137c0,-89 -14,-138 -43,-134 -24,3 -352,77 -723,165l0 0zm201 321c0,60 -10,113 -24,120 -18,7 -156,-14 -311,-46 -296,-63 -296,-63 53,-137 268,-53 282,-50 282,63l0 0z"/>
   <path class="fil0" d="M31938 15666c-14,10 -25,84 -25,159l0 134 628 0 625 3 -494 187c-840,321 -766,272 -752,487l11 187 910 11 907 7 0 -159 0 -159 -642 -7 -642 -11 635 -232 631 -233 11 -201 10 -198 -896 0c-490,0 -906,11 -917,25l0 0z"/>
   <path class="fil0" d="M21030 15789c-275,99 -409,297 -409,604 0,306 106,497 356,624 367,187 1224,187 1591,-4 205,-102 293,-254 307,-529 21,-363 -123,-585 -448,-695 -204,-70 -215,-63 -215,170 0,204 3,211 88,211 110,0 265,145 265,247 0,198 -304,318 -808,318 -540,0 -815,-106 -815,-318 0,-130 74,-215 212,-243 123,-25 123,-28 134,-226 10,-190 7,-201 -71,-198 -46,0 -127,18 -187,39l0 0z"/>
   <path class="fil0" d="M23482 16502l0 586 215 0c332,0 452,-92 455,-346 0,-99 -21,-170 -67,-215 -60,-60 -63,-74 -17,-113 28,-21 49,-103 49,-191 0,-211 -85,-275 -392,-293l-243 -14 0 586 0 0zm423 -353c21,28 36,88 29,134 -8,64 -36,85 -124,92 -113,10 -116,7 -116,-131 0,-127 10,-144 84,-144 46,0 103,24 127,49zm-14 438c64,42 92,176 50,254 -25,45 -75,70 -142,70 -102,0 -105,-3 -105,-176 0,-159 7,-177 81,-177 42,0 95,14 116,29l0 0z"/>
   <path class="fil0" d="M24459 15962c-215,127 -254,829 -53,1044 99,106 349,113 448,14 194,-194 194,-807 -3,-1016 -81,-88 -275,-109 -392,-42zm296 233c57,145 29,631 -42,698 -81,85 -166,29 -212,-137 -45,-169 -21,-529 39,-603 71,-85 173,-64 215,42z"/>
   <path class="fil0" d="M25154 15969c-7,25 -10,282 -7,572l11 529 88 0 88 0 -7 -406c-4,-222 3,-391 11,-370 10,17 77,201 148,405 130,360 137,371 247,381l113 11 0 -582 0 -586 -89 0c-84,0 -84,4 -95,378l-10 381 -138 -381c-131,-364 -138,-378 -236,-378 -57,0 -113,22 -124,46l0 0z"/>
   <path class="fil0" d="M26188 15962c-120,71 -177,247 -180,561 0,388 70,540 271,557 71,8 159,-7 202,-28 45,-24 70,-24 70,0 0,18 32,36 71,36 67,0 70,-25 70,-318l0 -317 -180 0c-165,0 -176,7 -165,77 7,53 35,81 81,81 56,0 70,25 63,120 -10,240 -187,275 -261,50 -49,-152 -25,-554 39,-628 63,-74 166,-67 212,17 21,43 74,71 127,71 81,0 88,-11 70,-99 -14,-53 -56,-123 -99,-159 -77,-67 -292,-77 -391,-21l0 0z"/>
   <path class="fil0" d="M26869 16505l0 583 105 0 106 0 0 -265 0 -265 124 0 120 0 10 254c11,251 14,258 110,268l95 11 0 -586 0 -585 -95 10c-96,11 -99,22 -110,230l-10 222 -120 0 -124 0 0 -229 0 -230 -106 0 -105 0 0 582 0 0z"/>
   <path class="fil0" d="M27814 16407c-11,476 -14,486 -88,497 -60,11 -81,35 -81,99 0,74 17,85 116,85 237,0 254,-39 265,-632l10 -533 -106 0 -105 0 -11 484 0 0z"/>
   <path class="fil0" d="M28340 15994c-166,130 -223,596 -110,882 67,166 134,212 325,212 145,0 261,-89 307,-240 46,-156 25,-632 -32,-745 -99,-190 -324,-240 -490,-109l0 0zm293 159c59,74 84,434 38,603 -46,166 -130,222 -211,137 -71,-70 -103,-606 -43,-719 46,-85 152,-99 216,-21l0 0z"/>
   <path class="fil0" d="M29056 16505l0 586 99 -11c91,-10 95,-17 105,-250 11,-226 15,-236 99,-236 106,0 155,109 155,338 0,141 8,156 89,156 84,0 88,-8 88,-223 0,-137 -18,-250 -50,-293 -45,-60 -42,-74 7,-130 89,-99 78,-325 -21,-420 -60,-63 -127,-81 -324,-92l-247 -14 0 589 0 0zm416 -363c102,102 25,275 -123,275 -74,0 -81,-17 -81,-159 0,-141 7,-158 81,-158 46,0 98,17 123,42z"/>
   <path class="fil0" d="M29867 16502l0 586 88 0 89 0 3 -399c0,-438 4,-438 177,70 105,311 116,329 211,329l103 0 0 -586 0 -582 -78 10c-78,11 -81,25 -81,371 0,197 -7,349 -18,338 -10,-7 -74,-169 -141,-356 -120,-328 -131,-342 -240,-353l-113 -10 0 582z"/>
   <path class="fil0" d="M30749 16414c0,441 7,497 74,582 64,77 99,91 261,91 163,0 198,-14 261,-91 67,-85 74,-141 74,-582l0 -491 -88 0 -88 0 0 438c0,363 -11,448 -63,515 -75,92 -173,63 -223,-60 -17,-46 -31,-268 -31,-490l0 -403 -89 0 -88 0 0 491 0 0z"/>
   <path class="fil0" d="M42673 16082l0 159 893 0c493,0 903,-7 910,-14 10,-11 10,-81 3,-159l-14 -145 -896 0 -896 0 0 159z"/>
   <path class="fil0" d="M7526 16407c-57,35 -152,151 -215,257 -96,162 -131,194 -216,194 -56,0 -112,-28 -137,-63 -32,-53 -21,-78 60,-145 120,-95 134,-268 21,-268 -39,0 -120,49 -180,106 -99,99 -106,123 -92,286 25,246 117,331 350,331 197,0 239,-35 426,-349 78,-131 117,-162 198,-162 205,0 258,208 78,299 -82,43 -106,78 -106,159 0,120 53,134 211,53 138,-70 177,-152 177,-367 0,-236 -99,-356 -318,-381 -113,-10 -187,4 -257,50l0 0z"/>
   <path class="fil0" d="M43544 16622l-804 197 11 212c10,191 17,212 98,236 131,39 1577,385 1613,385 14,0 28,-67 24,-148l-3 -152 -219 -49 -219 -53 11 -212c11,-183 21,-215 81,-226 39,-7 127,-28 201,-46 120,-31 127,-42 141,-190 11,-141 4,-159 -60,-155 -39,3 -434,91 -875,201l0 0zm216 557c-7,7 -110,-10 -223,-35 -116,-28 -275,-60 -352,-74 -138,-28 -127,-32 211,-102l353 -75 11 138c7,74 7,141 0,148z"/>
   <path class="fil0" d="M34739 16657c-205,102 -264,222 -282,540l-11 279 727 0 727 0 0 -265c0,-335 -60,-459 -258,-550 -201,-92 -730,-96 -903,-4zm864 272c64,39 85,84 85,180l0 123 -501 -10 -504 -11 7 -102c10,-127 95,-223 218,-247 180,-32 607,7 695,67l0 0z"/>
   <polygon class="fil0" points="31913,17334 31913,17511 32831,17511 33748,17511 33748,17334 33748,17158 32831,17158 31913,17158 "/>
   <path class="fil0" d="M12920 17737c-166,63 -325,208 -416,388 -212,409 -223,1298 -25,1749 148,336 374,473 772,470 438,-4 699,-191 833,-604 92,-278 92,-1217 0,-1453 -155,-409 -363,-568 -780,-589 -158,-7 -296,7 -384,39l0 0zm536 426c141,120 183,311 183,858 0,688 -95,928 -373,935 -170,3 -311,-145 -364,-396 -49,-236 -49,-864 0,-1104 74,-345 332,-479 554,-293z"/>
   <path class="fil0" d="M15103 17730c-268,95 -462,338 -550,698 -28,116 -46,370 -46,635 11,907 279,1284 910,1281 138,0 293,-18 346,-39 177,-71 374,-286 459,-494 70,-180 81,-261 81,-783 0,-480 -11,-614 -67,-773 -81,-236 -300,-465 -501,-525 -173,-50 -483,-53 -632,0l0 0zm530 430c46,46 102,152 127,236 56,198 56,1023 0,1221 -60,222 -180,342 -332,342 -289,0 -395,-254 -395,-949 0,-698 102,-935 399,-935 74,0 144,28 201,85z"/>
   <polygon class="fil0" points="6584,19010 6584,20298 6848,20298 7113,20298 7113,19716 7113,19134 7448,19134 7783,19134 7783,19716 7783,20298 8030,20298 8277,20298 8277,19010 8277,17723 8030,17723 7783,17723 7783,18234 7783,18746 7448,18746 7113,18746 7113,18234 7113,17723 6848,17723 6584,17723 "/>
   <path class="fil0" d="M9216 17751c-14,24 -491,1894 -621,2430l-28 117 254 0 254 0 63 -318 67 -317 328 0c356,0 335,-14 385,247 14,67 38,183 56,254l35 134 261 0 258 0 -325 -1281 -324 -1277 -321 -10c-177,-4 -332,3 -342,21l0 0zm437 952c57,275 106,515 106,536 0,22 -99,36 -233,36 -222,0 -233,-4 -215,-81 10,-43 63,-286 116,-544 57,-257 106,-462 110,-455 7,4 56,233 116,508l0 0z"/>
   <path class="fil0" d="M10782 19010l0 1288 706 0c793,0 705,32 754,-275l22 -113 -494 0 -494 0 0 -1094 0 -1093 -247 0 -247 0 0 1287 0 0z"/>
   <path class="fil0" d="M20554 18993l0 1270 356 0c194,0 427,-18 515,-39 215,-57 402,-244 505,-508 74,-191 84,-272 84,-759 0,-589 -31,-744 -208,-973 -155,-205 -335,-262 -822,-262l-430 0 0 1270 0 1zm818 -840c36,18 92,81 124,145 92,165 92,1188 3,1354 -88,159 -194,222 -370,222l-152 0 0 -874c0,-484 11,-889 25,-900 25,-28 286,7 370,53l0 0z"/>
   <polygon class="fil0" points="22388,18993 22388,20263 22600,20263 22812,20263 22812,18993 22812,17723 22600,17723 22388,17723 "/>
   <path class="fil0" d="M23344 18911c-144,657 -268,1228 -278,1270 -14,78 -4,82 197,82l215 0 36 -187c21,-99 46,-244 60,-318l21 -134 289 11 286 10 53 300 53 300 222 10c159,7 219,0 219,-35 0,-25 -124,-596 -272,-1270l-272 -1228 -285 0 -283 0 -261 1189 0 0zm717 194l21 134 -194 0c-163,0 -194,-10 -194,-63 0,-56 123,-730 165,-924 22,-81 117,335 202,853z"/>
   <path class="fil0" d="M25634 18996l0 1274 434 -11c353,-11 455,-28 571,-88 353,-184 498,-593 470,-1330 -25,-639 -156,-921 -494,-1062 -96,-42 -254,-56 -558,-56l-423 0 0 1273 0 0zm822 -843c141,74 204,317 204,787 0,508 -42,695 -179,836 -82,81 -131,98 -262,98l-162 0 0 -874c0,-484 11,-889 25,-904 32,-28 282,8 374,57l0 0z"/>
   <path class="fil0" d="M27440 18753c11,998 14,1040 92,1199 113,226 264,314 575,339 395,28 624,-92 762,-399 53,-120 63,-282 74,-1157l14 -1012 -233 0 -233 0 0 1001c0,956 -3,1002 -74,1094 -56,71 -102,92 -208,92 -314,0 -360,-177 -346,-1355l11 -833 -222 0 -222 0 10 1031 0 0z"/>
   <polygon class="fil0" points="29338,18993 29338,20263 29550,20263 29761,20263 29761,18993 29761,17723 29550,17723 29338,17723 "/>
   <polygon class="fil0" points="29980,17906 29991,18093 30248,18103 30502,18114 30502,19187 30502,20262 30714,20262 30926,20262 30933,19194 30943,18128 31201,18118 31455,18107 31455,17917 31455,17722 30710,17722 29970,17722 29980,17906 "/>
   <path class="fil0" d="M31920 18082l11 254 614 124c684,141 684,130 -14,250 -702,120 -621,74 -611,364l11 254 910 10 907 7 0 -158 0 -159 -730 -7 -734 -11 734 -123 733 -120 -10 -159 -11 -159 -600 -116c-966,-184 -963,-177 -130,-184l748 -3 0 -159 0 -159 -917 0 -921 0 10 254z"/>
   <polygon class="fil0" points="16885,18022 16885,18181 17097,18181 17308,18181 17308,18022 17308,17864 17097,17864 16885,17864 "/>
   <polygon class="fil0" points="17739,18012 17749,18163 18836,18174 19919,18181 19919,18022 19919,17864 18822,17864 17728,17864 "/>
   <path class="fil0" d="M34683 18163c-180,64 -261,177 -265,357 0,197 85,296 399,448 144,67 289,162 321,204 162,233 -39,491 -335,431 -106,-21 -244,-159 -244,-244 0,-31 -39,-49 -106,-49 -120,0 -127,25 -56,194 67,159 233,243 480,243 335,0 529,-165 529,-451 0,-173 -155,-339 -431,-462 -289,-127 -345,-180 -345,-321 0,-166 81,-233 278,-219 145,11 170,25 216,123 42,92 74,117 155,117 92,0 99,-7 74,-99 -32,-134 -148,-247 -296,-289 -163,-46 -205,-42 -374,17l0 0z"/>
   <path class="fil0" d="M36009 18259c-53,173 -427,1443 -427,1460 0,7 46,14 103,14 91,0 102,-14 165,-240l71 -236 250 -10 254 -11 74 250c71,233 78,247 177,247 60,0 106,-14 106,-28 0,-18 -71,-261 -156,-540 -84,-278 -187,-624 -229,-765l-77 -254 -138 0c-124,0 -138,10 -173,113l0 0zm279 465l99 339 -212 0c-184,0 -208,-7 -191,-60 15,-32 57,-190 99,-353 39,-162 81,-289 88,-278 11,7 60,165 117,352l0 0z"/>
   <path class="fil0" d="M36993 18940l0 793 438 0c367,0 441,-10 458,-56 11,-32 22,-60 22,-67 0,-11 -156,-21 -343,-25l-345 -10 -11 -717 -7 -712 -106 0 -106 0 0 794 0 0z"/>
   <path class="fil0" d="M37865 18559c70,229 176,582 236,786l113 371 134 0 134 0 243 -776c135,-427 244,-780 244,-787 0,-7 -49,-7 -109,0l-113 10 -201 685c-166,564 -205,667 -226,582 -14,-56 -99,-367 -187,-695l-162 -589 -117 0 -113 0 124 413 0 0z"/>
   <path class="fil0" d="M39181 18940l0 793 458 0c434,0 459,-3 459,-70 0,-67 -25,-71 -353,-71l-356 0 10 -310 11 -307 310 -11c279,-10 307,-17 307,-77 0,-64 -24,-71 -317,-71l-318 0 0 -264 0 -265 335 0c311,0 335,-4 335,-71 0,-67 -24,-70 -440,-70l-441 0 0 794 0 0z"/>
   <polygon class="fil0" points="17026,18869 17026,19028 17626,19028 18226,19028 18226,19504 18226,19980 17626,19980 17026,19980 17026,20139 17026,20298 18473,20298 19919,20298 19919,20139 19919,19980 19213,19980 18504,19980 18515,19511 18525,19045 19224,19035 19919,19028 19919,18869 19919,18710 18472,18710 17026,18710 17026,18869 "/>
   <path class="fil0" d="M32492 19624c-388,63 -593,268 -593,586 0,232 95,398 300,511 145,81 191,88 632,88 441,0 490,-7 649,-88 204,-106 303,-264 303,-487 0,-285 -134,-469 -413,-564 -158,-53 -659,-78 -878,-46l0 0zm691 356c237,46 325,120 311,261 -18,177 -191,237 -656,240 -526,4 -731,-99 -660,-324 56,-177 550,-265 1005,-177z"/>
   <path class="fil0" d="M40013 20322c-18,64 -391,1669 -434,1853 -17,98 -17,98 155,98l177 0 39 -180c24,-98 42,-208 42,-247 0,-59 28,-67 243,-67l244 0 46 247 42 247 190 0c177,0 187,-3 170,-81 -11,-42 -106,-458 -212,-924 -109,-466 -212,-882 -229,-928 -28,-67 -60,-78 -244,-78 -169,0 -215,11 -229,60l0 0zm385 1059c17,74 7,81 -141,81 -184,0 -180,21 -103,-406 81,-455 85,-458 159,-88 35,184 74,370 85,413l0 0z"/>
   <path class="fil0" d="M41146 20284c-15,14 -25,469 -25,1009l0 980 490 0c536,0 533,0 533,-215l0 -102 -335 0 -335 0 -7 -840 -11 -836 -141 -10c-81,-7 -155,0 -169,14z"/>
   <path class="fil0" d="M42345 20287c-14,11 -25,466 -25,1006l0 980 512 0c508,0 511,0 511,-81 0,-42 11,-113 22,-159 21,-77 17,-77 -336,-77l-356 0 0 -847 0 -847 -152 0c-84,0 -165,11 -176,25l0 0z"/>
   <path class="fil0" d="M43763 20344c-180,123 -282,335 -310,652 -50,593 56,1055 278,1214 149,109 424,120 614,32 131,-64 177,-117 254,-276 173,-349 159,-1153 -24,-1453 -152,-254 -561,-339 -812,-169l0 0zm427 236c88,49 141,219 162,547 25,331 -28,705 -113,797 -74,85 -232,85 -303,4 -88,-96 -134,-318 -134,-653 0,-579 138,-829 388,-695l0 0z"/>
   <polygon class="fil0" points="38193,21286 38193,22273 38369,22273 38546,22273 38546,21832 38546,21391 38775,21391 39004,21391 39004,21832 39004,22273 39181,22273 39357,22273 39357,21286 39357,20298 39181,20298 39004,20298 39004,20686 39004,21074 38775,21074 38546,21074 38546,20686 38546,20298 38369,20298 38193,20298 "/>
   <path class="fil0" d="M35787 20495c-558,170 -653,903 -159,1196 212,124 600,177 931,127 519,-77 724,-268 724,-674 0,-335 -166,-550 -508,-652 -230,-67 -766,-67 -988,3l0 0zm1012 452c110,74 138,134 110,247 -36,144 -268,208 -685,190 -420,-14 -536,-70 -536,-254 0,-211 159,-271 677,-254 251,7 367,29 434,71z"/>
   <path class="fil0" d="M34870 20742l-240 156 0 236 0 240 169 102c92,60 201,127 247,155 78,50 78,50 78,-144 0,-187 -7,-198 -127,-272l-124 -78 124 -88c120,-77 127,-95 127,-275 0,-106 -4,-194 -7,-190 -8,0 -117,70 -247,158l0 0z"/>
   <path class="fil0" d="M19989 20834c-112,56 -183,127 -246,240 -82,148 -89,194 -89,617 0,424 7,469 89,614 119,215 278,303 546,303 283,0 431,-88 547,-317 81,-159 88,-219 88,-600 0,-381 -7,-441 -88,-599 -102,-209 -314,-336 -547,-336 -77,0 -215,36 -300,78l0 0zm508 346c60,102 71,183 71,494 -4,539 -109,733 -367,652 -212,-67 -282,-885 -102,-1178 60,-99 84,-113 197,-102 106,7 145,31 201,134z"/>
   <path class="fil0" d="M22071 20802c-282,64 -427,159 -519,342 -197,385 -24,798 392,942 215,74 906,85 1136,18 345,-99 518,-314 518,-639 0,-317 -155,-532 -451,-624 -237,-74 -833,-95 -1076,-39l0 0zm1041 427c141,60 208,173 176,293 -81,328 -1429,328 -1492,-4 -57,-275 222,-384 868,-352 183,7 384,38 448,63z"/>
   <path class="fil0" d="M7547 20827c-448,92 -674,459 -575,938 53,254 205,410 600,625 169,91 338,201 381,247 105,113 151,278 113,416 -53,180 -135,243 -304,243 -183,0 -314,-102 -360,-282l-28 -123 -257 -11 -254 -10 24 134c81,465 367,698 843,695 265,0 448,-60 607,-202 268,-236 339,-659 170,-1001 -106,-212 -223,-307 -614,-508 -346,-177 -427,-269 -427,-477 0,-201 88,-296 275,-296 159,0 250,81 286,254 24,116 24,116 261,127l236 11 0 -127c0,-184 -130,-434 -282,-533 -71,-49 -222,-102 -339,-120 -113,-21 -208,-32 -208,-32 0,4 -67,18 -148,32l0 0z"/>
   <path class="fil0" d="M12369 20933l0 141 353 0c194,0 353,10 353,21 0,11 -176,307 -392,656 -282,462 -384,660 -377,730l11 92 585 11 586 7 24 -110c11,-59 22,-123 22,-141 0,-17 -173,-31 -388,-31 -212,0 -389,-7 -389,-18 0,-11 166,-293 371,-631 289,-480 370,-639 370,-741l0 -127 -564 0 -565 0 0 141 0 0z"/>
   <path class="fil0" d="M13781 21691l0 900 310 0c402,0 561,-46 716,-212 152,-159 208,-353 208,-712 0,-667 -204,-872 -871,-875l-363 0 0 899 0 0zm606 -614c191,53 251,184 251,561 0,494 -99,671 -371,671l-134 0 0 -635c0,-709 -14,-674 254,-597l0 0z"/>
   <path class="fil0" d="M15333 21691l0 900 176 0 177 0 0 -388 0 -388 158 0c237,0 300,81 300,377 0,374 14,399 212,399l169 0 -14 -275c-25,-413 -46,-494 -130,-561l-82 -60 106 -92c141,-127 170,-416 57,-593 -110,-176 -251,-218 -724,-218l-405 0 0 899 0 0zm758 -564c106,102 113,226 21,338 -49,64 -102,82 -236,82l-173 3 -10 -208c-14,-279 0,-303 169,-303 106,0 166,24 229,88l0 0z"/>
   <path class="fil0" d="M16959 21645c-123,473 -233,879 -240,904 -14,35 25,42 170,35l190 -11 49 -222 50 -219 236 0 237 0 49 219 49 222 187 11c99,7 184,-4 184,-18 0,-17 -88,-363 -194,-769 -110,-409 -212,-801 -233,-875l-35 -130 -237 0 -240 0 -222 853 0 0zm547 -148l74 353 -176 0c-142,0 -170,-11 -152,-53 10,-32 49,-190 81,-353 35,-166 71,-300 81,-300 11,0 53,159 92,353z"/>
   <path class="fil0" d="M18310 21681l254 892 212 11 212 10 243 -857c131,-473 247,-878 258,-903 10,-32 -39,-42 -180,-42 -173,0 -194,10 -212,77 -152,678 -325,1337 -332,1281 -7,-39 -77,-360 -158,-716l-145 -642 -201 0 -201 0 250 889 0 0z"/>
   <path class="fil0" d="M24117 21533c0,716 3,740 71,740 67,0 70,-28 77,-628l11 -624 81 388c190,893 183,864 268,864 74,0 88,-38 212,-592 74,-325 137,-607 144,-625 7,-21 14,247 14,589l4 628 88 0 88 0 -7 -733 -10 -731 -124 0 -123 0 -141 596 -142 597 -45 -226c-29,-124 -89,-395 -138,-607l-88 -377 -120 0 -120 0 0 740 0 1z"/>
   <path class="fil0" d="M25458 21533l0 744 342 -11c296,-10 345,-21 356,-74 11,-53 -21,-60 -272,-60l-285 0 0 -282 0 -282 247 0c222,0 246,-7 246,-71 0,-63 -24,-70 -246,-70l-251 0 11 -240 10 -237 258 -10c226,-11 254,-18 254,-78 0,-63 -25,-70 -335,-70l-336 0 0 741 1 0z"/>
   <path class="fil0" d="M26339 21529l0 744 89 0c88,0 88,0 88,-335l0 -335 134 0c70,0 152,14 176,32 60,35 110,254 113,469 0,152 7,169 81,169 74,0 78,-10 67,-236 -10,-303 -28,-381 -98,-452 -53,-53 -53,-63 21,-141 120,-127 113,-416 -14,-543 -82,-81 -127,-92 -374,-102l-283 -14 0 744 0 0zm530 -526c42,43 70,117 70,194 0,170 -102,265 -282,265l-141 0 0 -265 0 -264 141 0c95,0 166,24 212,70l0 0z"/>
   <path class="fil0" d="M27352 20816c-14,11 -25,346 -25,741l0 716 88 0 89 0 0 -352 0 -357 240 11 236 10 3 336c7,314 11,335 82,345 74,11 74,7 74,-734 0,-740 0,-744 -74,-733 -71,10 -78,35 -82,310l-3 300 -236 11 -240 10 0 -321c0,-286 -7,-317 -64,-317 -35,0 -77,10 -88,24l0 0z"/>
   <path class="fil0" d="M28654 20852c-25,84 -339,1390 -339,1407 0,7 35,14 81,14 74,0 88,-24 127,-229l46 -229 201 0 201 0 46 229c42,205 56,229 131,229 45,0 84,-7 84,-17 0,-18 -310,-1299 -338,-1404 -15,-39 -53,-60 -120,-60 -67,0 -106,21 -120,60l0 0zm194 458c88,374 88,364 -74,364 -89,0 -141,-18 -141,-46 0,-81 119,-621 134,-607 7,7 45,138 81,289l0 0z"/>
   <path class="fil0" d="M29409 21536l0 744 285 -14c272,-10 290,-17 388,-127 85,-95 103,-144 103,-293 0,-148 -18,-194 -103,-278 -95,-99 -98,-106 -35,-162 88,-82 117,-237 67,-389 -53,-158 -197,-225 -494,-225l-211 0 0 744 0 0zm486 -547c57,39 78,88 78,187 0,170 -63,226 -257,230l-149 3 -10 -240 -11 -236 134 0c74,0 173,24 215,56zm57 646c53,53 70,116 70,215 -7,205 -91,282 -303,282l-169 0 0 -275c0,-152 10,-289 28,-303 46,-50 296,7 374,81l0 0z"/>
   <path class="fil0" d="M30661 20834c-32,85 -335,1351 -335,1393 0,25 32,46 70,46 67,0 82,-35 156,-363 21,-88 35,-95 215,-95l190 0 36 130c17,74 42,177 53,230 17,77 42,98 109,98 81,0 88,-10 63,-98 -342,-1373 -338,-1366 -444,-1376 -57,-7 -102,7 -113,35l0 0zm240 723l25 117 -159 0c-88,0 -159,-7 -159,-14 0,-11 35,-163 78,-346l74 -328 60 229c31,127 67,282 81,342l0 0z"/>
   <polygon class="fil0" points="22,21074 22,21286 322,21286 622,21286 622,22467 622,23649 869,23649 1116,23649 1116,22467 1116,21286 1416,21286 1716,21286 1716,21074 1716,20862 869,20862 22,20862 22,21074 "/>
   <polygon class="fil0" points="1998,22256 1998,23649 2262,23649 2527,23649 2527,22256 2527,20862 2262,20862 1998,20862 "/>
   <path class="fil0" d="M3021 22256l0 1393 720 0 716 0 24 -162c11,-92 22,-187 22,-212 0,-39 -103,-49 -494,-49l-494 0 0 -406 0 -406 441 0 441 0 0 -229 0 -229 -441 0 -441 0 0 -335 0 -335 458 0 459 0 0 -212 0 -212 -706 0 -705 0 0 1394 0 0z"/>
   <path class="fil0" d="M4820 22256l0 1393 233 0 229 0 -10 -1002c-7,-554 0,-984 10,-963 14,25 180,476 371,1002l342 963 278 0 276 0 0 -1393 0 -1394 -233 0 -233 0 14 953c4,525 11,952 7,952 0,0 -159,-427 -353,-952l-349 -953 -289 0 -293 0 0 1394z"/>
   <path class="fil0" d="M10412 21194l-1235 324 -11 336 -10 331 1210 314c666,173 1231,321 1256,332 35,10 42,-43 35,-244l-11 -261 -307 -67 -310 -67 0 -328 0 -328 279 -60c155,-32 299,-71 321,-85 24,-14 35,-120 28,-271l-11 -247 -1234 321 0 0zm229 674c0,127 -11,229 -25,225 -17,0 -257,-52 -536,-116l-508 -113 473 -109c649,-148 596,-159 596,113z"/>
   <path class="fil0" d="M33324 21060c-222,102 -472,215 -553,247l-145 56 -335 -233c-184,-127 -346,-232 -357,-232 -10,0 -21,84 -21,186l0 187 406 247 406 244 -406 10 -406 11 0 155 0 159 918 0 917 0 0 -159 0 -159 -307 0c-275,-3 -321,-14 -416,-88 -57,-46 -96,-91 -89,-99 11,-7 184,-81 388,-165 205,-85 385,-163 399,-177 18,-14 25,-102 18,-201l-11 -173 -406 184 0 0z"/>
   <polygon class="fil0" points="34630,22344 34630,22556 35935,22556 37240,22556 37240,22344 37240,22132 35935,22132 34630,22132 "/>
   <path class="fil0" d="M21506 22464c0,152 15,197 64,212 32,10 391,91 797,179 723,159 854,194 695,194 -85,0 -734,131 -1242,251l-314 74 0 205 0 204 963 -243c526,-134 995,-261 1041,-279 67,-28 78,-60 78,-226 0,-109 -18,-204 -43,-222 -38,-28 -1950,-540 -2017,-540 -11,0 -22,85 -22,191l0 0z"/>
   <path class="fil0" d="M33483 22305c-10,7 -17,155 -17,328l0 311 -777 0 -776 0 0 158 0 159 918 0 917 0 0 -473 0 -472 -124 -14c-70,-8 -134,-8 -141,3z"/>
   <path class="fil0" d="M35335 23011l0 208 311 70c169,39 451,99 624,134 304,60 462,120 318,120 -39,0 -335,57 -660,131l-593 130 0 244c0,211 7,240 60,222 32,-14 469,-145 974,-289 578,-170 945,-258 1002,-244 123,32 222,145 222,265 0,106 0,106 198,106l197 0 -14 -194c-21,-240 -102,-360 -314,-466 -134,-67 -2180,-645 -2286,-645 -25,0 -39,81 -39,208l0 0z"/>
   <polygon class="fil0" points="9159,23402 9159,23649 9653,23649 10147,23649 10147,24002 10147,24355 9653,24355 9159,24355 9159,24602 9159,24849 10412,24849 11664,24849 11664,24602 11664,24355 11099,24355 10535,24355 10535,24002 10535,23649 11099,23649 11664,23649 11664,23402 11664,23155 10412,23155 9159,23155 "/>
   <polygon class="fil0" points="12264,23349 12264,23508 13622,23508 14980,23508 14980,23349 14980,23191 13622,23191 12264,23191 "/>
   <path class="fil0" d="M15756 23254c-159,78 -264,279 -233,445 32,162 134,285 332,398 92,50 201,124 247,162 141,127 81,378 -92,378 -123,0 -173,-35 -215,-152 -32,-81 -57,-95 -184,-95 -144,0 -144,0 -119,113 35,169 112,275 246,332 357,148 738,-71 734,-420 -3,-226 -88,-360 -303,-480 -325,-184 -346,-208 -335,-349 10,-113 24,-131 109,-141 117,-15 201,45 201,137 0,57 28,67 155,67l156 0 -29 -123c-35,-159 -91,-230 -236,-290 -155,-63 -286,-56 -434,18z"/>
   <path class="fil0" d="M16800 23956c-91,402 -176,769 -187,811 -17,75 -7,82 127,82 127,0 145,-11 163,-99 67,-318 56,-307 254,-318l183 -10 42 211 43 216 151 0c145,0 156,-7 138,-82 -11,-42 -95,-402 -187,-800l-169 -724 -194 -10 -194 -11 -170 734 0 0zm420 -145c71,374 74,367 -74,367 -113,0 -127,-7 -109,-81 10,-42 39,-190 63,-331 25,-142 50,-251 57,-244 3,4 31,134 63,289z"/>
   <polygon class="fil0" points="17873,24037 17873,24852 18289,24842 18702,24831 18712,24715 18723,24602 18441,24602 18155,24602 18155,23914 18155,23226 18014,23226 17873,23226 "/>
   <path class="fil0" d="M18832 23910c11,632 18,695 85,787 152,208 575,243 766,67 134,-124 165,-300 165,-949l0 -589 -158 0 -159 0 0 645c0,582 -7,657 -64,706 -88,81 -194,74 -275,-14 -60,-67 -67,-145 -77,-706l-15 -631 -141 0 -141 0 14 684 0 0z"/>
   <polygon class="fil0" points="19989,23349 19989,23473 20166,23473 20342,23473 20342,24161 20342,24849 20483,24849 20624,24849 20624,24161 20624,23473 20801,23473 20977,23473 20977,23349 20977,23226 20483,23226 19989,23226 "/>
   <polygon class="fil0" points="33466,23843 33466,24178 33201,24178 32936,24178 32936,23861 32936,23543 32795,23543 32654,23543 32654,23861 32654,24178 32425,24178 32196,24178 32196,23861 32196,23543 32054,23543 31913,23543 31913,24020 31913,24496 32831,24496 33748,24496 33748,24002 33748,23508 33607,23508 33466,23508 "/>
   <path class="fil0" d="M22582 23917c-504,124 -952,233 -998,244 -78,17 -81,35 -71,275l11 254 988 236c543,131 1009,240 1033,240 32,0 43,-49 36,-187l-11 -183 -254 -50 -257 -53 0 -254 0 -254 257 -49 254 -46 0 -190c0,-106 -14,-194 -35,-201 -18,-4 -448,91 -953,218l0 0zm159 529c0,184 21,184 -511,75l-388 -82 423 -88c233,-49 434,-81 451,-74 15,7 25,81 25,169l0 0z"/>
   <path class="fil0" d="M14726 24362l-11 504 -518 11 -519 10 -10 -469 -11 -469 -113 -11 -113 -10 -10 469 -11 469 -430 11 -431 10 -10 -486 -11 -487 -130 -11 -134 -10 0 635 0 638 1358 0 1358 0 0 -631c0,-674 0,-674 -180,-674 -60,0 -67,35 -74,501l0 0z"/>
   <polygon class="fil0" points="34743,24679 34753,24902 35258,24912 35759,24923 35759,25201 35759,25480 35258,25491 34753,25501 34753,25713 34753,25925 35999,25935 37240,25942 37240,25713 37240,25484 36693,25484 36147,25484 36147,25201 36147,24919 36693,24919 37240,24919 37240,24690 37240,24461 35988,24461 34732,24461 34743,24679 "/>
   <path class="fil0" d="M31913 24866c0,184 -60,159 653,265 557,85 684,109 635,123 -18,7 -318,64 -660,127l-628 117 0 148c0,176 -63,152 720,300 332,63 586,120 564,127 -17,3 -261,42 -543,81 -822,116 -741,85 -741,286 0,116 14,173 46,173 21,0 431,-78 907,-173l864 -170 11 -176 10 -173 -617 -123c-360,-71 -593,-131 -557,-145 31,-11 289,-67 571,-120 282,-53 533,-102 557,-109 25,-11 43,-85 43,-184l0 -166 -872 -183c-483,-102 -896,-183 -917,-183 -32,0 -46,56 -46,158l0 0z"/>
   <path class="fil0" d="M10041 25304c-631,88 -917,370 -917,899 0,420 212,706 617,829 335,106 1006,106 1341,0 448,-137 642,-416 610,-889 -28,-434 -212,-663 -628,-779 -236,-64 -762,-96 -1023,-60l0 0zm1023 575c162,70 251,173 254,300 4,137 -60,247 -183,310 -155,81 -614,134 -939,109 -504,-35 -684,-141 -684,-395 0,-123 18,-166 106,-240 60,-49 166,-98 240,-109 70,-14 148,-28 165,-39 89,-35 925,18 1041,64l0 0z"/>
   <path class="fil0" d="M21753 25420c-204,138 -247,265 -247,762l0 431 1034 -8 1030 -10 0 -177 0 -176 -441 -18 -441 -17 11 -159c14,-243 70,-279 501,-310l370 -25 0 -176 0 -177 -370 11c-381,14 -575,67 -618,173 -17,45 -42,35 -141,-60 -109,-106 -151,-124 -345,-134 -184,-11 -237,0 -343,70l0 0zm561 402c50,64 74,145 74,247l0 155 -303 0 -307 0 18 -176c24,-233 102,-317 296,-317 120,0 166,17 222,91l0 0z"/>
   <polygon class="fil0" points="12264,25872 12264,26013 12839,26020 13410,26030 13410,26471 13410,26912 12835,26923 12260,26934 12271,27082 12281,27230 13622,27230 14962,27230 14973,27078 14984,26930 14327,26930 13671,26930 13682,26478 13692,26030 14338,26020 14980,26013 14980,25872 14980,25731 13622,25731 12264,25731 12264,25872 "/>
   <path class="fil0" d="M32139 26856c-166,99 -226,293 -226,709l0 353 918 0 917 0 0 -177 0 -176 -388 0 -388 0 0 -134c0,-233 53,-268 430,-289l328 -18 11 -166 10 -169 -275 21c-406,28 -476,42 -568,131 -77,70 -85,74 -116,14 -92,-163 -455,-219 -653,-99l0 0zm494 342c35,32 56,117 56,212l0 155 -246 0 -247 0 0 -155c0,-95 21,-180 56,-212 71,-74 310,-74 381,0z"/>
   <path class="fil0" d="M22230 26930c-261,32 -431,102 -551,233 -137,152 -173,300 -173,705l0 367 1041 0 1041 0 0 -240c0,-384 -57,-638 -170,-779 -187,-233 -666,-346 -1188,-286zm730 423c204,57 279,141 300,328l21 166 -730 0 -727 0 0 -137c0,-201 28,-251 190,-325 166,-74 720,-92 946,-32z"/>
   <path class="fil0" d="M11269 27727l-11 491 -1048 10 -1051 7 0 247 0 247 1253 0 1252 0 0 -723 0 -723 -85 0c-46,0 -130,-11 -190,-21l-110 -22 -10 487 0 0z"/>
   <path class="fil0" d="M33466 28465l0 335 -265 0 -265 0 0 -300 0 -300 -141 0 -141 0 0 300 0 300 -229 0 -229 0 0 -318 0 -317 -142 0 -144 0 10 483 11 487 910 10 907 8 0 -491c0,-529 0,-533 -198,-533 -84,0 -84,4 -84,336l0 0z"/>
   <path class="fil0" d="M23256 28472c-10,14 -21,201 -21,419l0 396 -730 -403c-572,-317 -759,-402 -865,-402l-134 0 0 600 0 600 159 0 155 0 11 -381 11 -381 740 419c614,343 762,413 865,406l123 -10 11 -611c7,-469 0,-610 -36,-621 -109,-35 -268,-53 -289,-31l0 0z"/>
   <path class="fil0" d="M11170 29138c-243,67 -790,212 -1217,325l-776 208 -11 332 -10 331 1210 314c666,173 1231,321 1256,332 35,10 42,-42 35,-244l-11 -261 -307 -67 -310 -70 0 -325c0,-356 -14,-335 247,-384 67,-14 183,-39 257,-57l131 -35 0 -261c0,-145 -11,-265 -25,-261 -17,0 -226,56 -469,123l0 0zm-529 879c0,127 -11,229 -25,226 -17,0 -257,-53 -540,-117l-508 -116 279 -64c155,-31 371,-81 476,-106 328,-77 318,-84 318,177z"/>
   <path class="fil0" d="M31913 29498l0 166 731 159c695,148 726,159 575,187 -89,14 -410,84 -713,148 -307,67 -564,123 -575,123 -11,0 -18,78 -18,177 0,113 14,176 43,176 38,0 536,-123 1457,-363l317 -81 0 -208 0 -205 -861 -222c-476,-124 -885,-226 -910,-226 -32,0 -46,53 -46,169l0 0z"/>
  </g>
 </g>
</svg>
