<?xml version="1.0" encoding="UTF-8"?>
<!DOCTYPE svg PUBLIC "-//W3C//DTD SVG 1.1//EN" "http://www.w3.org/Graphics/SVG/1.1/DTD/svg11.dtd">
<!-- Creator: CorelDRAW SE -->
<svg xmlns="http://www.w3.org/2000/svg" xml:space="preserve" width="72mm" height="62mm" version="1.1" style="shape-rendering:geometricPrecision; text-rendering:geometricPrecision; image-rendering:optimizeQuality; fill-rule:evenodd; clip-rule:evenodd"
viewBox="0 0 7200 6200"
 xmlns:xlink="http://www.w3.org/1999/xlink">
 <defs>
  <style type="text/css">
   <![CDATA[
    .fil1 {fill:#E31E24}
    .fil4 {fill:url(#id0)}
    .fil5 {fill:url(#id1)}
    .fil3 {fill:url(#id2)}
    .fil2 {fill:url(#id3)}
    .fil0 {fill:url(#id4);fill-rule:nonzero}
   ]]>
  </style>
  <linearGradient id="id0" gradientUnits="userSpaceOnUse" x1="527.54" y1="4682.61" x2="527.54" y2="244.18">
   <stop offset="0" style="stop-opacity:1; stop-color:#A36822"/>
   <stop offset="1" style="stop-opacity:1; stop-color:#EECA72"/>
  </linearGradient>
  <linearGradient id="id1" gradientUnits="userSpaceOnUse" x1="1271.34" y1="3528.3" x2="3055.52" y2="3473.29">
   <stop offset="0" style="stop-opacity:1; stop-color:#A8772B"/>
   <stop offset="0.231373" style="stop-opacity:1; stop-color:#AD7D30"/>
   <stop offset="1" style="stop-opacity:1; stop-color:#B28436"/>
  </linearGradient>
  <linearGradient id="id2" gradientUnits="userSpaceOnUse" x1="4131.17" y1="830.96" x2="8070.6" y2="728.64">
   <stop offset="0" style="stop-opacity:1; stop-color:#A4A5A7"/>
   <stop offset="0.341176" style="stop-opacity:1; stop-color:#9FA0A1"/>
   <stop offset="1" style="stop-opacity:1; stop-color:#999B9A"/>
  </linearGradient>
  <radialGradient id="id3" gradientUnits="userSpaceOnUse" gradientTransform="matrix(1.16006 -0.283079 0.477347 1.40429 -2503 -480)" cx="3918.18" cy="3930.38" r="3177.88" fx="3918.18" fy="3930.38">
   <stop offset="0" style="stop-opacity:1; stop-color:#86581A"/>
   <stop offset="1" style="stop-opacity:1; stop-color:#C49E57"/>
  </radialGradient>
  <linearGradient id="id4" gradientUnits="userSpaceOnUse" x1="1823.2" y1="5755.24" x2="5557.64" y2="5768.17">
   <stop offset="0" style="stop-opacity:1; stop-color:#FEFEFE"/>
   <stop offset="0.2" style="stop-opacity:1; stop-color:#D8D9D9"/>
   <stop offset="1" style="stop-opacity:1; stop-color:#B2B3B3"/>
  </linearGradient>
 </defs>
 <g id="Warstwa_x0020_1">
  <metadata id="CorelCorpID_0Corel-Layer"/>
  <path class="fil0" d="M1902 5754c0,24 -6,45 -17,64 -11,19 -26,34 -47,44 -20,10 -44,16 -72,16l-93 0 0 131 -78 0 0 -373 168 0c44,0 79,10 103,31 24,20 36,49 36,87zm-79 1c0,-39 -23,-58 -69,-58l-81 0 0 120 83 0c22,0 38,-5 50,-16 11,-10 17,-26 17,-46zm465 254l-87 -142 -91 0 0 142 -78 0 0 -373 186 0c45,0 79,9 103,29 24,19 36,46 36,82 0,26 -7,49 -22,68 -15,19 -35,31 -60,37l101 157 -88 0zm-9 -259c0,-36 -23,-53 -69,-53l-100 0 0 110 102 0c22,0 39,-5 50,-15 11,-10 17,-24 17,-42zm582 71c0,38 -7,73 -23,102 -15,30 -37,52 -66,68 -28,15 -62,23 -100,23 -58,0 -104,-17 -138,-52 -33,-34 -49,-81 -49,-141 0,-60 16,-107 49,-140 33,-34 80,-51 139,-51 59,0 105,17 138,51 34,34 50,81 50,140zm-79 0c0,-41 -10,-72 -29,-95 -19,-23 -46,-34 -80,-34 -35,0 -62,11 -81,34 -19,22 -29,54 -29,95 0,41 10,73 29,96 20,24 47,36 80,36 35,0 62,-12 81,-35 19,-22 29,-55 29,-97zm523 188l0 -226c0,-5 0,-11 0,-16 0,-5 1,-27 3,-66 -13,48 -22,81 -28,100l-67 208 -56 0 -67 -208 -28 -100c2,41 3,68 3,82l0 226 -70 0 0 -373 105 0 67 208 5 20 13 50 17 -59 68 -219 104 0 0 373 -69 0zm580 -188c0,38 -8,73 -23,102 -16,30 -37,52 -66,68 -29,15 -62,23 -100,23 -59,0 -105,-17 -138,-52 -33,-34 -50,-81 -50,-141 0,-60 17,-107 50,-140 33,-34 79,-51 138,-51 60,0 106,17 139,51 33,34 50,81 50,140zm-80 0c0,-41 -9,-72 -28,-95 -19,-23 -46,-34 -81,-34 -35,0 -62,11 -81,34 -19,22 -28,54 -28,95 0,41 10,73 29,96 20,24 46,36 80,36 35,0 62,-12 81,-35 19,-22 28,-55 28,-97zm617 132c20,0 40,-3 59,-9 19,-6 34,-14 44,-23l0 -52 -91 0 0 -57 163 0 0 137c-20,21 -46,36 -77,48 -32,11 -65,17 -100,17 -61,0 -107,-17 -140,-50 -33,-34 -49,-82 -49,-143 0,-62 16,-109 49,-142 33,-32 80,-49 142,-49 87,0 143,33 167,97l-72 22c-8,-19 -20,-33 -37,-43 -16,-9 -36,-14 -58,-14 -37,0 -65,11 -84,33 -19,22 -28,54 -28,96 0,42 9,74 29,97 20,23 47,35 83,35zm504 -97l0 153 -78 0 0 -153 -133 -220 82 0 89 158 91 -158 81 0 -132 220zm562 153l0 -226c0,-5 0,-11 0,-16 1,-5 1,-27 3,-66 -13,48 -22,81 -28,100l-67 208 -56 0 -67 -208 -28 -100c2,41 3,68 3,82l0 226 -69 0 0 -373 104 0 67 208 6 20 12 50 17 -59 69 -219 104 0 0 373 -70 0z"/>
  <g id="_836374984">
   <path class="fil1" d="M3034 3855c7,-3 14,-7 21,-10 -7,3 -14,7 -21,10z"/>
   <path class="fil1" d="M2991 3873c7,-3 15,-6 23,-10 -8,4 -16,7 -23,10z"/>
   <path class="fil1" d="M2949 3890c7,-3 14,-6 21,-9 -7,3 -14,6 -21,9z"/>
   <path class="fil1" d="M2905 3906c7,-3 13,-5 20,-7 -7,2 -13,4 -20,7z"/>
   <path class="fil1" d="M2860 3921c7,-2 13,-4 20,-7 -7,3 -13,5 -20,7z"/>
   <path class="fil1" d="M2817 3935c6,-2 12,-4 18,-6 -6,2 -12,4 -18,6z"/>
   <path class="fil1" d="M2218 3057c-8,0 -17,0 -25,0 8,0 17,0 25,0z"/>
   <path class="fil1" d="M2295 3052c-8,1 -17,2 -25,2 8,0 17,-1 25,-2z"/>
   <path class="fil1" d="M2319 3050c-8,0 -16,1 -24,2 8,-1 16,-2 24,-2z"/>
   <path class="fil1" d="M2343 3046c-7,1 -15,2 -22,3 7,-1 15,-2 22,-3z"/>
   <path class="fil1" d="M2368 3043c-7,1 -14,2 -21,3 7,-1 14,-2 21,-3z"/>
   <path class="fil1" d="M2392 3038c-7,2 -14,3 -21,4 7,-1 14,-2 21,-4z"/>
   <path class="fil1" d="M2416 3033c-6,2 -13,3 -20,5 7,-2 14,-3 20,-5z"/>
   <path class="fil1" d="M2439 3028c-6,2 -12,3 -18,4 6,-1 12,-2 18,-4z"/>
   <path class="fil1" d="M2462 3022c-5,2 -11,3 -16,5 5,-2 11,-3 16,-5z"/>
   <path class="fil1" d="M2486 3016c-5,1 -11,3 -16,4 5,-1 11,-3 16,-4z"/>
   <path class="fil1" d="M2509 3009c-5,2 -10,3 -16,5 6,-2 11,-3 16,-5z"/>
   <path class="fil1" d="M2531 3002c-5,1 -9,3 -14,4 5,-1 9,-3 14,-4z"/>
   <path class="fil1" d="M2598 2977l-12 4c4,-1 8,-3 12,-4z"/>
   <path class="fil1" d="M3350 3679c8,-6 17,-12 26,-18 -9,6 -18,12 -26,18z"/>
   <path class="fil1" d="M3322 3698c9,-6 17,-11 26,-17 -9,6 -17,11 -26,17z"/>
   <path class="fil1" d="M3294 3716c9,-5 17,-11 26,-16 -9,5 -17,11 -26,16z"/>
   <path class="fil1" d="M3265 3734c9,-5 18,-11 27,-16 -9,5 -18,11 -27,16z"/>
   <path class="fil1" d="M3207 3768c19,-11 38,-21 56,-33 -18,12 -37,22 -56,33z"/>
   <path class="fil1" d="M3178 3784c9,-4 17,-9 26,-14 -9,5 -17,10 -26,14z"/>
   <path class="fil1" d="M3149 3800c9,-5 17,-9 26,-14 -9,5 -17,9 -26,14z"/>
   <path class="fil1" d="M3119 3815c9,-4 17,-9 26,-13 -9,4 -17,9 -26,13z"/>
   <path class="fil1" d="M3088 3830c9,-4 18,-9 27,-13 -9,4 -18,9 -27,13z"/>
   <path class="fil2" d="M3818 3224c225,404 640,674 1114,674 468,0 878,-263 1106,-657l-675 0c-218,0 -396,-178 -396,-396l0 -435 1257 0 619 0 328 0c3,46 4,92 4,138 0,1272 -1010,2304 -2255,2304 -775,0 -1458,-399 -1864,-1007 10,-4 19,-9 29,-14 -10,5 -19,10 -29,14 -181,-269 -306,-580 -361,-915 297,-162 496,-464 496,-809 0,-517 -447,-936 -998,-936l-1163 0 0 -941 1226 0c1058,0 1916,845 1916,1886 0,630 -314,1188 -796,1531 171,-121 320,-269 442,-437z"/>
   <path class="fil3" d="M4920 244c983,0 1819,643 2128,1539l-1022 0c-230,-382 -634,-636 -1094,-636 -334,0 -639,134 -869,355 -108,-300 -290,-566 -526,-774 382,-303 862,-484 1383,-484zm-2225 2686c-20,-124 -31,-252 -31,-382 0,-385 93,-748 257,-1067 167,167 270,392 270,640 0,345 -199,647 -496,809z"/>
   <rect class="fil4" x="25" y="244" width="1005" height="4608"/>
   <path class="fil5" d="M2695 2930c-147,81 -319,127 -502,127 -12,0 -24,0 -36,-1l-1127 0 0 959 1157 0c23,1 46,2 69,2 286,0 556,-62 800,-172 -181,-269 -306,-580 -361,-915z"/>
  </g>
 </g>
</svg>
