<?xml version="1.0" encoding="UTF-8"?>
<!DOCTYPE svg PUBLIC "-//W3C//DTD SVG 1.1//EN" "http://www.w3.org/Graphics/SVG/1.1/DTD/svg11.dtd">
<!-- Creator: CorelDRAW SE -->
<svg xmlns="http://www.w3.org/2000/svg" xml:space="preserve" width="72mm" height="62mm" version="1.1" style="shape-rendering:geometricPrecision; text-rendering:geometricPrecision; image-rendering:optimizeQuality; fill-rule:evenodd; clip-rule:evenodd"
viewBox="0 0 7200 6200"
 xmlns:xlink="http://www.w3.org/1999/xlink">
 <defs>
  <style type="text/css">
   <![CDATA[
    .fil2 {fill:url(#id0)}
    .fil1 {fill:url(#id1)}
    .fil0 {fill:url(#id2);fill-rule:nonzero}
   ]]>
  </style>
  <linearGradient id="id0" gradientUnits="userSpaceOnUse" x1="7334.71" y1="2153.09" x2="2431.09" y2="2258.93">
   <stop offset="0" style="stop-opacity:1; stop-color:#B2B3B3"/>
   <stop offset="0.419608" style="stop-opacity:1; stop-color:#7C7B7A"/>
   <stop offset="1" style="stop-opacity:1; stop-color:#454341"/>
  </linearGradient>
  <linearGradient id="id1" gradientUnits="userSpaceOnUse" x1="267.88" y1="668.8" x2="2481.13" y2="3865.56">
   <stop offset="0" style="stop-opacity:1; stop-color:#EAC56C"/>
   <stop offset="0.4" style="stop-opacity:1; stop-color:#B98F44"/>
   <stop offset="1" style="stop-opacity:1; stop-color:#87591B"/>
  </linearGradient>
  <linearGradient id="id2" gradientUnits="userSpaceOnUse" x1="1823.2" y1="5755.24" x2="5557.64" y2="5768.17">
   <stop offset="0" style="stop-opacity:1; stop-color:#FEFEFE"/>
   <stop offset="0.2" style="stop-opacity:1; stop-color:#D8D9D9"/>
   <stop offset="1" style="stop-opacity:1; stop-color:#B2B3B3"/>
  </linearGradient>
 </defs>
 <g id="Warstwa_x0020_1">
  <metadata id="CorelCorpID_0Corel-Layer"/>
  <path class="fil0" d="M1902 5754c0,24 -6,45 -17,64 -11,19 -26,34 -47,44 -20,10 -44,16 -72,16l-93 0 0 131 -78 0 0 -373 168 0c44,0 79,10 103,31 24,20 36,49 36,87zm-79 1c0,-39 -23,-58 -69,-58l-81 0 0 120 83 0c22,0 38,-5 50,-16 11,-10 17,-26 17,-46zm465 254l-87 -142 -91 0 0 142 -78 0 0 -373 186 0c45,0 79,9 103,29 24,19 36,46 36,82 0,26 -7,49 -22,68 -15,19 -35,31 -60,37l101 157 -88 0zm-9 -259c0,-36 -23,-53 -69,-53l-100 0 0 110 102 0c22,0 39,-5 50,-15 11,-10 17,-24 17,-42zm582 71c0,38 -7,73 -23,102 -15,30 -37,52 -66,68 -28,15 -62,23 -100,23 -58,0 -104,-17 -138,-52 -33,-34 -49,-81 -49,-141 0,-60 16,-107 49,-140 33,-34 80,-51 139,-51 59,0 105,17 138,51 34,34 50,81 50,140zm-79 0c0,-41 -10,-72 -29,-95 -19,-23 -46,-34 -80,-34 -35,0 -62,11 -81,34 -19,22 -29,54 -29,95 0,41 10,73 29,96 20,24 47,36 80,36 35,0 62,-12 81,-35 19,-22 29,-55 29,-97zm523 188l0 -226c0,-5 0,-11 0,-16 0,-5 1,-27 3,-66 -13,48 -22,81 -28,100l-67 208 -56 0 -67 -208 -28 -100c2,41 3,68 3,82l0 226 -70 0 0 -373 105 0 67 208 5 20 13 50 17 -59 68 -219 104 0 0 373 -69 0zm580 -188c0,38 -8,73 -23,102 -16,30 -37,52 -66,68 -29,15 -62,23 -100,23 -59,0 -105,-17 -138,-52 -33,-34 -50,-81 -50,-141 0,-60 17,-107 50,-140 33,-34 79,-51 138,-51 60,0 106,17 139,51 33,34 50,81 50,140zm-80 0c0,-41 -9,-72 -28,-95 -19,-23 -46,-34 -81,-34 -35,0 -62,11 -81,34 -19,22 -28,54 -28,95 0,41 10,73 29,96 20,24 46,36 80,36 35,0 62,-12 81,-35 19,-22 28,-55 28,-97zm617 132c20,0 40,-3 59,-9 19,-6 34,-14 44,-23l0 -52 -91 0 0 -57 163 0 0 137c-20,21 -46,36 -77,48 -32,11 -65,17 -100,17 -61,0 -107,-17 -140,-50 -33,-34 -49,-82 -49,-143 0,-62 16,-109 49,-142 33,-32 80,-49 142,-49 87,0 143,33 167,97l-72 22c-8,-19 -20,-33 -37,-43 -16,-9 -36,-14 -58,-14 -37,0 -65,11 -84,33 -19,22 -28,54 -28,96 0,42 9,74 29,97 20,23 47,35 83,35zm504 -97l0 153 -78 0 0 -153 -133 -220 82 0 89 158 91 -158 81 0 -132 220zm562 153l0 -226c0,-5 0,-11 0,-16 1,-5 1,-27 3,-66 -13,48 -22,81 -28,100l-67 208 -56 0 -67 -208 -28 -100c2,41 3,68 3,82l0 226 -69 0 0 -373 104 0 67 208 6 20 12 50 17 -59 69 -219 104 0 0 373 -70 0z"/>
  <g id="_836376736">
   <path class="fil1" d="M1065 1311c1,-121 4,-98 123,-98l610 -1c730,0 1569,-103 1569,835 0,698 -443,822 -1027,823l-813 -1c-519,1 -461,30 -462,-178l0 -1380zm-996 3860l998 1c-7,-257 -1,-523 0,-779 0,-130 -1,-260 -1,-390 1,-165 44,-136 258,-136 259,-1 519,1 779,0 256,-1 503,7 755,-30 605,-91 1117,-433 1355,-992 245,-575 183,-1421 -164,-1888 -231,-310 -545,-527 -936,-630 -479,-127 -970,-96 -1476,-95 -523,1 -1048,-5 -1571,0l3 4939z"/>
   <path class="fil2" d="M3957 3394c-165,127 -116,139 -402,301 -205,116 -468,176 -504,198 27,104 104,274 154,363 86,152 159,247 278,365 172,170 300,264 543,372 488,216 1309,247 1822,140 518,-109 1002,-359 1209,-866 107,-262 70,-664 70,-966l-8 -1040 -2243 -2c-8,117 -1,261 0,381 2,229 50,413 248,536 168,104 473,77 696,77 65,-1 129,-1 194,0 168,2 131,-37 131,454 -1,119 6,177 -117,276 -145,118 -326,184 -562,208 -374,39 -831,33 -1153,-180 -20,-14 -35,-22 -55,-38 -19,-16 -32,-33 -51,-51 -230,-215 -217,-484 -250,-528zm-161 -2829c22,31 205,167 334,353 85,123 204,324 223,472 61,-17 145,-79 228,-107 350,-118 1074,-114 1384,120 146,109 211,223 281,387 120,-52 794,-428 839,-441 -36,-138 -188,-364 -275,-470 -14,-17 -23,-23 -36,-40 -117,-153 -374,-332 -551,-414 -466,-214 -1042,-238 -1555,-173 -218,27 -495,103 -685,205 -68,36 -129,80 -187,108z"/>
  </g>
 </g>
</svg>
