<?xml version="1.0" encoding="UTF-8"?>
<!DOCTYPE svg PUBLIC "-//W3C//DTD SVG 1.1//EN" "http://www.w3.org/Graphics/SVG/1.1/DTD/svg11.dtd">
<!-- Creator: CorelDRAW SE -->
<svg xmlns="http://www.w3.org/2000/svg" xml:space="preserve" width="167mm" height="190mm" version="1.1" style="shape-rendering:geometricPrecision; text-rendering:geometricPrecision; image-rendering:optimizeQuality; fill-rule:evenodd; clip-rule:evenodd"
viewBox="0 0 16700 19000"
 xmlns:xlink="http://www.w3.org/1999/xlink">
 <defs>
  <style type="text/css">
   <![CDATA[
    .fil0 {fill:url(#id0);fill-rule:nonzero}
   ]]>
  </style>
  <linearGradient id="id0" gradientUnits="userSpaceOnUse" x1="-3448.25" y1="21163" x2="14699.7" y2="7888.26">
   <stop offset="0" style="stop-opacity:1; stop-color:#00A0E3"/>
   <stop offset="0.639216" style="stop-opacity:1; stop-color:#0078AD"/>
   <stop offset="1" style="stop-opacity:1; stop-color:#005077"/>
  </linearGradient>
 </defs>
 <g id="Warstwa_x0020_1">
  <metadata id="CorelCorpID_0Corel-Layer"/>
  <path class="fil0" d="M3353 9002l6235 -3600c257,-149 551,-149 808,0l5884 3399c256,148 403,403 403,699 0,296 -147,551 -404,699l-403 233 0 0 -482 278 -14166 8179c-257,148 -551,148 -807,0 -257,-148 -404,-403 -404,-699l0 -1429 1720 -994 0 849 12330 -7118 -4204 -2427 -4443 2566 3807 2194 -1693 977 -4180 -2408c-257,-148 -404,-403 -404,-699 -1,-297 146,-551 403,-699zm12523 1430l-4 1 0 0 -4 1 0 0 -3 1 0 0 -4 1 0 0 -4 1 0 0 -4 1 0 0 -3 1 0 0 -4 1 -4 0 0 0 -4 1 0 0 -4 1 0 0 -3 0 0 0 -4 1 0 0 -4 0 0 0 -4 1 0 0 -4 0 0 0 -3 1 0 0 -4 0 0 0 -4 0 -4 0 0 0 -4 0 0 0 -3 1 0 0 -4 0 -4 0 0 0 -4 0 0 0 -4 -1 -4 0 -3 0 0 0 -4 0 0 0 -4 0 0 0 -4 -1 0 0 -4 0 -3 -1 -4 0 0 0 -4 -1 0 0 -4 0 -4 -1 -3 -1 0 0 -4 0 -4 -1 0 0 -4 -1 0 0 -4 -1 -3 -1 -4 -1 -4 -1 -4 -1 0 0 -3 -1 -4 -2 -4 -1 -3 -1 -4 -2 0 0 -4 -1 -4 -1 -3 -2 -4 -2 -4 -1 -3 -2 -4 -2 -3 -1 -4 -2 -4 -2 -3 -2 -4 -2 -3 -2 -1569 -906m-12330 5808l-1720 993 0 -15489c0,-296 147,-551 404,-699 256,-148 550,-148 807,0l7156 4132c257,148 404,403 404,699 0,296 -147,551 -404,699l-6247 3607 0 -1856 4136 -2390 -4536 -2622 0 12926z"/>
 </g>
</svg>
