<?xml version="1.0" encoding="UTF-8"?>
<!DOCTYPE svg PUBLIC "-//W3C//DTD SVG 1.1//EN" "http://www.w3.org/Graphics/SVG/1.1/DTD/svg11.dtd">
<!-- Creator: CorelDRAW SE -->
<svg xmlns="http://www.w3.org/2000/svg" xml:space="preserve" width="200mm" height="200mm" version="1.1" style="shape-rendering:geometricPrecision; text-rendering:geometricPrecision; image-rendering:optimizeQuality; fill-rule:evenodd; clip-rule:evenodd"
viewBox="0 0 20000 20000"
 xmlns:xlink="http://www.w3.org/1999/xlink">
 <defs>
  <style type="text/css">
   <![CDATA[
    .fil3 {fill:none;fill-rule:nonzero}
    .fil1 {fill:#2B2A29;fill-rule:nonzero}
    .fil2 {fill:url(#id1);fill-rule:nonzero}
    .fil4 {fill:url(#id2);fill-rule:nonzero}
    .fil0 {fill:url(#id3);fill-rule:nonzero}
   ]]>
  </style>
    <clipPath id="id0" style="clip-rule:nonzero">
     <path d="M10060 556c2592,0 4937,1051 6635,2749 1699,1698 2749,4043 2749,6635 0,2591 -1050,4937 -2749,6635 -1698,1698 -4043,2748 -6635,2748 -2591,0 -4936,-1050 -6635,-2748 -1698,-1698 -2748,-4044 -2748,-6635 0,-2592 1050,-4937 2748,-6635 1699,-1699 4044,-2749 6635,-2749zm6470 2914c-1656,-1656 -3943,-2680 -6470,-2680 -2526,0 -4813,1024 -6469,2680 -1656,1656 -2680,3943 -2680,6470 0,2526 1024,4813 2680,6469 1656,1656 3943,2680 6469,2680 2527,0 4814,-1024 6470,-2680 1656,-1656 2680,-3943 2680,-6469 0,-2527 -1024,-4814 -2680,-6470z"/>
    </clipPath>
  <linearGradient id="id1" gradientUnits="userSpaceOnUse" x1="17212.1" y1="21932.8" x2="-225.03" y2="-7309.26">
   <stop offset="0" style="stop-opacity:1; stop-color:#F6F6F6"/>
   <stop offset="0.0313725" style="stop-opacity:1; stop-color:#F6F6F6"/>
   <stop offset="0.258824" style="stop-opacity:1; stop-color:#757575"/>
   <stop offset="0.341176" style="stop-opacity:1; stop-color:#757575"/>
   <stop offset="0.509804" style="stop-opacity:1; stop-color:#5D5D5D"/>
   <stop offset="0.619608" style="stop-opacity:1; stop-color:#5D5D5D"/>
   <stop offset="0.870588" style="stop-opacity:1; stop-color:#8C8C8C"/>
   <stop offset="0.921569" style="stop-opacity:1; stop-color:#8C8C8C"/>
   <stop offset="1" style="stop-opacity:1; stop-color:#606060"/>
  </linearGradient>
  <linearGradient id="id2" gradientUnits="userSpaceOnUse" x1="4169.37" y1="17292.3" x2="16003.3" y2="8636.17">
   <stop offset="0" style="stop-opacity:1; stop-color:#00A0E3"/>
   <stop offset="0.639216" style="stop-opacity:1; stop-color:#0078AD"/>
   <stop offset="1" style="stop-opacity:1; stop-color:#005077"/>
  </linearGradient>
  <linearGradient id="id3" gradientUnits="userSpaceOnUse" x1="-1481.61" y1="-1602.51" x2="20616.3" y2="20495.4">
   <stop offset="0" style="stop-opacity:1; stop-color:#F6F6F6"/>
   <stop offset="0.129412" style="stop-opacity:1; stop-color:#606060"/>
   <stop offset="0.219608" style="stop-opacity:0.517647; stop-color:#606060"/>
   <stop offset="0.309804" style="stop-opacity:1; stop-color:#606060"/>
   <stop offset="0.360784" style="stop-opacity:1; stop-color:#C8C8C8"/>
   <stop offset="0.490196" style="stop-opacity:0.619608; stop-color:#606060"/>
   <stop offset="0.580392" style="stop-opacity:1; stop-color:#606060"/>
   <stop offset="0.701961" style="stop-opacity:1; stop-color:#C8C8C8"/>
   <stop offset="0.709804" style="stop-opacity:1; stop-color:#C8C8C8"/>
   <stop offset="0.870588" style="stop-opacity:0.858824; stop-color:#606060"/>
   <stop offset="0.921569" style="stop-opacity:1; stop-color:#606060"/>
   <stop offset="1" style="stop-opacity:1; stop-color:#C8C8C8"/>
  </linearGradient>
 </defs>
 <g id="Warstwa_x0020_1">
  <metadata id="CorelCorpID_0Corel-Layer"/>
  <g id="_741562976">
   <path class="fil0" d="M10060 66c-5444,0 -9873,4429 -9873,9874 0,5444 4429,9873 9873,9873 5445,0 9874,-4429 9874,-9873 0,-5445 -4429,-9874 -9874,-9874zm0 19198l0 0c-5149,0 -9324,-4175 -9324,-9324 0,-5150 4175,-9325 9324,-9325 5150,0 9325,4175 9325,9325 0,5149 -4175,9324 -9325,9324z"/>
   <path class="fil1" d="M10060 556c2592,0 4937,1051 6635,2749 1699,1698 2749,4043 2749,6635 0,2591 -1050,4937 -2749,6635 -1698,1698 -4043,2748 -6635,2748 -2591,0 -4936,-1050 -6635,-2748 -1698,-1698 -2748,-4044 -2748,-6635 0,-2592 1050,-4937 2748,-6635 1699,-1699 4044,-2749 6635,-2749zm6470 2914c-1656,-1656 -3943,-2680 -6470,-2680 -2526,0 -4813,1024 -6469,2680 -1656,1656 -2680,3943 -2680,6470 0,2526 1024,4813 2680,6469 1656,1656 3943,2680 6469,2680 2527,0 4814,-1024 6470,-2680 1656,-1656 2680,-3943 2680,-6469 0,-2527 -1024,-4814 -2680,-6470z"/>
   <g style="clip-path:url(#id0)">
    <g>
     <path id="1" class="fil2" d="M10060 19375c-5202,0 -9435,-4233 -9435,-9435 0,-5203 4233,-9436 9435,-9436 5203,0 9436,4233 9436,9436 0,5202 -4233,9435 -9436,9435zm9270 -9435l0 0c0,5111 -4158,9269 -9269,9269 -959,0 -1884,-146 -2754,-417 -72,-23 -145,-46 -216,-71l0 0c-144,-48 -286,-101 -426,-156 -70,-28 -140,-56 -209,-85l0 -1c-69,-29 -138,-59 -207,-90l0 0c-68,-31 -136,-63 -204,-95l0 0c-67,-33 -134,-66 -201,-100l0 -1c-66,-34 -133,-69 -198,-104l0 0c-66,-36 -131,-73 -196,-110l0 0c-65,-37 -129,-75 -192,-114l0 0c-64,-39 -127,-78 -190,-118l0 0c-63,-41 -125,-81 -187,-123l0 0c-61,-42 -122,-84 -183,-127l0 0c-61,-43 -121,-87 -180,-132l0 0c-60,-44 -119,-90 -177,-135l0 -1c-58,-45 -116,-92 -173,-139l0 0c-58,-48 -114,-95 -170,-144 -1963,-1701 -3207,-4211 -3207,-7006 0,-5112 4158,-9270 9269,-9270l0 0c959,0 1884,146 2754,418 72,22 145,46 216,70l0 0c144,49 286,101 426,156 70,28 140,56 209,86l0 0c69,29 138,59 207,90l0 0c68,31 136,63 204,95l0 1c67,32 134,65 201,100l0 0c66,34 133,69 198,104l0 1c66,35 131,72 196,109l0 0c65,37 129,75 192,114l0 0c64,39 127,78 190,118l0 0c63,41 125,82 187,123l0 0c61,42 122,84 183,127l0 1c61,43 121,86 180,131l0 0c60,45 119,90 177,136l0 0c58,46 116,92 173,139l0 0c58,48 114,96 170,144 1963,1701 3207,4211 3207,7007z"/>
    </g>
   </g>
   <path class="fil3" d="M10060 556c2592,0 4937,1051 6635,2749 1699,1698 2749,4043 2749,6635 0,2591 -1050,4937 -2749,6635 -1698,1698 -4043,2748 -6635,2748 -2591,0 -4936,-1050 -6635,-2748 -1698,-1698 -2748,-4044 -2748,-6635 0,-2592 1050,-4937 2748,-6635 1699,-1699 4044,-2749 6635,-2749zm6470 2914c-1656,-1656 -3943,-2680 -6470,-2680 -2526,0 -4813,1024 -6469,2680 -1656,1656 -2680,3943 -2680,6470 0,2526 1024,4813 2680,6469 1656,1656 3943,2680 6469,2680 2527,0 4814,-1024 6470,-2680 1656,-1656 2680,-3943 2680,-6469 0,-2527 -1024,-4814 -2680,-6470z"/>
   <path class="fil4" d="M8604 9362l4066 -2347c168,-97 359,-97 527,0l3836 2216c168,97 264,263 264,456 -1,193 -96,359 -264,456l-263 152 0 0 -314 181 -9238 5333c-167,97 -359,97 -526,0 -167,-96 -263,-262 -263,-455l0 -932 1122 -648 0 554 8040 -4642 -2741 -1583 -2898 1673 2483 1431 -1105 637 -2725 -1570c-168,-97 -264,-263 -264,-456 0,-193 96,-359 263,-456zm8166 933l-2 0 0 0 -3 1 0 0 -2 1 0 0 -3 1 0 0 -2 0 0 0 -2 1 0 0 -3 0 0 0 -2 1 -3 0 0 0 -2 1 0 0 -3 0 0 0 -2 1 0 0 -3 0 0 0 -2 0 0 0 -3 1 0 0 -2 0 0 0 -3 0 0 0 -2 0 0 0 -3 0 -2 1 0 0 -3 0 0 0 -2 0 0 0 -3 0 -2 0 0 0 -3 0 0 0 -2 0 -3 0 -2 -1 0 0 -3 0 0 0 -2 0 0 0 -3 0 0 0 -2 0 -2 -1 -3 0 0 0 -2 0 0 0 -3 -1 -2 0 -3 -1 0 0 -2 0 -3 -1 0 0 -2 0 0 0 -3 -1 -2 -1 -3 0 -2 -1 -2 -1 0 0 -3 0 -2 -1 -3 -1 -2 -1 -3 -1 0 0 -2 -1 -2 -1 -3 -1 -2 -1 -3 -1 -2 -1 -2 -1 -3 -1 -2 -1 -2 -2 -3 -1 -2 -1 -2 -1 -1023 -591m-8040 3787l-1122 648 0 -10100c0,-194 96,-360 263,-456 167,-97 359,-97 526,0l4667 2694c167,97 263,263 263,456 0,193 -96,359 -263,456l-4074 2352 0 -1210 2698 -1559 -2958 -1710 0 8429z"/>
  </g>
 </g>
</svg>
