<?xml version="1.0" encoding="UTF-8"?>
<!DOCTYPE svg PUBLIC "-//W3C//DTD SVG 1.1//EN" "http://www.w3.org/Graphics/SVG/1.1/DTD/svg11.dtd">
<!-- Creator: CorelDRAW SE -->
<svg xmlns="http://www.w3.org/2000/svg" xml:space="preserve" width="185mm" height="159mm" version="1.1" style="shape-rendering:geometricPrecision; text-rendering:geometricPrecision; image-rendering:optimizeQuality; fill-rule:evenodd; clip-rule:evenodd"
viewBox="0 0 18500 15900"
 xmlns:xlink="http://www.w3.org/1999/xlink">
 <defs>
  <style type="text/css">
   <![CDATA[
    .fil0 {fill:#FEFEFE}
   ]]>
  </style>
 </defs>
 <g id="Warstwa_x0020_1">
  <metadata id="CorelCorpID_0Corel-Layer"/>
  <g id="_298603224">
   <path class="fil0" d="M930 8947l-15 -16c-64,285 -300,1847 -406,1999 -24,-797 374,-1944 422,-2747l-30 -23c-20,223 -295,1698 -375,1904 -54,-435 291,-1415 240,-1787 -87,109 -199,962 -207,1073l-69 198 32 -604c-46,-501 419,-1623 385,-2116l-83 205c-17,70 -29,154 -58,219 7,-174 133,-841 211,-954l-84 528c116,-29 91,-585 90,-645l-425 1613c109,-183 110,-346 208,-542l-258 1265c-32,-285 -2,-621 -3,-912 -2,-663 500,-1699 578,-2289 86,150 -68,68 -31,703 77,1304 -331,1822 -286,2258l241 -1099c36,-89 -6,-23 54,-92l-2 2246c-24,154 -59,96 -65,257l15 22c13,-170 -8,-31 53,-88 35,1054 25,646 -167,1488 -72,313 -263,1058 -264,1352l28 41 403 -1715c35,416 -135,528 -118,830 5,-7 11,-27 13,-22l95 -263c65,170 -144,607 -109,844l117 -374 16 1276c226,110 42,-95 342,70 179,98 209,172 336,263 117,85 257,154 371,230 121,79 251,192 374,211 76,-5 111,15 194,39l-92 -91c-72,-96 -572,-374 -726,-474 -604,-391 -612,-261 -665,-596 -91,-569 -66,-4095 -66,-4955 0,-438 -29,-1478 19,-1871 33,-262 23,-321 -7,-564 -58,14 -148,70 -122,-27 11,-148 -6,-51 41,-87 54,-48 55,-13 15,-49l-113 -10c-60,-7 -44,-17 -29,45l7 2 58 34 -72 33c158,177 -82,681 -140,907 -63,248 -154,703 -282,887 -15,-543 126,-1298 318,-1834l179 -216 47 8 48 -44c84,-137 194,-164 335,-309 65,-63 37,-22 64,-84 44,-57 12,-26 62,-69 3,-3 61,-39 67,-43 90,-68 39,-13 84,-93l33 0c72,-51 96,-67 159,-127 66,-64 65,-86 83,-103 61,-57 271,-128 366,-152l62 -42 25 -6 50 -4c135,-46 322,-131 482,-203l59 9c1,2 7,19 8,14 0,-4 5,10 4,10l46 -32c99,-112 306,-186 488,-247l49 -26 26 2 58 -39 -25 68c-65,-18 -55,-30 -35,34 50,0 41,13 35,-34l9 -11 89 -65 106 -32c-45,80 -35,45 -68,64l9 46c-55,-8 -44,-21 -39,32 -51,-4 -39,-16 -37,35 -51,-6 -39,-17 -34,35 -54,-6 -40,-18 -41,35l-38 0c-88,66 -33,23 -57,72 -61,-9 -54,-25 -39,31 -63,-10 -57,-28 -42,30l-31 2c-114,122 -35,26 -73,117l11 -12c28,-31 70,-81 93,-107 57,13 46,26 42,-30 57,14 46,26 39,-31l42 1 53 -73c60,4 51,20 41,-35 57,9 47,21 34,-35 61,11 51,25 37,-35 61,13 51,27 39,-32l126 -85c44,-32 62,-50 99,-78 142,-108 592,-312 748,-356 -68,94 13,10 -93,94 -24,34 4,26 -79,67 -59,53 -32,31 -106,67 -31,53 46,18 -88,66l-67 80c-39,43 -10,19 -61,60 -6,5 -52,31 -65,39 -68,55 -41,22 -76,81 -41,51 -9,23 -61,65 -8,7 -36,23 -45,29 -47,31 -50,25 -105,69 -111,104 -252,150 -278,316 81,-48 247,-197 300,-278 40,-57 3,-22 55,-67 8,-7 35,-23 44,-29 43,-29 52,-25 108,-67l86 -78c40,-52 3,-17 56,-62 3,-2 60,-32 69,-37l104 -71c28,-63 -40,-22 74,-74l97 -72c31,-51 -35,-13 79,-73 145,-160 365,-257 650,-353l137 -74c-7,8 -15,19 -20,25l-69 88 -48 -2c-90,86 -108,92 -209,169 -97,73 -88,76 -201,150 -29,38 30,14 -84,66l-38 42c-3,3 -66,59 -66,59 -4,4 -15,26 -18,20 -3,-5 -11,14 -17,20l-35 -2 -20 38 -15 7c0,1 -65,61 -67,62 -4,5 -16,26 -20,20 -3,-6 -12,13 -18,19l-35 -4c-66,46 -91,71 -159,112 -41,57 48,16 -89,65l-108 64c-27,68 47,14 -68,77 -33,40 -16,23 -53,51 -37,28 -59,13 -53,30l46 7 58 -21c81,-87 22,-39 126,-96l97 -71c42,-59 -54,-11 90,-66l131 -130c3,-10 12,-11 17,-18l29 -2c42,-40 58,-59 91,-106l33 2c47,-4 39,8 22,-38l22 -2c48,-48 -24,-12 88,-69l69 -37c5,-7 13,-16 16,-19 4,-4 16,-14 20,-17 96,-80 -75,29 50,-27l416 -353 43 6 34 -41c408,-320 195,-74 442,-219 135,-80 314,-168 464,-228 -147,137 -427,275 -612,448 -64,65 66,12 -95,62 -72,45 -149,117 -219,170 -57,44 -97,69 -179,155 -55,60 58,18 -95,63l-49 43 -131 133c-75,-24 -52,-29 -34,52 74,0 61,16 34,-52l40 6c36,-54 -43,-23 83,-63l95 -75c34,-47 -23,-20 79,-71 51,-38 71,-58 114,-95 41,-34 32,-28 97,-77 74,-57 131,-98 195,-148 37,-44 -16,-25 86,-69 84,-54 88,-81 172,-140 64,-45 111,-66 174,-111 142,-104 212,-159 362,-240l41 -38 22 -6c70,-59 31,-29 75,5l-36 -5 -81 110 -32 4c-61,39 -68,39 -121,83l-85 89 -45 -8c4,55 17,40 -39,45l-132 93 -46 50 -17 30 -44 -4 -36 44c-79,65 -36,18 -68,75l-104 103 -35 -3 -38 42c-94,89 -112,73 -147,167l84 -56c5,-7 -74,8 73,-84l63 -66 24 1 71 -83c61,-31 54,-22 111,-63 4,-7 39,-65 46,-73l54 3 -5 -8 39 -40 105 -67c13,-14 29,-34 51,-59 3,-4 15,-8 17,-20 3,-11 12,-13 18,-19l36 0c92,-68 135,-95 202,-176l37 -5c27,-33 58,-73 80,-100l43 0c131,-91 228,-145 419,-180 -6,8 -14,17 -17,22 -4,4 -13,15 -18,21 -4,5 -12,14 -17,20l-308 222c-29,37 -4,29 -90,64 -69,60 -66,56 -146,120 -28,37 21,17 -81,66l-99 71 -138 94 11 20c-35,51 -26,45 -93,78 26,71 -63,68 72,32 51,-146 55,-116 185,-193l99 -66c29,-39 -13,-27 102,-66 71,-83 33,-49 131,-116 44,-67 -48,-10 84,-74 102,-80 140,-98 261,-195 277,-220 -77,-65 115,-151l76 -39c530,-189 1173,-475 1655,-617 -101,116 -350,191 -417,309 -58,72 57,27 -97,72 -61,29 -226,163 -273,207l-87 113 28 -9c33,-40 -11,-28 88,-66 90,-119 158,-136 272,-214l32 -42c87,-39 67,-34 132,-80 300,-214 445,-359 810,-484l68 -49 34 14c0,-62 -12,-41 59,-33l28 6c8,-4 18,-15 22,-16l-66 79 1 9c-70,70 85,27 -109,58 -189,136 -416,280 -577,406 -136,107 -502,343 -543,430 129,22 52,26 130,-8 88,-98 149,-122 255,-194 98,-66 157,-131 256,-200 175,-122 351,-264 520,-391 -2,-59 -17,-47 38,-44l38 -34c44,-43 -5,-28 105,-74 124,-43 189,-135 354,-170l-130 123c-59,42 -88,61 -144,94 -35,37 -25,35 -98,65 -177,174 -424,317 -514,432 184,-77 363,-270 560,-395 30,-37 1,-28 91,-73 76,-62 107,-82 197,-146 174,-125 49,-95 77,-139l67 49 -10 -51 17 -31 86 -30c-110,51 -36,13 -50,70l-5 -5 58 -51 105 -18 43 -32 49 -2c6,-3 13,-11 15,-11l57 17c-27,28 -83,28 -83,28l-30 43c-2,-7 -6,18 -13,24 184,-73 -71,79 113,-16 65,-86 216,-163 314,-213l76 -60c-51,109 5,50 -90,79l-311 198c20,73 39,62 -32,50l-24 15 -34 15 -95 72 -15 14 -33 25c11,61 23,48 -38,37 10,59 22,46 -38,37l-92 69c-31,35 -14,24 -58,60 -33,27 -35,21 -76,44l-24 4c-5,11 -9,37 -31,62l-20 9 -46 74c-52,-6 -41,-18 -33,34l36 -4 -3 -30 22 -6 44 -77 40 1 64 -29 26 -42 121 -59c26,-27 0,-12 55,-53 59,-43 1,-2 83,-44l-9 -16c33,-30 -11,-4 61,-50 66,-42 -4,0 88,-40l-12 -17c34,-30 -10,-5 62,-51 58,-37 9,-5 84,-39l318 -258c58,-92 71,-6 6,-104l82 37c134,-86 245,-151 418,-195l-161 107c7,7 17,32 18,23 1,-8 19,10 26,17 87,-117 346,-312 615,-337 71,-56 108,-53 211,-71 -18,-55 -25,-38 36,-38l258 82 -430 343 -116 88c-63,63 81,34 -80,56 70,-144 141,-170 235,-274 69,-76 26,-22 57,-89 70,25 53,32 30,-39 -60,0 -54,-15 -30,39l-33 -3 -293 283c-106,87 -87,78 -123,188l-111 16 -233 72 161 -124c46,-76 47,-66 123,-97l-21 -25c48,-64 -2,-21 80,-86 46,-36 7,-3 66,-41 65,-42 82,-55 157,-98l83 -95c38,-33 -11,-31 102,-58l94 -13 0 -78 -195 96c-80,45 -42,9 -82,68l-124 111c-203,135 -29,111 -342,261 -266,278 -236,256 -638,440 0,54 11,36 -51,32l-31 -29c43,-72 14,-42 81,-100 31,-26 68,-46 107,-74 71,-74 116,-123 189,-194 215,-212 240,-118 156,-196 -59,70 -100,94 -168,152 -75,65 -94,66 -121,130 -45,58 -11,25 -60,71l-124 90c-50,40 -48,42 -88,89l-76 91 -570 268c0,66 16,53 -48,38l-24 -17 -109 68c-153,33 -32,26 -71,-27l-276 100c141,-77 44,-47 218,-171 78,-55 145,-104 222,-155 29,-31 17,-24 60,-56 3,-3 72,-40 76,-43l27 -6 18 -28c0,-61 -14,-46 48,-36l45 -26c-15,-69 -26,-51 47,-38l12 -10c24,-31 4,-17 48,-56 67,-60 9,-7 70,-43l32 -13 38 -12c-22,-77 3,-54 -79,-62 -12,72 12,15 -49,36 19,61 29,47 -35,41l-60 35c-62,86 -17,36 -99,65 -64,71 -268,222 -360,290l-345 290c-132,131 -689,362 -896,406 -59,55 -68,50 -137,82l-690 265 127 -159 46 8 27 -41 110 -66 72 -118 -16 10c-60,73 69,22 -95,65l-43 42 -64 63c-4,4 -16,25 -19,19 -3,-6 -12,12 -18,18l-41 -7c-213,170 -227,240 -570,368l-50 30 -36 2 -75 -5c7,-3 18,-8 23,-11 4,-2 17,-8 23,-11 121,-65 76,6 99,-57 4,-14 18,-11 27,-16 58,-94 131,-117 189,-192 42,-50 9,-21 63,-63 16,-13 47,-25 68,-36l56 -38c58,-69 -72,-25 94,-61 107,-60 246,-186 369,-267 105,-69 254,-156 368,-245l19 -22c-129,53 -673,361 -729,461 -34,31 -21,25 -75,58 -3,2 -66,28 -77,32l-50 44c-31,32 -16,22 -61,56 -3,2 -61,34 -70,40 -85,64 -140,121 -229,186 -31,54 2,21 -63,80 -57,52 -1,-9 -62,46 -107,96 -8,45 -121,126l-356 147c0,66 12,42 -67,34l-33 -8c-114,64 -53,14 -77,1l178 -179c54,8 43,21 40,-32l35 0 91 -79c35,-55 -45,-14 80,-68l102 -68c31,-40 -30,-17 89,-65 103,-90 115,-104 229,-184 34,-49 -44,-16 89,-63 80,-83 52,-49 131,-101 117,-77 67,-15 135,-135 -137,36 -197,127 -321,195 -32,47 45,11 -87,66 -56,75 -114,125 -222,183 -34,46 39,13 -88,66l-101 67c-30,48 33,13 -81,72 -55,73 -41,40 -81,114 -61,-11 -52,-26 -40,32l-16 5c-74,97 -166,162 -238,214l-555 238 -52 58c-310,24 -1064,481 -1414,531l-42 52 -1336 528c-68,20 33,83 -51,-4l140 -94 28 -50c86,-98 13,-39 137,-95 51,-71 49,-41 101,-114 43,-65 1,-17 56,-66 8,-8 37,-23 45,-30 68,-62 27,6 57,-84l-3 13c-34,31 -25,27 -71,57 -2,1 -69,31 -76,34l-40 50c-31,37 -16,23 -56,59 -8,7 -32,25 -41,32 -62,46 -40,31 -115,72l-30 -1c-24,76 47,0 -50,81 -32,47 0,21 -50,62 -48,38 -17,11 -84,36l-3 8 -49 -6c8,-8 25,-30 31,-37l127 -119c5,-5 14,-11 20,-16 133,-121 79,-142 295,-247l18 -50c41,-59 8,-46 88,-77 129,-59 224,-162 294,-227l1 -50 43 -18 -43 18c-21,17 -221,193 -249,231 -53,60 38,15 -90,73l-116 58c-37,60 50,8 -80,70l-89 76 -31 41c-4,5 -12,14 -17,19 -6,5 -14,12 -20,17l-41 29c-8,6 -34,23 -42,30 -82,69 3,-9 -68,73l-69 77 6 27 37 79 -100 57c-136,101 -424,180 -552,217 112,-143 311,-297 475,-449 151,-141 283,-285 440,-436 76,-117 28,-43 1,-69l-936 849c-30,34 -14,24 -56,55 -36,28 -30,18 -91,51l17 13 -128 103c-143,55 -26,19 -76,-17l77 -69 -8 -36c69,-40 19,-11 87,-61 63,-46 5,-9 60,-44l39 -62c78,-131 57,-136 167,-214l8 -7c52,9 41,20 35,-33 50,7 36,16 34,-37 51,3 40,15 36,-35l35 -32 38 -35 35 -31 39 -35 35 -34 38 -28 -34 -4 -4 32 -36 -2 1 36 -34 1 -5 34 -34 0 -1 31 -37 0 -1 35 -38 -4 3 36 -38 -1 2 36 -38 -2 4 39 -38 -2 3 35 -42 -4 -161 215c-94,40 -70,58 -151,127l-7 50c-67,43 -67,55 -137,105 -111,181 -127,113 -289,214 -77,-31 -80,-3 -9,-40l-3 -10 246 -255 124 -117c84,-137 145,-113 227,-241 53,12 40,22 37,-33 54,10 41,20 31,-35 62,10 49,18 19,-38l-19 38c-48,-4 -36,-14 -31,35 -56,-4 -48,-19 -37,33l-27 6c-69,81 -133,112 -208,163 -65,100 -77,57 -132,150 -84,126 -225,223 -352,308l11 27 -13 71 37 10 -9 -77 90 38c214,13 1831,-679 2141,-813 1325,-574 2844,-1165 4199,-1724 348,-143 697,-284 1052,-430 288,-117 814,-285 1037,-417l143 -66 2758 -1104 2 -108 -77 20c-104,43 -145,90 -284,141 -101,37 -181,74 -287,102 95,-103 328,-321 540,-300 98,44 -30,29 108,42 125,13 49,38 102,-33 -78,-116 -574,-310 -678,-276l-3786 1437c-383,149 -1144,483 -1523,554 -483,91 -1649,663 -2202,905 -255,112 -489,193 -759,298l-1474 608c-310,119 -1273,559 -1501,603 91,56 10,37 117,34 7,-6 17,-13 23,-16 8,-3 22,-9 30,-11 25,-8 50,-4 83,-3l-9 -6c0,-63 -16,-49 47,-44 108,-9 6,21 98,-16l51 -13 -140 174c6,54 19,43 -34,37 8,57 21,47 -34,39 11,62 20,41 -53,41 -109,60 -205,215 -288,276l-46 53c-54,120 -87,110 -125,211 -33,89 -35,186 -39,278l29 101 144 -458 18 -46 116 -121c41,-61 113,-155 158,-213 59,-76 106,-101 168,-180 45,-57 66,-93 112,-137 51,-49 70,-52 140,-111l557 -215 -244 210 -12 5 -212 164c-72,65 -37,19 -68,83 -42,62 2,20 -75,91 -27,25 -50,36 -82,59 -67,50 -88,72 -161,122 -8,7 -52,43 -57,47 -45,49 -14,13 -40,63l-33 -2 -85 69 -59 4 -2 45 8 19 -34 49c8,63 21,46 -44,46 -61,187 -261,934 -275,1165l10 -641c-17,-245 -19,100 -53,-156 -11,-80 14,-149 29,-192 25,-106 22,-133 51,-228 23,-78 45,-115 61,-186 0,-92 -19,-65 82,-50 38,-77 18,-46 89,-122 24,-26 49,-47 70,-72 39,-49 13,-15 38,-65l26 -2 44 -81 32 -18 -32 18 -14 17 -56 66 -37 -5c-83,59 -167,132 -207,224 0,90 19,66 -75,48l-68 80 -33 -91 -47 0c20,220 -36,252 -30,449l43 1303c47,452 -4,3136 -36,3701 -11,190 35,226 25,457l4 1358 -30 136 -94 -149c-67,-145 -85,-3345 -83,-3776 4,-652 -17,-1253 -38,-1903 -10,-320 13,-636 7,-953 -6,-339 48,-531 244,-691l17 -122c-13,2 -100,20 -117,25l-53 24c-44,409 -218,-401 -219,1612 0,299 43,562 37,880l33 2713c13,586 -73,1278 -24,1820 64,-91 35,-51 57,-163 17,-92 -12,-26 32,-113l-51 307c54,629 68,412 208,626 86,130 -10,75 119,198 67,64 72,55 143,138 126,147 332,363 532,399 -66,-139 -161,-182 -269,-230 12,-273 119,-574 84,-834 -114,157 -67,621 -182,740 -120,-261 218,-916 183,-1299l-27 42c-18,35 -21,41 -32,73l-221 1003c-184,-139 -181,-156 -147,-451 24,-212 33,-387 75,-595 55,-272 230,-947 209,-1169 -126,142 -160,900 -281,1138 -33,-588 464,-2183 410,-2613zm-377 -4337c-104,57 139,94 -138,35 6,5 15,16 18,18l79 6c114,-32 76,-31 184,-94l170 -108c-111,5 -267,58 -313,143zm2013 9209l-5 -10 5 10zm-1599 -4131l-18 -21c-28,139 -172,586 -148,755 5,-6 14,-5 38,-66 2,-5 23,-73 25,-81l103 -587z"/>
   <path class="fil0" d="M3067 13983l79 85c5,5 14,12 19,17 107,96 176,140 317,154l-55 36c-4,2 -17,9 -21,11 -3,2 -14,6 -17,7l-19 10c30,51 2,7 56,76 34,-37 54,35 38,-63l48 27 48 16c134,92 344,222 474,302 154,65 78,57 221,196 170,144 495,269 703,401 219,138 423,278 688,441 573,352 939,143 1555,-221 959,-568 1958,-1072 2912,-1637 944,-560 1958,-1088 2922,-1627 1430,-799 2970,-1693 4388,-2453 229,-123 496,-303 718,-410 256,-125 146,-25 261,-307 120,-294 11,-115 3,-450 -34,-1493 -20,-3052 -3,-4548 2,-190 42,-958 18,-1074 -50,-240 -120,-169 -346,-354 -30,-25 -28,-30 -84,-60l-4623 -1937c-69,-29 -130,-48 -204,-78l-191 -130 -142 97 3591 1501c213,86 391,161 597,249 102,43 201,86 297,127 46,19 94,36 149,62 36,16 42,18 72,36 45,28 36,22 65,50l-8121 3732c-276,119 -936,471 -1173,521 44,66 -15,54 82,41 1478,-597 3259,-1521 4794,-2184 1162,-502 2425,-1146 3577,-1643 203,-88 400,-179 602,-279 402,-198 270,-132 648,-15l-4295 1974c-719,314 -1434,677 -2155,985 -1517,649 -3291,1505 -4840,2211 -179,81 -623,166 -578,552l-4 5871c-1,478 -134,1099 33,1490 -251,-30 -395,-55 -469,-289 -106,-338 -64,-6007 -22,-6662 16,-243 33,-417 110,-624 106,-285 213,-271 403,-370 646,-340 1403,-612 2064,-955l67 -13c-2,-68 13,-42 -70,-56 -385,231 -2270,976 -2433,1145 -215,221 -213,833 -222,1153 -6,246 -8,494 -11,740l-3 4335c-1,509 -32,929 75,1404 -146,-43 -316,-169 -388,-237 99,33 106,53 218,64l-2423 -1443zm1042 817l42 2c-3,-7 -8,-30 -11,-21 -1,5 -12,-2 -14,-1 -3,2 -11,13 -17,20zm-543 -398c-52,-44 -30,-7 -94,-23l35 39c2,2 9,15 14,21 134,75 278,208 455,248 -60,-76 -261,-178 -410,-285zm447 314l11 -30c-120,31 -18,24 -11,30zm72 50l-36 -6 36 6zm-847 -532c61,38 -6,14 77,13l-7 -4c-161,-140 -43,-24 -70,-9zm-38 -40l-4 -14c59,-52 6,-4 6,-4 0,1 1,6 -2,18zm-70 -36l2 -14c1,-1 4,-4 4,-2 0,0 2,-1 2,-1 -1,1 -2,7 -8,17zm-71 -38l5 -12 -5 12zm-71 -39l8 -8 -70 -38 62 46zm-35 -158l-3 6c-50,59 -26,6 71,68l-68 -74zm-57 -51c-165,-26 68,41 -116,-1 1,0 -2,39 67,37 117,-4 -43,99 38,-30l11 -6zm-116 -57c-62,44 -65,6 -3,43l0 -45 3 2zm-78 -58c2,12 1,26 4,36 31,125 19,-16 24,-26l-28 -10zm3567 1989c-133,-156 -84,-508 -67,-740 19,-252 9,-522 9,-776l-8 -4757c-1,-959 -111,-1224 516,-1489 268,-113 138,-78 240,-148l2713 -1237c722,-335 1451,-666 2186,-989l2178 -996c708,-353 1474,-638 2176,-997 337,-172 733,-337 1091,-496 190,-85 363,-179 549,-263 307,-139 356,-94 489,131 -60,977 -22,2100 -28,3101 -3,505 -7,1010 -14,1515 -4,258 0,517 -4,775 -9,619 347,641 -883,1263 -893,453 -2050,1151 -2963,1658 -1323,733 -2626,1479 -3962,2209 -658,359 -1323,763 -1991,1113 -333,174 -671,378 -997,554l-1021 530c-6,-3 -20,-10 -26,-12l-62 -29c-79,110 8,51 -121,80z"/>
   <path class="fil0" d="M13632 5983l375 -203c7,-4 17,-7 24,-11 7,-3 16,-7 23,-10l1088 -494c58,-62 133,15 -10,-74l-3023 1412c-486,211 -868,299 -789,655l70 -142c59,-161 176,-218 389,-250 -6,7 -14,16 -18,20l-61 51c-74,48 -120,42 -198,125 381,-139 1989,-936 2491,-1150 251,-106 601,-316 838,-375 -18,-61 -27,-47 36,-33l35 -3c-18,-62 -26,-47 39,-31l948 -427c-104,-86 5,-84 -168,-25 -111,39 -240,145 -429,178l781 -342c-29,18 -24,16 -64,36 -171,86 -99,102 -99,101 -1,-6 6,17 13,22l35 -6c-34,-75 -39,-57 38,-30l38 -3c-7,-74 -65,-39 29,-58l123 -23c-22,-69 -26,-46 48,-28l39 1 -111 -37c-18,-2 -70,8 -82,7 139,-69 137,-13 276,-127l638 -265c13,442 -4,918 -8,1364 -13,1355 193,1062 -1067,1673l-4549 2274c40,23 -101,91 128,13l1760 -890c630,-315 1249,-626 1887,-937 274,-133 1788,-843 1862,-958 89,-137 41,-1972 60,-2411 6,-156 -2,-205 114,-182 64,217 20,1437 14,1770 -17,883 75,798 -617,1170 -286,154 -2241,1109 -2336,1204l-53 37c-10,5 -46,22 -56,26 -65,27 -30,9 -90,22 -298,162 -2511,1299 -2663,1315 -197,-419 55,-2088 -60,-2676 -61,69 -54,62 -57,175l-8 1511c4,382 -130,1129 248,1035l2583 -1319c3,-58 -11,-42 51,-37l22 2c-2,-59 -14,-41 52,-36 387,-148 847,-417 1242,-622 417,-216 791,-406 1217,-615 298,-145 447,-174 531,-389 129,-328 98,-2563 34,-2628 -58,-44 -1,-63 -147,-23l-416 187c-154,74 -427,205 -584,240 4,75 73,43 -38,54l-879 370c85,54 -60,60 126,44l-525 290c-7,3 -16,7 -23,11l-765 361c-131,75 -188,132 -335,156 -279,51 -1646,803 -1870,841 92,-101 758,-381 915,-453 256,-117 612,-292 938,-430z"/>
   <path class="fil0" d="M17511 3657l47 109c4,7 10,15 14,22 113,222 33,2006 31,2276 -2,363 55,882 -85,1182 -93,198 -127,168 -352,283l-3692 1952c-1342,738 -2833,1475 -4114,2199 -543,307 -1152,584 -1633,871 -157,93 -263,141 -418,218 -343,171 -240,212 -431,149l-13 -1014c3,-970 -24,-2362 31,-3243 -79,27 -40,-22 -79,71 -10,24 -13,94 -17,125 -9,71 -16,154 -16,263 -4,780 -53,3482 15,3847 275,142 293,-12 875,-294l2506 -1337c2147,-1194 4533,-2378 6702,-3562 155,-84 285,-148 439,-229 491,-256 355,-801 358,-1525l16 -1905c7,-379 -22,-434 -184,-458z"/>
   <path class="fil0" d="M7206 11890c-72,29 -34,21 -19,-54 14,-71 -2,-38 35,-75l126 -32c46,152 13,24 -17,80l-125 81zm2992 -1476l-1474 735c-161,77 -1125,626 -1290,572l-213 -63c-3,-392 5,-2244 44,-2606 35,-323 221,-267 481,-395 282,-139 2284,-1084 2431,-1088l-13 2151c-2,230 52,546 34,694zm150 -228c-150,-54 -111,0 -111,-220l9 -1903c-1,-148 -55,-497 45,-607 86,42 82,-86 71,325l-14 2405zm-3133 1750c201,8 106,18 244,-78l2209 -1105c767,-392 501,-179 664,-536 137,349 -353,504 -585,616l-2095 1044c-168,88 -307,94 -362,236 200,-21 2696,-1322 3083,-1515 6,-128 37,-230 48,-355l-4 -1264c2,-318 65,-1433 -71,-1604 -172,13 -1157,511 -1394,619l-1371 639c-349,132 -408,178 -425,593l-37 2467c-7,354 -28,348 103,399l-7 -156z"/>
   <path class="fil0" d="M8937 5096l105 -44c-8,-159 -4,22 -28,-153 337,-69 512,-283 637,106l36 23c73,32 46,-37 68,75 -123,149 -1732,813 -2057,968 -333,159 -706,317 -1056,461 -585,242 -276,145 -757,-94 -162,-80 -188,-40 -218,-172 246,-116 514,268 567,326 580,-173 2998,-1378 3409,-1436 6,-62 -12,-48 2,-74 -75,63 104,-39 -85,9l-1638 709c-266,121 -532,227 -816,350 -262,114 -607,230 -837,346 -489,-365 -268,-341 -614,-291 17,-74 5,-33 32,-93 4,-9 21,-41 25,-49l27 -40c-146,-39 -15,1 -101,-42 -6,-3 -16,-8 -22,-12l-544 -339c-9,-5 -35,-21 -44,-26l-582 -269c-141,-62 -141,-50 -185,-21 166,119 720,296 1167,596l152 96c5,3 16,8 23,13l-6 358c38,28 19,4 57,45 60,64 2,0 46,61 574,286 376,374 1014,87 442,-200 2934,-1238 3103,-1432 -9,-109 -70,-196 -145,-297 -82,-108 -171,-144 -350,-144l-39 -57c-294,-114 -807,241 -1118,317l-76 53c-36,-61 -36,-67 -60,-121 -209,-117 -281,-186 -556,-282l-619 -176c-5,1 -17,5 -24,10 326,198 848,230 1155,497l78 35c13,106 15,25 -34,57 -364,104 -812,310 -1165,456 -376,156 -840,307 -1140,478 111,88 122,18 415,-111 148,-65 274,-111 428,-171 514,-198 2361,-983 2649,-995l62 16c7,10 21,37 23,27 2,-12 16,26 16,42l-87 11c-315,58 -1031,381 -1357,512 -446,179 -878,372 -1314,547l20 22c231,-7 1731,-711 2149,-831 33,25 45,41 49,32 3,-9 23,3 32,9 60,-46 62,-67 136,-41 -6,6 -16,13 -20,16 -5,3 -16,11 -22,14l-75 40c-4,-8 -18,7 -27,11l136 -18zm-2464 1064l-9 -40 -104 -15c11,-179 -6,-22 43,-84l66 -111 -51 18c-139,5 -164,38 -287,93l-191 91c-49,35 -33,25 -54,51 477,-145 298,-124 454,-41 74,39 8,28 133,38zm48 -295l-61 5c102,88 39,32 61,-5z"/>
   <path class="fil0" d="M8310 11171l-16 -288 215 -54c38,58 66,121 75,219 -73,44 -167,96 -274,123zm65 -424c78,-48 221,-136 361,-181l43 -34 33 1 52 -32c74,-37 10,-6 95,-40l68 -39 -40 68c-69,23 -51,15 -101,38 -5,52 -18,42 32,38l114 -19 7 250 -259 128c-128,165 87,-53 -135,103l-22 -138 9 -44 -43 -27 -97 -87c-119,60 4,9 -113,37l-70 50 66 -72zm272 -2c63,55 44,73 52,187l23 -141 12 -39 -5 -57 45 -22c8,-3 17,-25 19,-18 28,75 33,-41 43,-47 -177,55 88,-22 -128,17l-167 68c49,66 -49,51 106,52zm207 -144l24 -1 -38 -43 14 44zm-21 -184l-61 63c-513,203 -449,260 -703,367 -89,38 -169,89 -269,95l-30 -270c125,-100 665,-369 828,-389 83,86 72,46 107,152 75,7 67,31 61,-28 -40,-103 -58,-94 -91,-186l622 -296 170 283c-178,122 -414,168 -634,209zm560 -909c1,-225 -5,-444 1,-669 13,-584 -57,-500 86,-546 61,102 2,1696 0,1783 -160,-89 -87,-395 -87,-568zm-1505 -565l-28 41c-2,119 -14,36 36,66 127,-76 173,-107 343,-183l1092 -498 1 345 5 168 7 950 -711 328c-107,-102 -216,-242 -302,-350 -110,-138 -226,-195 -297,-337 94,-169 793,-622 1179,-570l89 -78c4,-14 12,-17 18,-23l-131 -40 -44 -3 -62 50 17 -159c-88,101 -21,139 -226,185 -75,40 -8,48 -105,-38l-22 115c-137,38 -421,188 -492,285 -155,2 -19,11 -75,-55l-32 43c-16,148 -117,100 -202,65 51,170 33,139 -75,258 135,90 37,-24 165,139 174,222 321,317 485,571l-753 363 28 -1437c10,-159 19,-67 -44,-93l-30 49 -3 296 -4 59 3 303 1 68c-17,211 -15,422 -16,634 -3,814 53,552 482,423l38 353c65,29 4,19 84,16 125,-4 386,-167 493,-238 335,-223 341,-61 326,-568 68,-28 137,-61 209,-94 37,-18 56,-25 98,-44 10,-4 40,-18 50,-23l77 -41 23 -2023c-152,-24 -1512,651 -1695,722z"/>
   <path class="fil0" d="M17134 3810c-291,91 -2333,1058 -2686,1218l-5303 2453c-450,203 -878,411 -1332,610l-985 422c-81,89 -100,230 -101,386 5,-11 10,-23 13,-32l28 -96c23,-80 11,-107 159,-191 310,-173 1854,-830 2322,-1064 426,-213 897,-403 1331,-609l6288 -2918c368,-161 241,-81 266,-179z"/>
   <path class="fil0" d="M11574 7920l17 23c117,-16 1601,-742 1848,-857 153,-72 291,-141 447,-225l1441 -654 -72 -57 -479 217c-37,-240 -1,-170 212,-272 115,-55 216,-127 318,-78l27 74 -2 -155c154,-68 458,-233 621,-251 -30,-82 -36,-57 54,-41l230 -103c13,184 -3,144 -142,212l-714 340 48 21c152,-25 1180,-508 1254,-625l-360 152c-7,-175 -51,-136 91,-201 121,-55 115,1 154,-114l-575 245c-85,48 -39,32 -129,60l-28 1 -63 32c-125,96 -537,261 -722,350 -234,112 -551,280 -787,352l46 38 369 -155 27 158c-86,55 -191,105 -283,149 -128,63 -116,42 -153,-124l-125 -15 -10 0c-133,117 -161,29 -66,88l51 -50 78 -1c63,-20 38,-21 20,50l9 160 -470 195 -38 -182 277 -139 -19 -6 -1074 508c157,-27 278,-117 494,-204l95 136 -647 326c-83,-212 -34,-152 58,-258l-1411 680c176,-48 399,-176 615,-274l584 -285 82 159c-348,228 -850,393 -1198,600zm2056 -1201c53,176 53,144 13,206 -153,14 -61,30 -172,-102l159 -104z"/>
   <path class="fil0" d="M14603 7221l-16 -50c-524,207 -1024,518 -1496,685l33 34 67 7c8,10 24,11 24,31 -1,15 6,23 5,30 -1,7 -8,19 -12,28 22,71 22,37 -79,37l73 16c68,-58 39,-41 123,-81l197 -53c-85,-58 104,-108 -274,35 31,-203 -85,-39 413,-282 10,-5 69,-36 69,-36 95,-22 35,-13 89,18 -62,92 -223,143 -332,179 119,48 43,49 177,-13 60,-28 111,-52 173,-79 263,-116 275,-127 338,-191l-271 98c10,-131 29,-90 311,-231 127,-63 253,-141 388,-182zm-1481 841l29 5 -75 -49 46 44zm-1490 671l70 41 1372 -675c2,-58 15,-42 -45,-42 -226,98 -449,226 -679,337 -190,91 -561,305 -718,339zm-72 107l70 -39c18,-81 13,6 -56,-40 -123,58 -19,75 -14,79zm1474 -945c12,75 18,60 65,104l-50 -108 -15 4zm-10 69l-42 -32c-203,43 -569,253 -776,352l-670 317c-81,52 -45,33 -77,69 118,-29 284,-115 400,-169 294,-138 929,-482 1165,-537zm2134 -956l-35 34 -392 178c36,-107 17,-84 152,-136 76,-30 131,-53 211,-71l136 -64c103,-95 1108,-543 1384,-674 13,-6 82,-37 95,-46 133,-87 34,10 93,-105 -164,43 -384,172 -547,248 -380,177 -1396,698 -1645,768 8,8 -8,122 39,51 4,-6 10,20 16,29 -77,133 -169,115 -367,227 -23,12 -42,20 -68,38 -46,33 -43,38 -55,51l2464 -1164c142,-79 21,0 89,-71 -8,-3 -19,-16 -23,-8l-70 -1c-65,17 -1254,655 -1477,716z"/>
   <path class="fil0" d="M13395 11375c-95,146 -209,142 -282,83l-38 -116c-27,-169 -15,-58 31,-97l113 -329c-95,-62 13,-72 -168,261 12,-89 9,-127 43,-209 37,-89 41,-77 104,-141l56 55c294,-435 512,304 141,493zm18 -785l58 79 -117 2c-509,106 -531,956 -88,892 -459,335 -878,-407 -282,-952 196,-179 217,-88 429,-21zm238 610c268,-681 -761,-1276 -1058,-272 -210,713 489,1045 829,651 48,-55 186,-268 229,-379z"/>
   <path class="fil0" d="M8917 13666c8,-306 181,-531 477,-511 39,200 27,410 -93,544 -40,44 -304,290 -416,99 128,-25 87,45 193,-26 -70,-268 -22,-36 -161,-106zm-132 -30c2,10 7,15 7,30 -1,14 3,22 3,28 -10,85 5,18 -20,84l48 58 -119 -31 -42 -29c-58,7 -46,17 -27,-39 -54,0 -42,13 -37,-41 -157,-148 -93,-470 32,-631 207,-264 304,-147 575,-72 56,43 38,-62 43,39 -49,45 81,41 -93,35 -79,20 -258,139 -296,191 -68,92 -77,257 -74,378zm-139 35c49,31 15,-11 18,62l47 4 61 -30 -126 -36zm848 -146c195,-666 -847,-1044 -1043,-289 -222,851 852,943 1043,289z"/>
   <path class="fil0" d="M10451 12777l17 18 2 -43c-9,-60 -24,-51 31,-41l7 -19c-15,-70 -28,-59 39,-35 71,-118 88,-165 279,-161 48,323 -61,425 -182,612 -37,71 -19,47 -31,82l77 -2c164,-173 348,-458 181,-772 -25,-47 -8,-29 -35,-70 -23,-33 -65,-70 -108,-102 -88,-63 -165,-134 -261,-194 -340,19 -579,351 -581,735 -3,375 338,587 716,497l-73 -108 -75 -107c-79,-117 -44,-125 -60,-182 -49,-165 99,168 -52,-64 33,-163 0,-40 48,-65 27,-80 20,-60 56,-133 67,-135 34,-112 83,-54l-55 76c-39,95 -10,10 -23,132zm-276 -516c458,-144 208,-26 600,118 -243,23 -307,55 -412,231 -84,142 -132,341 -51,505l35 42 14 38c-20,-16 -90,-68 -94,-70 -70,-30 3,-24 -105,-12 -139,-60 -88,-19 -152,-123 -72,-63 -38,3 -33,-106 0,-217 61,-372 143,-519 65,45 275,148 99,1l-82 -39c-10,-80 -32,-66 38,-66z"/>
   <path class="fil0" d="M17241 8898c251,-120 245,425 -19,487 -294,69 -251,-358 19,-487zm-353 464c-170,-247 72,-459 249,-525 -336,418 -141,365 -249,525zm-95 -204l5 84c-23,208 13,57 -53,136l-184 -65c-33,-166 -37,-242 14,-404 33,-41 12,-15 148,36 -6,-7 -17,-15 -21,-19l-92 -88 49 -66c18,-40 3,-17 31,-62 19,-32 36,-45 46,-56 135,-103 264,-39 427,49 -154,143 -400,143 -370,455zm-351 68c40,300 436,294 725,268 273,-24 448,-344 292,-663 -62,-128 -138,-182 -290,-238 -127,-46 -259,-118 -406,-58 -213,87 -363,371 -321,691z"/>
   <path class="fil0" d="M9643 5156c-411,58 -2829,1263 -3409,1436 -53,-58 -321,-442 -567,-326 30,132 56,92 218,172 481,239 172,336 757,94 350,-144 723,-302 1056,-461 325,-155 1934,-819 2057,-968 -22,-112 5,-43 -68,-75 -1,2 -19,78 -22,86 -1,5 -9,26 -10,22 -1,-4 -8,13 -12,20z"/>
   <path class="fil0" d="M15995 9454c240,200 -24,655 -196,616 -244,-56 -22,-603 196,-616zm-642 265l47 -157c65,-207 340,-537 485,-230 -71,112 -21,86 -193,77 87,293 -235,231 -80,665 -177,-2 -187,10 -243,-108l39 -8c4,-1 16,-3 21,-3l92 -6c-64,-38 -124,-65 -173,-94l5 -136zm-3 436c923,180 901,-628 757,-782 -230,-248 -62,-163 -225,-235 -453,-198 -520,377 -678,464 31,45 12,-47 43,83 32,140 -58,196 103,470z"/>
   <path class="fil0" d="M1290 5469c356,168 739,407 1107,613l2208 1248c177,98 341,200 540,305l474 269c98,12 43,7 97,-34l-4335 -2429c-183,-28 -20,-21 -91,28z"/>
   <path class="fil0" d="M7354 14083c-46,-97 -57,-58 -108,-179 8,-4 136,-28 156,-29 75,-3 39,-1 93,8 7,1 23,19 28,11 5,-9 19,7 28,12 26,102 51,569 -12,669 -198,20 -32,3 -167,-70 -7,-4 -16,-9 -23,-12 -25,-11 -151,-37 -198,-52 24,-132 42,-142 144,-246 -5,-7 -14,-15 -17,-19 -83,-79 -70,-26 -135,-122 91,-48 103,10 211,29zm316 -233c-204,-154 -367,-128 -519,63 -177,223 15,238 -109,529 30,52 79,123 109,165l184 -24 99 112 253 -80 -17 -765z"/>
   <path class="fil0" d="M10623 8098c1,-422 75,-742 -115,-766 39,196 54,6 49,414l-8 1269c0,462 84,1298 -112,1522l-57 67c322,-60 249,-380 245,-708l-2 -1798z"/>
   <path class="fil0" d="M13866 10671c46,-56 43,-50 104,-98 34,-27 64,-53 98,-79 92,-68 128,-92 245,-111 -82,134 -240,183 -376,252l6 366c-81,-61 -79,-26 -77,-330zm145 8c111,-60 309,-176 407,-214l-45 378 -341 171 -21 -335zm-231 -78c-3,218 -22,508 214,501l487 -235 -8 -532c-248,-97 -630,197 -693,266z"/>
   <path class="fil0" d="M4131 5264c-14,123 -35,56 36,140 45,52 22,1 94,86 360,196 788,426 1118,641 50,1 35,12 35,-42 -333,-246 -745,-455 -1143,-671 -63,-19 -41,0 -100,-24l-20 -76c61,-192 135,-161 334,-236 143,-54 260,-113 401,-164 255,-93 590,-229 825,-304l-34 -30c-315,29 -1250,455 -1528,579l-18 101z"/>
   <path class="fil0" d="M16273 4866l68 -92c24,-91 -30,58 15,-65 -139,114 -137,58 -276,127 12,1 64,-9 82,-7l111 37zm-39 -1c-74,-18 -70,-41 -48,28l48 -28zm-345 178l34 -30c-7,-5 -14,-28 -13,-22 0,1 -72,-15 99,-101 40,-20 35,-18 64,-36l-781 342c189,-33 318,-139 429,-178 173,-59 64,-61 168,25zm174 -127c-94,19 -36,-16 -29,58l29 -58zm-67 61c-77,-27 -72,-45 -38,30l38 -30zm-825 186l-39 28c143,89 68,12 10,74l-1088 494c-7,3 -16,7 -23,10 -7,4 -17,7 -24,11l-375 203 17 42c147,-24 204,-81 335,-156l765 -361c7,-4 16,-8 23,-11l525 -290c-186,16 -41,10 -126,-44zm-230 307c-65,-16 -57,-31 -39,31l39 -31zm-74 34c-63,-14 -54,-28 -36,33l36 -33zm1183 -711c111,-11 42,21 38,-54l-38 54z"/>
   <path class="fil0" d="M2996 14073c0,63 -12,39 63,47l5 -12c0,66 -14,42 66,50 6,-10 7,-16 8,-17 0,0 -2,1 -2,1 0,-2 -3,1 -4,2 0,68 -14,43 68,50 3,-12 2,-17 2,-18 0,0 53,-48 -6,4 0,62 -16,46 42,54 27,-15 -91,-131 70,9l7 4c0,64 -14,42 55,56l19 -10c3,-1 14,-5 17,-7 4,-2 17,-9 21,-11l55 -36c-141,-14 -210,-58 -317,-154 -5,-5 -14,-12 -19,-17l-79 -85 -114 -60 68 74c-97,-62 -121,-9 -71,-68 0,-62 12,-37 -65,-51 -81,129 79,26 -38,30 -69,2 -66,-37 -67,-37 184,42 -49,-25 116,1 -7,-4 -16,-20 -21,-14 -5,7 -18,-11 -26,-15l-72 -30 0 45c-62,-37 -59,1 3,-43 0,-56 13,-36 -50,-48 -5,10 7,151 -24,26 -3,-10 -2,-24 -4,-36l-20 -1 -81 -54 92 91c-83,-24 -118,-44 -194,-39 0,67 -15,43 62,55l5 10 174 133c98,63 146,86 248,129l-62 -46 70 38z"/>
   <path class="fil0" d="M6446 8418c44,100 39,55 0,136 -36,-41 -26,10 -32,-68 -9,-123 16,-45 32,-68zm0 217c167,-107 152,-327 12,-308 -130,18 -179,186 -12,308z"/>
   <path class="fil0" d="M6068 4539c168,64 567,-7 716,-117 -89,3 -644,62 -716,117z"/>
   <path class="fil0" d="M14101 6999l-12 110c-93,-64 -57,-37 -136,3l18 146c156,-45 93,48 118,-149l40 38c58,25 -71,48 61,17 80,-19 63,-46 100,-127 -57,-23 -37,72 -41,-71l-67 -5 -27 -9c55,89 32,66 83,112 -68,24 -20,24 -69,-2l-68 -63z"/>
   <path class="fil0" d="M5739 2927c-121,75 -113,60 -193,167 61,49 39,26 110,127l52 -58c-110,1 -33,19 -94,-56 8,-3 20,-18 23,-11 5,10 29,-14 49,-21 64,-25 38,-19 117,-37l-54 -84c-147,92 -68,77 -73,84l-84 56c35,-94 53,-78 147,-167zm331 -111l-14 -52c-84,51 -80,53 -153,106l-122 120c98,-23 210,-117 289,-174zm-163 -10l-71 83c75,-57 47,-37 71,-83zm9 -21c-69,46 -88,54 -139,100l35 3 104 -103z"/>
   <path class="fil0" d="M6447 15213l58 148c149,-13 167,-29 176,-161 -74,-21 -64,-9 -127,39l-5 -86 -39 -36 -63 -5 0 101z"/>
   <path class="fil0" d="M553 4610c-72,36 -99,23 -117,26 -11,-106 7,-13 -47,-39l2 -6 -2 6c-26,78 4,41 -31,20 -121,68 -124,12 -97,108l53 -24c17,-5 104,-23 117,-25l-17 122 -12 68 47 0c-6,-55 -19,-44 35,-36l66 47c94,18 75,42 75,-48 -169,-58 -10,51 -138,-55 6,-86 -4,-45 25,-105l-79 -6c-3,-2 -12,-13 -18,-18 277,59 34,22 138,-35z"/>
   <path class="fil0" d="M16449 6790c-65,-141 11,-65 -90,-127 -63,93 -50,59 -29,197l172 -26 11 -216c-55,56 -28,-15 -52,73 0,1 -10,90 -12,99z"/>
   <path class="fil0" d="M17942 3240c71,-35 24,20 72,-44 37,45 14,10 45,72l20 47c1,4 5,15 8,22 172,-110 1,-272 -158,-193l13 96z"/>
   <path class="fil0" d="M1909 4300c-47,33 -76,44 -113,69 -85,58 -43,20 -95,94 75,-51 139,-82 208,-163zm-200 235c183,-152 371,-237 425,-425 -178,41 -69,22 -111,78 30,56 43,48 -19,38 10,55 23,45 -31,35 3,55 16,45 -37,33 -82,128 -143,104 -227,241z"/>
   <path class="fil0" d="M15781 5561c79,39 26,0 82,70 90,-28 44,-12 129,-60 64,-210 -19,-125 -49,-151l9 147c-65,-61 -69,104 -46,-140 -47,108 -64,-107 -30,131l-95 3zm225 83c-90,-16 -84,-41 -54,41 72,23 54,36 54,-41zm-234 20l63 -32c4,-53 14,-35 -46,-37l-17 69z"/>
   <path class="fil0" d="M9652 9334c125,-25 343,-125 409,-201 -139,-12 -336,80 -409,201z"/>
   <path class="fil0" d="M12165 7897c-15,143 52,91 126,107 33,-112 36,-91 -2,-208 -73,12 -115,16 -124,101z"/>
   <path class="fil0" d="M12055 8038c-148,-154 -3,-98 0,-105 16,44 96,-68 0,105zm77 -75c-23,-74 -38,-63 -122,-60 -13,25 -48,-56 -37,123 11,186 -14,1 47,91 88,-38 162,1 112,-154z"/>
   <path class="fil0" d="M11906 7217c-3,-93 -32,-8 32,4 0,0 5,1 5,2 56,18 -33,119 -37,-6zm14 111c90,15 193,-110 29,-215 -181,133 -32,210 -29,215z"/>
   <path class="fil0" d="M11833 313c-331,206 -114,75 -285,232 -86,79 -92,24 -181,140 313,-150 139,-126 342,-261l124 -111zm-284 330c-76,31 -77,21 -123,97l123 -97zm-21 -25c70,-49 97,-61 168,-106 88,-56 82,-49 135,-119 -75,43 -92,56 -157,98 -59,38 -20,5 -66,41 -82,65 -32,22 -80,86z"/>
   <path class="fil0" d="M13034 7895l-52 37 42 32 43 38c-12,5 -20,38 -38,55 60,0 47,-16 45,42l48 -37 -46 -44 75 49 51 -28 -73 -16c101,0 101,34 79,-37 4,-9 11,-21 12,-28 1,-7 -6,-15 -5,-30 0,-20 -16,-21 -24,-31l17 89 -94 -34 10 -62 -33 -34 -42 35 50 108c-47,-44 -53,-29 -65,-104z"/>
   <path class="fil0" d="M15779 5432l-88 24 -12 4c0,64 12,41 -66,32 122,84 9,-145 77,120 1,5 5,17 9,25l30 -22 9 -147c123,-75 37,-30 58,17l55 -45c37,-22 -19,-13 55,-13 -23,244 -19,79 46,140l-9 -147 -13 14 -56 -42c-108,2 -33,-19 -95,40z"/>
   <path class="fil0" d="M15648 6250c209,35 62,108 41,125 -7,-10 -36,-40 -40,-46 -6,-5 -21,-9 -26,-26 -4,-18 -19,-18 -28,-28l29 139 116 14c-7,-69 -21,-48 54,-52l-36 -203c-135,33 -68,6 -110,77z"/>
   <path class="fil0" d="M6056 2764l14 52c26,-73 -5,-12 72,-41l22 22c67,-33 58,-27 93,-78 -103,-37 -52,22 -105,-94l-39 40 -57 99zm25 -124l46 -50c-64,-4 -46,-18 -46,50zm37 33l-54 -3c-7,8 -42,66 -46,73 176,-64 26,7 100,-70zm-134 37l36 -44c-51,2 -36,-10 -36,44z"/>
   <path class="fil0" d="M15123 7042l-29 -29c-80,18 -135,41 -211,71 -135,52 -116,29 -152,136l392 -178z"/>
   <path class="fil0" d="M1228 4948l-138 131c40,36 39,1 -15,49 64,77 50,-97 54,99l-95 -12c-26,97 64,41 122,27l41 -120c0,-6 -1,-19 -1,-25 1,-7 1,-20 2,-26 2,-9 12,-42 17,-52l13 -71z"/>
   <path class="fil0" d="M10454 13067l14 -272 -17 -18 -61 -21c-48,25 -15,-98 -48,65 151,232 3,-101 52,64 16,57 -19,65 60,182z"/>
   <path class="fil0" d="M12159 8688l-3 114c71,71 20,65 120,50 24,-26 48,30 49,-111 0,-5 -19,-69 -23,-82l-96 9c91,72 72,-31 48,120l-95 -100z"/>
   <path class="fil0" d="M9650 9663l394 -177c-51,-39 12,-45 -86,-31 -66,9 -230,102 -308,208z"/>
   <path class="fil0" d="M12807 6766l-112 170c52,17 155,-19 184,-51l34 -119 -89 -17 30 40 -47 -23z"/>
   <path class="fil0" d="M9069 12684c-103,-46 -45,14 -76,-77 108,44 16,-11 103,51l-14 -138c-121,37 -83,15 -152,89 10,103 15,96 102,139 72,-37 -6,4 37,-64z"/>
   <path class="fil0" d="M13075 11342l195 99c5,-8 17,9 24,10l-181 7c73,59 187,63 282,-83 -160,18 -288,34 -289,-130 -46,39 -58,-72 -31,97z"/>
   <path class="fil0" d="M9651 8975c0,60 -14,42 50,45 76,-23 109,-37 174,-70 135,-70 81,-21 132,-118l-356 143z"/>
   <path class="fil0" d="M13483 7306l22 46 -22 -46 -5 -18 5 18zm-158 55l3 132c11,-5 74,-36 81,-37 99,-18 -24,-39 56,5l-36 38c-53,-5 -42,-19 -42,31l42 -31c53,5 40,16 36,-38 54,-37 -16,19 39,-29 4,-3 15,-14 20,-18 4,-4 13,-13 20,-19l-46 -4c-84,-30 -61,-15 -102,-80l-71 50z"/>
   <path class="fil0" d="M8520 12991c3,-71 109,-101 -63,-170 -91,82 -87,29 -57,160l120 10z"/>
   <path class="fil0" d="M3374 3808c-94,34 -33,-3 -93,38 -68,45 -25,18 -54,53 7,-3 74,-33 76,-34 46,-30 37,-26 71,-57zm-155 167c48,-37 80,-50 118,-78 120,-88 46,-19 73,-91 38,-91 -41,5 73,-117 -9,7 -66,45 -67,46 -64,68 -1,-20 -39,60 -30,90 11,22 -57,84 -8,7 -37,22 -45,30 -55,49 -13,1 -56,66zm202 -181c49,-32 83,-47 125,-76 80,-55 43,-24 91,-91l-42 -1c7,57 18,45 -39,31 4,56 15,43 -42,30 -23,26 -65,76 -93,107zm-133 -48c-80,31 -47,18 -88,77 11,-4 28,-21 32,-14 4,7 22,-12 27,-17l29 -46zm46 -46l-90 73c128,-58 37,-13 90,-73z"/>
   <path class="fil0" d="M15648 6250c-76,-22 -73,-48 -53,25 -85,-16 -46,-18 -22,60 26,87 3,42 51,79l-29 -139c9,10 24,10 28,28 5,17 20,21 26,26 4,6 33,36 40,46 21,-17 168,-90 -41,-125zm146 126c-75,4 -61,-17 -54,52 77,20 54,32 54,-52z"/>
   <path class="fil0" d="M6460 5870l-42 58 51 -18 -66 111c36,49 36,16 78,38l44 -74 55 -21 -1 -100 -20 -22 -38 23c-22,37 41,93 -61,5z"/>
   <path class="fil0" d="M7317 10365c158,-35 304,-118 373,-213l-299 123c-72,58 -37,35 -74,90z"/>
   <path class="fil0" d="M16535 8480c0,0 228,-18 36,-181 -78,61 -34,-82 -66,85 -24,123 -4,30 30,96z"/>
   <path class="fil0" d="M1233 4367l-89 161c-53,-4 -42,-16 -34,37 -55,-5 -43,-17 -34,39 -57,-9 -37,-19 -53,41 73,0 64,21 53,-41 55,8 42,18 34,-39 53,6 40,17 34,-37l140 -174 -51 13zm177 -69c-70,59 -89,62 -140,111 -46,44 -67,80 -112,137 81,-64 190,-157 252,-248zm-322 129c81,12 71,32 47,-44 -63,-5 -47,-19 -47,44z"/>
   <path class="fil0" d="M10891 846c-155,94 -262,156 -348,341l76 -91c40,-47 38,-49 88,-89l124 -90c49,-46 15,-13 60,-71zm-213 311c62,4 51,22 51,-32 -39,-41 -91,40 13,-77 48,-53 36,-15 93,-94 -39,28 -76,48 -107,74 -67,58 -38,28 -81,100l31 29z"/>
   <path class="fil0" d="M13310 6499l21 78 48 110c103,-88 46,-10 73,-121l14 -49 -28 -61 -31 -11 -50 27 65 141c-10,-11 -25,-20 -34,-29l-56 -57c-6,-17 -17,-18 -22,-28z"/>
   <path class="fil0" d="M15477 7172l1 33c-88,-28 -78,-50 -56,38 68,0 57,20 56,-38 130,36 125,-11 147,-139 -83,9 -27,-23 -92,27 -62,46 3,-6 -34,37l-22 42z"/>
   <path class="fil0" d="M12970 7539c-19,181 -16,43 37,91 74,-84 77,-66 44,-201l-8 -8 -106 -1c7,9 -2,168 41,64 1,-4 7,14 14,15 24,65 43,62 -22,40z"/>
   <path class="fil0" d="M12953 10304c110,-51 28,2 61,-91 -120,-64 -162,-13 -173,91 3,0 -44,72 112,0z"/>
   <path class="fil0" d="M502 5681l52 -117 -29 -101c-6,-7 -15,-16 -18,-22 -4,-7 -11,-21 -14,-28 -11,-24 -12,-44 -15,-80 -15,43 -40,112 -29,192 34,256 36,-89 53,156z"/>
   <path class="fil0" d="M14009 6451l33 -35 0 -44c-133,7 -85,0 -137,-36 58,-32 -57,-47 131,-30l-27 -71c-190,62 -201,154 0,216z"/>
   <path class="fil0" d="M983 4925l-85 69 85 -69zm-146 218l111 -29c-15,-62 -31,-52 29,-45l18 -91 68 -43 -47 -8 -179 216zm104 40l72 -33 -58 -34 -53 13c-33,150 -18,-8 39,54zm-130 -72c-55,0 -38,-13 -44,46 65,0 52,17 44,-46l34 -49c-57,0 -41,-12 -34,49z"/>
   <path class="fil0" d="M12920 7689c-24,-63 -3,-30 -35,-97l-39 -65c-3,-4 -10,-11 -15,-16 -145,130 -84,168 89,178z"/>
   <path class="fil0" d="M13176 10255c117,-60 92,-30 146,-165l-166 2 20 163z"/>
   <path class="fil0" d="M14583 6118l36 -39 1 -49 -28 -39c-48,-44 66,-50 -98,-34 -18,125 -34,134 89,161z"/>
   <path class="fil0" d="M15101 5808l54 32c-1,-2 -34,-68 -35,-71l19 -75c74,46 51,-75 65,89l-7 19 75 -53c-63,-72 -98,-116 -189,-96 -13,24 -73,32 18,155z"/>
   <path class="fil0" d="M16132 6206c64,-207 26,-126 -84,-173 -44,229 -10,137 84,173z"/>
   <path class="fil0" d="M13237 8396c16,-5 67,-18 79,-25 96,-53 13,-1 58,-60l-42 -123 14 91c-98,-135 -19,92 -59,-52 -4,-15 -20,-13 -26,-23 34,107 -85,28 82,102 -120,62 19,41 -170,-39l64 129zm-59 -10c11,-59 24,-48 -34,-36 -3,51 -16,41 34,36z"/>
   <path class="fil0" d="M7388 10597c235,-74 221,-94 268,-175 -223,59 -224,80 -268,175z"/>
   <path class="fil0" d="M6501 2711l-238 214c72,-52 164,-117 238,-214zm-85 173c62,-119 99,-102 176,-210l-35 0c3,53 14,40 -40,32l-178 179c24,13 -37,63 77,-1zm100 -26c-83,-2 -77,-29 -67,34 79,8 67,32 67,-34z"/>
   <path class="fil0" d="M15422 7243c-22,-88 -32,-66 56,-38l-1 -33 -68 -57 -121 221c196,-31 110,10 134,-93z"/>
   <path class="fil0" d="M12078 7260c120,-57 181,-178 48,-250l-48 250z"/>
   <path class="fil0" d="M10379 11889l124 -11 14 -9 -21 -134 -91 0 -42 31 -24 95 96 -81c8,17 55,-40 5,46 -5,8 -54,57 -61,63z"/>
   <path class="fil0" d="M7669 9822l-21 -25c-144,24 -239,84 -323,169 145,-27 241,-96 344,-144z"/>
   <path class="fil0" d="M9716 8642c0,51 11,36 -44,34l37 26c49,-26 85,-38 133,-64 130,-71 68,-11 94,-110 -108,31 -136,34 -220,114z"/>
   <path class="fil0" d="M6403 6021c-49,62 -32,-95 -43,84l104 15c-12,-53 -22,-41 33,-34l100 -9c-33,-107 43,-70 -72,-92l-44 74c-42,-22 -42,11 -78,-38z"/>
   <path class="fil0" d="M12440 10791l9 -52c6,-4 17,-8 20,-10l39 -30c42,-42 10,23 46,-77 -155,-35 -230,69 -114,169z"/>
   <path class="fil0" d="M2096 4246l42 4 -3 -35 38 2 -4 -39 38 2 -2 -36 38 1 -3 -36 38 4 1 -35 37 0 1 -31 34 0 5 -34 34 -1 -1 -36 36 2 4 -32 34 4c52,-32 46,73 38,-91l-50 4 -22 83 -40 30 -33 37 -39 34 -38 31 -39 31c-48,-6 -35,-15 -35,35l-36 34 -34 37 -39 31 -161 215 161 -215zm34 11c-110,78 -89,83 -167,214 71,-70 104,-130 167,-214zm234 -346l62 -42 -62 42z"/>
   <path class="fil0" d="M15679 5460l-105 29 44 177c163,15 20,8 81,-29 -4,-8 -8,-20 -9,-25 -68,-265 45,-36 -77,-120 78,9 66,32 66,-32z"/>
   <path class="fil0" d="M9721 1517c39,53 -82,60 71,27l109 -68 -62 -3c-27,30 0,62 -36,4 -8,-52 -19,-40 33,-34l46 -74 -161 148zm204 -24c64,15 48,28 48,-38 -89,-59 -54,43 -74,-60 55,6 43,20 43,-34l-40 -1 -44 77c68,9 45,-9 67,56zm-163 113l143 -66 -143 66z"/>
   <path class="fil0" d="M13219 10916l35 -34 -56 -55c-63,64 -67,52 -104,141 -34,82 -31,120 -43,209 181,-333 73,-323 168,-261z"/>
   <path class="fil0" d="M15326 9094l75 -15c1,-53 -14,-41 37,-41l13 -6 -19 -89 -10 -3 -101 -7 5 161z"/>
   <path class="fil0" d="M13144 8350c58,-12 45,-23 34,36l59 10 -64 -129c189,80 50,101 170,39 -167,-74 -48,5 -82,-102 -109,12 -102,14 -117,146z"/>
   <path class="fil0" d="M16821 8371c101,-57 163,-9 65,-156 -125,35 -117,44 -65,156z"/>
   <path class="fil0" d="M7657 9480l-7 -45 -354 156c159,11 255,-69 361,-111z"/>
   <path class="fil0" d="M1431 4545l-318 272c73,-50 94,-72 161,-122 32,-23 55,-34 82,-59 77,-71 33,-29 75,-91zm-320 346c114,-90 261,-177 335,-309 -141,145 -251,172 -335,309z"/>
   <polygon class="fil0" points="13515,6568 13565,6577 13601,6540 13614,6394 13538,6374 "/>
   <path class="fil0" d="M14175 7845l30 46c96,-75 94,-48 61,-201l-101 -1c9,7 18,10 21,25 3,14 16,19 20,24l35 43c-64,18 -42,-16 -66,64z"/>
   <path class="fil0" d="M15475 8945l42 38 130 -39c-67,-108 10,-54 -159,-86l-13 87z"/>
   <path class="fil0" d="M14771 6864c-174,32 -72,-2 -97,72 83,32 76,23 136,-42l14 -13c-68,11 -58,27 -38,-39l22 -73 -104 -9 -20 51c151,-3 62,-18 87,53z"/>
   <path class="fil0" d="M4013 14716l36 44 36 6c-23,45 -28,32 24,34 6,-7 14,-18 17,-20 2,-1 13,6 14,1 3,-9 8,14 11,21l104 55c-143,-139 -67,-131 -221,-196l-10 25 -11 30z"/>
   <path class="fil0" d="M559 9350c-47,-125 -21,-250 -37,-406l-32 604 69 -198z"/>
   <path class="fil0" d="M12701 10476c4,-12 74,-69 82,-158l-124 0c-3,135 -31,69 42,158z"/>
   <path class="fil0" d="M12913 6766l-34 119c67,-26 31,27 85,-55 -7,-143 7,-122 -106,-186l0 46 55 76z"/>
   <path class="fil0" d="M15380 6093l-47 -2 -27 -74c-3,6 -7,10 -8,19 -1,13 -9,32 -11,37 -4,12 -6,37 -32,77l72 57 101 -93 -48 -21z"/>
   <path class="fil0" d="M8728 5033l15 100c128,-2 114,30 194,-37l-136 18c9,-4 23,-19 27,-11l75 -40c6,-3 17,-11 22,-14 4,-3 14,-10 20,-16 -74,-26 -76,-5 -136,41 -9,-6 -29,-18 -32,-9 -4,9 -16,-7 -49,-32z"/>
   <path class="fil0" d="M971 4509l-32 18 -44 81c56,-46 69,-48 109,-79 9,-6 33,-24 41,-31 40,-37 23,-23 52,-65 -33,-1 -58,-5 -83,3 -8,2 -22,8 -30,11 -6,3 -16,10 -23,16l10 46zm-139 96l37 5 56 -66c-97,36 -64,26 -93,61z"/>
   <path class="fil0" d="M10390 12756l61 21c13,-122 -16,-37 23,-132l55 -76c-49,-58 -16,-81 -83,54 -36,73 -29,53 -56,133zm157 -99c-67,-24 -54,-35 -39,35l39 -35zm-46 54c-55,-10 -40,-19 -31,41l31 -41z"/>
   <path class="fil0" d="M11887 211l28 34 195 -96 0 78 4 -7 67 -23 -71 -48 -12 -9c51,7 36,17 36,-38 -61,0 -54,-17 -36,38 -103,18 -140,15 -211,71z"/>
   <path class="fil0" d="M16798 9242l-5 -84c-124,-10 -140,-41 -214,-2 101,72 127,47 219,86z"/>
   <path class="fil0" d="M12159 8688c-11,6 -23,17 -26,25 -3,6 -10,21 -11,27 -22,77 -57,62 34,62l3 -114 95 100c24,-151 43,-48 -48,-120l96 -9c-9,-7 -22,-15 -28,-16 -6,-1 -21,-5 -26,-6 -53,-6 -45,-20 -42,31l-47 20z"/>
   <path class="fil0" d="M14839 6704c56,0 37,-12 41,54 25,30 46,46 73,73l34 -33 -48 -139c-85,9 -54,-5 -100,45z"/>
   <path class="fil0" d="M15930 5434c-9,-62 8,-46 -56,-42l56 42zm-134 51c-21,-47 65,-92 -58,-17l-9 147c4,-9 10,-29 10,-26 0,4 5,-22 5,-32 0,-11 -5,-77 -6,-89l58 17 -15 76 95 -3c-34,-238 -17,-23 30,-131 -74,0 -18,-9 -55,13l-55 45zm-105 -29l88 -24 -88 24z"/>
   <path class="fil0" d="M14091 7789l-7 3 7 -3 34 115c-4,-93 -31,-85 50,-59l30 46 -30 -46c24,-80 2,-46 66,-64l-35 -43c-4,-5 -17,-10 -20,-24 -3,-15 -12,-18 -21,-25 -7,9 -17,19 -22,26 -5,6 -15,19 -20,25 -6,7 -26,39 -32,49z"/>
   <path class="fil0" d="M14136 6334l8 83 125 15 40 -28 -46 -38c-139,75 -88,-21 -97,-38l-30 6 25 -135c-73,38 -44,-19 -52,69 -7,87 -5,28 27,66z"/>
   <path class="fil0" d="M6497 6086l48 33c69,-20 82,36 104,-75 25,-123 -68,-80 -69,-80l-55 21c115,22 39,-15 72,92l-100 9z"/>
   <path class="fil0" d="M3794 3339l-89 65c73,-33 60,-25 89,-65zm-142 215l38 0c1,-53 -13,-41 41,-35 -5,-52 -17,-41 34,-35 -2,-51 -14,-39 37,-35 -5,-53 -16,-40 39,-32l-9 -46c-68,49 -123,105 -180,183zm11 -168l-37 65 -43 18 -1 50c98,-52 55,-34 79,-70 -20,-64 -30,-52 35,-34l25 -68 -58 39zm-75 24l49 -26 -49 26z"/>
   <path class="fil0" d="M9949 12008c80,-3 40,3 103,75l-88 3 88 -3c59,17 40,19 17,-38l31 -70c-78,0 -55,-14 -31,70l-65 -77 71 -22 32 59c3,-72 25,-64 -32,-59 -3,-1 -85,-102 -71,22 -60,-9 -40,-21 -55,40z"/>
   <path class="fil0" d="M7118 2459c-38,27 -120,77 -147,103 -40,38 -22,22 -47,58 -10,15 -41,75 -52,91 113,-81 14,-30 121,-126 61,-55 5,6 62,-46 65,-59 32,-26 63,-80zm-32 147c9,-8 34,-28 39,-34l39 -42c5,-5 13,-16 19,-24 -9,5 -23,2 -27,16 -23,63 22,-8 -99,57 -6,3 -19,9 -23,11 -5,3 -16,8 -23,11l75 5zm86 -32l-50 30 50 -30z"/>
   <path class="fil0" d="M14666 5946l66 72c58,-54 41,26 52,-127l-111 -10 -7 65z"/>
   <path class="fil0" d="M10529 13174l73 108c60,-51 53,-45 88,-94l-77 2c12,-35 -6,-11 31,-82 -87,50 -36,17 -115,66z"/>
   <path class="fil0" d="M10339 11861c-18,63 -25,47 40,28 22,15 124,108 124,-11l-124 11c7,-6 56,-55 61,-63 50,-86 3,-29 -5,-46l-96 81z"/>
   <path class="fil0" d="M14030 7985l95 -17 0 -64 -34 -115 -7 3 -56 13c37,93 -63,33 55,67 -37,77 5,66 -53,113z"/>
   <path class="fil0" d="M10136 12673c-96,-11 -71,-31 -66,69l129 52c-18,-100 6,-75 -63,-121z"/>
   <path class="fil0" d="M15353 9719c4,-9 17,-29 19,-22 3,8 9,26 34,-55 147,64 110,27 136,7l-142 -87 -47 157z"/>
   <path class="fil0" d="M8022 2006l-95 65c164,-43 35,8 95,-65zm48 7l87 -113c-15,7 -72,34 -80,41 -66,57 -12,-1 -39,55l-72 118c8,-5 68,-41 69,-42 67,-71 5,18 35,-59zm28 -9l88 -66c-99,38 -55,26 -88,66z"/>
   <path class="fil0" d="M4131 5264l-50 46c64,148 41,115 180,180 -72,-85 -49,-34 -94,-86 -71,-84 -50,-17 -36,-140zm20 54l20 76c59,24 37,5 100,24 -7,-6 -18,-24 -22,-17 -8,16 -32,-26 -41,-34 -30,-25 -22,-14 -57,-49z"/>
   <path class="fil0" d="M9213 8903l124 -21 -5 -168c-54,51 1,17 -59,35l-84 13 131 40c-6,6 -14,9 -18,23l-89 78z"/>
   <path class="fil0" d="M11981 8763c5,174 -9,39 44,93 52,-36 -16,-26 78,-19l-33 -90 -57 -14 -32 30z"/>
   <path class="fil0" d="M14249 6966c4,143 -16,48 41,71l-41 -71 -67 -5 67 5zm-94 -14c-74,-18 -54,-31 -54,47l68 63c49,26 1,26 69,2 -51,-46 -28,-23 -83,-112z"/>
   <path class="fil0" d="M12103 8944c-49,-98 55,-84 -50,-84 -60,52 66,44 -95,29l16 64c12,4 25,13 68,12 14,0 50,-16 61,-21z"/>
   <path class="fil0" d="M8774 10673l-45 22 5 57 -5 -57 45 -22 59 -3c101,13 9,2 21,-69l-14 -44 38 43 40 -34c-50,4 -37,14 -32,-38l-46 29c-105,30 47,-37 -55,18 -111,60 -20,8 -77,50 216,-39 -49,38 128,-17 -10,6 -15,122 -43,47 -2,-7 -11,15 -19,18zm-38 -107c59,5 49,21 43,-34l-43 34zm76 -33l52 -32 -52 32z"/>
   <path class="fil0" d="M14880 6758c-6,138 4,65 -56,123 22,-58 27,-39 -38,-39 -20,66 -30,50 38,39l-14 13 143 -63c49,6 37,16 34,-33l-34 33c-27,-27 -48,-43 -73,-73 -4,-66 15,-54 -41,-54 -5,62 -20,46 41,54z"/>
   <path class="fil0" d="M16659 8772l-49 66c89,0 72,21 49,-66 11,4 34,10 40,10 33,-3 66,-13 68,-14l-31 -114c-10,11 -27,24 -46,56 -28,45 -13,22 -31,62z"/>
   <path class="fil0" d="M7206 11890l125 -81c-41,-87 4,-45 -109,-48l-16 129z"/>
   <path class="fil0" d="M15410 6324c52,50 -72,67 68,45 77,-12 54,-64 56,-68 -72,-42 -85,-40 -124,23z"/>
   <path class="fil0" d="M15326 9094c5,5 16,11 19,11 3,0 16,3 19,3 45,1 35,27 37,-29l37 -41c-51,0 -36,-12 -37,41l-75 15 -5 -161 101 7c-7,-7 -144,-165 -101,-7 -35,118 -36,61 5,161z"/>
   <path class="fil0" d="M14030 7985c58,-47 16,-36 53,-113 -118,-34 -18,26 -55,-67 -27,41 -27,4 -31,85 -10,190 -18,24 33,95z"/>
   <path class="fil0" d="M13466 6517c9,-72 31,-61 -28,-61l28 61 -14 49 63 2c-29,117 28,40 50,9l36 -37 -36 37 -50 -9 23 -194c-14,22 11,33 -72,143z"/>
   <path class="fil0" d="M11958 8889c161,15 35,23 95,-29 105,0 1,-14 50,84 6,-10 12,-25 13,-33 1,-7 5,-23 6,-30 10,-78 45,-107 -19,-44 -94,-7 -26,-17 -78,19 -53,-54 -39,81 -44,-93l32 -30 -32 30 -23 126z"/>
   <path class="fil0" d="M5194 3168c-32,18 -106,53 -126,68 -100,74 -48,33 -76,105 109,74 32,13 37,12 -18,-81 -41,-76 34,-52l131 -133zm-8 76c-126,40 -47,9 -83,63l83 -63z"/>
   <path class="fil0" d="M13483 7306l22 46 -7 39 46 4c64,-119 15,-154 -66,-107l5 18z"/>
   <path class="fil0" d="M13310 6499c-120,-6 14,75 21,78l-21 -78c5,10 16,11 22,28l56 57c9,9 24,18 34,29l-65 -141 50 -27 -50 27c-69,-8 -68,-31 -47,27z"/>
   <path class="fil0" d="M14684 6811c38,59 -77,34 87,53 -25,-71 64,-56 -87,-53l20 -51 104 9c19,-89 -68,-32 -104,-9 -30,21 -92,-47 -20,51z"/>
   <path class="fil0" d="M14042 6372l-6 -66c-188,-17 -73,-2 -131,30 52,36 4,43 137,36z"/>
   <path class="fil0" d="M14134 6417l-75 14 -17 -15 -33 35 -33 81 19 6 73 -33 51 -50 78 -1 20 50c18,-71 43,-70 -20,-50l-78 1 -51 50c-95,-59 -67,29 66,-88z"/>
   <path class="fil0" d="M5700 6483c-44,-61 14,3 -46,-61 -38,-41 -19,-17 -57,-45l-68 2c69,103 34,37 -4,63l35 37 22 -1c4,-4 11,-18 12,-13l37 -51c27,44 -21,7 69,69z"/>
   <path class="fil0" d="M12588 348l77 -20 -2 108c93,-100 -31,-40 128,-63l-24 -73c-53,71 23,46 -102,33 -138,-13 -10,2 -108,-42l31 57z"/>
   <path class="fil0" d="M689 4974l46 -53 -63 -52c-101,-15 -82,-42 -82,50 93,-3 82,-32 82,32l17 23z"/>
   <path class="fil0" d="M15875 6281c13,-10 37,-24 45,-31 4,-3 15,-12 19,-15l-62 -99c-60,90 -48,58 -2,145z"/>
   <path class="fil0" d="M14666 5946c21,155 23,49 -46,84l-28 -39 28 39 -1 49 -36 39 36 -39 113 -61 -66 -72 7 -65c-146,14 -14,60 -7,65z"/>
   <path class="fil0" d="M9949 12008l15 78 88 -3c-63,-72 -23,-78 -103,-75zm151 -33l7 30 -32 -59 -71 22 65 77c-24,-84 -47,-70 31,-70z"/>
   <path class="fil0" d="M1777 4638l7 -50c-8,6 -20,13 -25,17l-46 34c-5,6 -13,13 -18,19 -33,35 -31,41 -55,85 70,-50 70,-62 137,-105zm7 122c-24,-37 -109,85 1,-86l-77 69c50,36 -67,72 76,17z"/>
   <path class="fil0" d="M8365 9601c-41,-116 30,-92 -105,-114 26,146 -8,63 105,114z"/>
   <path class="fil0" d="M6662 2174l-39 0c-28,54 -33,64 -74,114l32 -4 81 -110zm79 5l-43 0c-22,27 -53,67 -80,100 12,-7 59,-37 64,-41 43,-36 27,-24 59,-59zm-181 39c54,-3 43,12 41,-38l-41 38z"/>
   <path class="fil0" d="M17281 3757c57,43 -72,36 67,33 116,-3 33,-4 78,-26 -1,-1 -49,-81 -145,-7z"/>
   <path class="fil0" d="M10021 1192c-4,3 -73,40 -76,43 -43,32 -31,25 -60,56l48 7c6,-8 13,-28 15,-22 3,5 12,-18 16,-22 0,0 54,-59 57,-62zm70 -2l-43 -4c-38,52 -38,56 -91,108 41,-23 43,-17 76,-44 44,-36 27,-25 58,-60zm-59 100l-26 42 26 -42z"/>
   <path class="fil0" d="M12055 8038c96,-173 16,-61 0,-105 -3,7 -148,-49 0,105z"/>
   <path class="fil0" d="M3566 14402l-6 -43 -48 -16 -48 -27c16,98 -4,26 -38,63 39,40 -18,27 95,60 -5,-6 -12,-19 -14,-21l-35 -39c64,16 42,-21 94,23z"/>
   <path class="fil0" d="M1569 4613l-352 308c127,-85 268,-182 352,-308zm16 39l-246 255 246 -255z"/>
   <path class="fil0" d="M13387 7530c0,-50 -11,-36 42,-31l36 -38c-80,-44 43,-23 -56,-5 -7,1 -70,32 -81,37l-3 -132 -15 138c39,35 2,20 77,31z"/>
   <path class="fil0" d="M7752 9051l-30 49 30 -49c63,26 54,-66 44,93 55,-81 50,-72 100,-94 -50,-30 -38,53 -36,-66l28 -41 -28 41c-10,7 -37,27 -43,30 0,0 -63,36 -65,37z"/>
   <path class="fil0" d="M6446 8554c39,-81 44,-36 0,-136 -16,23 -41,-55 -32,68 6,78 -4,27 32,68z"/>
   <path class="fil0" d="M6384 2605c-9,5 -71,37 -73,38 -48,35 -32,24 -65,56l138 -94zm-148 224l35 -45c40,-45 18,-24 53,-57 6,-5 14,-11 20,-16l77 -75c-130,77 -134,47 -185,193z"/>
   <polygon class="fil0" points="13208,7986 13191,7897 13124,7890 13114,7952 "/>
   <path class="fil0" d="M8349 2022l-3 85c69,-32 78,-27 137,-82l-4 -11c-78,34 -1,30 -130,8z"/>
   <path class="fil0" d="M10363 11766l42 -31 91 0 21 134c8,-20 17,-42 13,-88 -4,-52 19,-39 -34,-46 -37,-61 -35,-84 -91,0l-42 31z"/>
   <path class="fil0" d="M8719 13468c-57,-82 69,-41 -129,-94 14,70 31,58 129,94z"/>
   <path class="fil0" d="M7985 4938c35,40 28,26 44,92 49,-32 47,49 34,-57l-78 -35zm180 19c-122,38 -47,26 -136,-68 24,54 24,60 60,121l76 -53z"/>
   <path class="fil0" d="M9643 5156c4,-7 11,-24 12,-20 1,4 9,-17 10,-22 3,-8 21,-84 22,-86l-36 -23 -66 74c-4,3 -17,8 -25,12 189,-48 10,54 85,-9 -14,26 4,12 -2,74z"/>
   <path class="fil0" d="M1711 4298l-212 164 212 -164zm45 -5l-33 0c-45,80 6,25 -84,93 -6,4 -64,40 -67,43 -50,43 -18,12 -62,69 91,-61 178,-109 246,-205z"/>
   <path class="fil0" d="M4883 3439c-13,-153 48,-25 -95,-98 70,135 -40,80 95,98z"/>
   <path class="fil0" d="M10158 835l-17 31 10 51c59,-2 47,14 43,-42 14,-57 -60,-19 50,-70l-86 30zm89 -16l-58 51c73,-8 58,14 58,-51z"/>
   <path class="fil0" d="M9500 1069l-68 49c147,-5 59,19 68,-49zm-31 117c194,-31 39,12 109,-58 -70,23 -39,-9 -109,58zm79 -1c-55,-3 -40,-15 -38,44l38 -44z"/>
   <path class="fil0" d="M15120 5769l84 14c-14,-164 9,-43 -65,-89l-19 75z"/>
   <path class="fil0" d="M14136 6334l30 -6 46 -96c-44,-54 10,-17 -51,-33l-25 135z"/>
   <path class="fil0" d="M659 12404l-28 -41c-99,177 0,104 11,122l17 -81z"/>
   <polygon class="fil0" points="12125,281 12215,256 12181,197 12114,220 12109,212 "/>
   <path class="fil0" d="M10817 639l-14 19c95,-29 39,30 90,-79l-76 60zm154 -43l-82 -37c65,98 52,12 -6,104 104,-47 57,-28 88,-67z"/>
   <path class="fil0" d="M13332 8188l42 123 14 -175c-59,21 -35,-9 -56,52z"/>
   <path class="fil0" d="M5412 2670l0 37 48 2 69 -88c5,-6 13,-17 20,-25l-137 74zm125 4l-34 41 34 -41z"/>
   <path class="fil0" d="M4213 3614l-68 77c115,-63 41,-9 68,-77zm-70 144c68,-28 25,5 74,-34 52,-43 13,-7 52,-62 -104,57 -45,9 -126,96zm99 -6c-90,18 -28,-7 -42,52l42 -52z"/>
   <path class="fil0" d="M8148 9185l32 -43c-33,-78 4,-39 -71,-58 4,165 7,62 39,101z"/>
   <path class="fil0" d="M11560 8840c62,-16 27,-4 87,-31 7,-3 23,-3 28,-16 5,-14 18,-13 27,-19l-70 -41 -58 28c69,46 74,-41 56,40l-70 39z"/>
   <path class="fil0" d="M901 8160l30 23c85,-89 50,-45 12,-123l-42 100z"/>
   <path class="fil0" d="M15101 5808l42 74 54 -80 7 -19 -84 -14c1,3 34,69 35,71l-54 -32z"/>
   <path class="fil0" d="M88 11750l38 31 51 -307c-44,87 -15,21 -32,113 -22,112 7,72 -57,163z"/>
   <path class="fil0" d="M8747 8912l22 -115c97,86 30,78 105,38l-95 -50c-51,64 -56,-67 -32,127z"/>
   <path class="fil0" d="M9165 9168c63,22 48,-9 60,-66l-70 -25 10 91z"/>
   <path class="fil0" d="M915 8931l15 16c45,-67 32,82 34,-74 2,-109 -11,-53 -22,-76l-27 134z"/>
   <path class="fil0" d="M716 5060l-18 46 18 -46c64,-48 20,-36 121,-17l2 -45 -7 -59 -116 121z"/>
   <path class="fil0" d="M8257 6891c130,-20 61,12 132,-62 -97,13 -38,25 -82,-41 -65,-6 -53,-24 -53,34 83,14 68,-12 70,56l-67 13z"/>
   <path class="fil0" d="M8390 1604c174,-58 -1,62 116,-27 -8,-3 -19,-19 -22,-10l-75 15 -19 22zm40 89c154,-45 39,0 97,-72 -84,39 -26,-31 -97,72zm60 -11l-32 42 32 -42z"/>
   <path class="fil0" d="M4179 3452l-211 163c55,-44 58,-38 105,-69 9,-6 37,-22 45,-29 52,-42 20,-14 61,-65zm18 38c-56,42 -65,38 -108,67 -9,6 -36,22 -44,29 -52,45 -15,10 -55,67l207 -163z"/>
   <path class="fil0" d="M6298 2452c-54,2 -39,-11 -39,45 56,-5 43,10 39,-45zm-41 106c9,-5 63,-37 68,-41 44,-37 21,-17 54,-57l-36 0c-6,6 -15,8 -18,19 -2,12 -14,16 -17,20 -22,25 -38,45 -51,59z"/>
   <path class="fil0" d="M7289 1929l-76 39c4,64 -12,43 55,59l21 -98z"/>
   <path class="fil0" d="M14043 8619c60,-13 25,5 90,-22 10,-4 46,-21 56,-26l53 -37c-63,21 -67,19 -127,45 -10,5 -15,85 -49,26 -4,-7 -15,10 -23,14zm168 -30c-66,-5 -54,-23 -52,36l52 -36zm-74 34c-62,-5 -48,-21 -51,37l51 -37z"/>
   <polygon class="fil0" points="9145,8759 9100,8650 9083,8809 "/>
   <path class="fil0" d="M2983 3656l-5 33c27,26 75,-48 -1,69 16,-11 51,-31 66,-44 61,-50 24,-20 57,-57l-46 32c1,0 -4,-14 -4,-10 -1,5 -7,-12 -8,-14l-59 -9z"/>
   <path class="fil0" d="M15451 9032c31,-22 22,1 66,-49l-42 -38 -43 -2 19 89z"/>
   <path class="fil0" d="M9165 9168l-10 -91 70 25c-4,-98 -63,-30 -70,-25 -69,-12 -39,-15 -20,44 2,4 8,19 10,23 2,6 12,18 20,24z"/>
   <path class="fil0" d="M4536 3126c-143,58 -36,5 -88,66 134,-48 57,-13 88,-66zm50 42c-114,52 -46,11 -74,74 86,-53 46,-32 74,-74z"/>
   <path class="fil0" d="M8916 9117l-3 69 -39 5 -32 -34c-3,54 -18,47 32,34l39 -5c21,-23 58,15 3,-69 25,-126 -58,21 -64,38l64 -38z"/>
   <path class="fil0" d="M9771 1124c-164,52 -38,-1 -98,65 73,-30 63,-28 98,-65zm39 29c-90,45 -61,36 -91,73 138,-46 44,0 91,-73z"/>
   <path class="fil0" d="M1351 4957l-9 -40c-71,37 -68,9 9,40zm-99 72l81 -39 -90 -38 9 77z"/>
   <path class="fil0" d="M7217 2106c-147,55 -32,-1 -87,66 132,-55 55,-19 87,-66zm55 41c-133,47 -55,14 -89,63 86,-33 56,-28 89,-63z"/>
   <path class="fil0" d="M10219 12366c-59,-53 -15,-9 -44,-105 -70,0 -48,-14 -38,66l82 39z"/>
   <path class="fil0" d="M6908 2355c-144,56 -36,3 -88,66 127,-53 54,-20 88,-66zm46 39c-119,48 -58,25 -89,65 101,-36 53,-22 89,-65z"/>
   <path class="fil0" d="M4410 3485c-105,47 -57,31 -89,65 137,-49 48,-8 89,-65zm46 40c-144,55 -48,7 -90,66 83,-34 57,-31 90,-66z"/>
   <path class="fil0" d="M13354 10671l117 -2 -58 -79c-38,65 -1,49 -59,81z"/>
   <polygon class="fil0" points="12913,6766 12858,6690 12825,6687 12824,6749 "/>
   <path class="fil0" d="M6473 6160l72 -41 -48 -33c-55,-7 -45,-19 -33,34l9 40z"/>
   <path class="fil0" d="M12792 6768l0 -85 33 4 33 3 0 -46 -66 39c-75,-14 -39,-17 -26,41 1,4 6,18 7,22 2,5 11,16 19,22z"/>
   <path class="fil0" d="M6719 2488c-133,61 -32,3 -81,72 114,-59 51,-24 81,-72zm44 39c-125,54 -45,13 -80,68 75,-42 54,-36 80,-68z"/>
   <path class="fil0" d="M6800 2284c-100,43 -60,34 -90,64 86,-35 61,-27 90,-64zm37 30c-132,64 -40,7 -84,74 122,-60 43,-15 84,-74z"/>
   <path class="fil0" d="M6564 2468c-105,51 -48,26 -81,66 102,-49 53,-29 81,-66zm58 36c-115,39 -73,27 -102,66 93,-30 66,-31 102,-66z"/>
   <path class="fil0" d="M11591 7943l-17 -23c-65,60 -36,-56 -58,73 132,-19 44,5 75,-50z"/>
   <path class="fil0" d="M12279 7175c133,-68 61,20 87,-101 -175,67 32,3 -87,101z"/>
   <path class="fil0" d="M5711 4614c57,-41 43,64 47,-80l-81 50 34 30z"/>
   <path class="fil0" d="M12449 10739l-9 52 83 -14c-45,-51 71,-52 -74,-38z"/>
   <path class="fil0" d="M4721 2992c-118,58 -39,15 -79,67 83,-41 55,-33 79,-67zm41 31c-114,60 -48,22 -79,73 118,-65 37,-16 79,-73z"/>
   <polygon class="fil0" points="7657,9480 7715,9455 7719,9396 7650,9435 "/>
   <path class="fil0" d="M4709 3276l-140 97 35 4c6,-6 15,-25 18,-19 4,6 16,-15 20,-20 2,-1 67,-61 67,-62zm48 -5l-33 -2c-33,47 -49,66 -91,106l124 -104z"/>
   <path class="fil0" d="M5002 3026c-143,56 -32,-1 -84,66 114,-52 55,-28 84,-66zm42 36c-125,56 46,-53 -50,27 -4,3 -16,13 -20,17 -3,3 -11,12 -16,19 150,-55 27,7 86,-63z"/>
   <path class="fil0" d="M6447 15213l0 -101 63 5 39 36 -39 -36 -63 -5c-57,41 -81,43 0,101z"/>
   <polygon class="fil0" points="12792,6768 12807,6766 12854,6789 12824,6749 12825,6687 12792,6683 "/>
   <polygon class="fil0" points="8874,9191 8913,9186 8916,9117 8852,9155 8842,9157 "/>
   <path class="fil0" d="M8561 9332c-12,102 51,4 61,-19l-61 19 20 -53 7 -11 42 35c4,-60 18,-48 -42,-35l-7 11 -20 53z"/>
   <path class="fil0" d="M15094 7013l29 29 35 -34c9,-4 21,-21 25,-15 5,6 19,-14 24,-19 6,-6 15,-17 23,-25l-136 64z"/>
   <polygon class="fil0" points="7669,9822 7719,9826 7718,9758 7648,9797 "/>
   <path class="fil0" d="M9709 8702l-37 -26c55,2 44,17 44,-34l-84 50c37,40 43,21 77,10z"/>
   <path class="fil0" d="M9322 4697l-39 -57 39 57zm-44 6c-34,79 15,46 -48,80l87 -11c0,-16 -14,-54 -16,-42 -2,10 -16,-17 -23,-27l-62 -16 62 16z"/>
   <path class="fil0" d="M7680 2043l-152 90c11,-4 74,-30 77,-32 54,-33 41,-27 75,-58zm-27 73c-166,36 -36,-8 -94,61l94 -61z"/>
   <path class="fil0" d="M5525 6442c38,-26 73,40 4,-63l-43 -16 39 79zm57 36l-22 1 22 -1z"/>
   <path class="fil0" d="M11906 7217c4,125 93,24 37,6 0,-1 -5,-2 -5,-2 -64,-12 -35,-97 -32,-4z"/>
   <path class="fil0" d="M9621 1056l-44 63 66 -79c-4,1 -14,12 -22,16zm70 21c-110,46 -61,31 -105,74l105 -74zm-157 6l59 -33c-71,-8 -59,-29 -59,33z"/>
   <path class="fil0" d="M17942 3240l68 40 4 -84c-48,64 -1,9 -72,44z"/>
   <path class="fil0" d="M408 12134l-67 91c-46,-223 74,153 -19,-57l-38 -47 94 149 30 -136z"/>
   <path class="fil0" d="M7742 2206l41 7c6,-6 15,-24 18,-18 3,6 15,-15 19,-19l64 -63 -142 93zm114 -26l-27 41 27 -41z"/>
   <path class="fil0" d="M4381 3272l-126 99c13,-8 59,-34 65,-39 51,-41 22,-17 61,-60zm27 41c-9,5 -66,35 -69,37 -53,45 -16,10 -56,62l125 -99z"/>
   <path class="fil0" d="M4880 3134l-136 97 35 2c6,-6 14,-25 17,-20 3,6 14,-16 18,-20 0,0 63,-56 66,-59zm9 28c-112,57 -40,21 -88,69l88 -69z"/>
   <polygon class="fil0" points="949,9667 967,9688 1009,9611 994,9589 "/>
   <path class="fil0" d="M14603 7221l62 -1c-6,-9 -12,-35 -16,-29 -47,71 -31,-43 -39,-51l-23 31 16 50z"/>
   <path class="fil0" d="M5338 3062l-95 63c153,-45 40,-3 95,-63zm22 36c-102,51 -45,24 -79,71l79 -71z"/>
   <path class="fil0" d="M10133 12996l24 -43 -64 -34 -30 18c131,37 29,-1 70,59z"/>
   <path class="fil0" d="M7478 2177l-131 96c9,-6 67,-38 70,-40 45,-34 30,-24 61,-56zm25 38c-21,11 -52,23 -68,36 -54,42 -21,13 -63,63l131 -99z"/>
   <polygon class="fil0" points="8561,9332 8622,9313 8630,9303 8588,9268 8581,9279 "/>
   <path class="fil0" d="M17703 3200c-5,78 72,-7 43,-13 -73,-17 -39,-45 -43,13z"/>
   <path class="fil0" d="M5831 2675l-95 62c161,-50 31,3 95,-62zm21 34c-102,44 -49,25 -86,69l86 -69z"/>
   <path class="fil0" d="M389 4597l2 -6c-66,-24 -62,-39 -33,26 35,21 5,58 31,-20z"/>
   <path class="fil0" d="M5379 6131l81 36 -46 -78c0,54 15,43 -35,42z"/>
   <polygon class="fil0" points="11846,615 11962,527 11920,524 11856,618 "/>
   <path class="fil0" d="M9701 9020c-64,-3 -50,15 -50,-45l-25 64 75 -19z"/>
   <path class="fil0" d="M12970 7539c65,22 46,25 22,-40 -7,-1 -13,-19 -14,-15 -43,104 -34,-55 -41,-64l33 119zm73 -118l8 8 -8 -8z"/>
   <path class="fil0" d="M10070 12742c-5,-100 -30,-80 66,-69l-78 -18 12 87z"/>
   <path class="fil0" d="M8799 13153l15 -15c-1,1 -20,10 -15,15z"/>
  </g>
 </g>
</svg>
